<svg width="442" height="442" viewBox="0 0 442 442" fill="none" xmlns="http://www.w3.org/2000/svg">
<mask id="mask0_232_6842" style="mask-type:alpha" maskUnits="userSpaceOnUse" x="0" y="0" width="442" height="442">
<rect width="442" height="442" fill="#D9D9D9"/>
</mask>
<g mask="url(#mask0_232_6842)">
<circle cx="36.1992" cy="106.598" r="2.5" fill="#BEBEBE"/>
<circle cx="70.8086" cy="64.7012" r="2.5" fill="#BEBEBE"/>
<circle cx="116.348" cy="98.4004" r="2.5" fill="#BEBEBE"/>
<circle cx="79.0059" cy="142.118" r="2.5" fill="#BEBEBE"/>
<circle cx="142.762" cy="146.672" r="2.5" fill="#BEBEBE"/>
<circle cx="192.855" cy="118.438" r="2.5" fill="#BEBEBE"/>
<circle cx="249.324" cy="118.438" r="2.5" fill="#BEBEBE"/>
<circle cx="276.646" cy="69.2554" r="2.5" fill="#BEBEBE"/>
<circle cx="274.826" cy="11.8755" r="2.5" fill="#BEBEBE"/>
<circle cx="325.83" cy="31.9131" r="2.5" fill="#BEBEBE"/>
<circle cx="325.83" cy="98.4004" r="2.5" fill="#BEBEBE"/>
<circle cx="369.547" cy="64.7012" r="2.5" fill="#BEBEBE"/>
<circle cx="405.068" cy="106.598" r="2.5" fill="#BEBEBE"/>
<circle cx="361.352" cy="142.118" r="2.5" fill="#BEBEBE"/>
<circle cx="325.83" cy="195.855" r="2.5" fill="#BEBEBE"/>
<circle cx="297.596" cy="146.672" r="2.5" fill="#BEBEBE"/>
<circle cx="220.178" cy="169.442" r="2.5" fill="#BEBEBE"/>
<circle cx="268.451" cy="195.855" r="2.5" fill="#BEBEBE"/>
<circle cx="268.451" cy="250.502" r="2.5" fill="#BEBEBE"/>
<circle cx="325.83" cy="252.324" r="2.5" fill="#BEBEBE"/>
<circle cx="383.209" cy="252.324" r="2.5" fill="#BEBEBE"/>
<circle cx="436.035" cy="264.164" r="2.5" fill="#BEBEBE"/>
<circle cx="438.768" cy="210.427" r="2.5" fill="#BEBEBE"/>
<circle cx="297.596" cy="300.595" r="2.5" fill="#BEBEBE"/>
<circle cx="220.178" cy="222.268" r="2.5" fill="#BEBEBE"/>
<circle cx="173.729" cy="195.855" r="2.5" fill="#BEBEBE"/>
<circle cx="116.348" cy="195.855" r="2.5" fill="#BEBEBE"/>
<circle cx="58.9688" cy="195.855" r="2.5" fill="#BEBEBE"/>
<circle cx="13.4297" cy="156.691" r="2.5" fill="#BEBEBE"/>
<circle cx="2.5" cy="209.517" r="2.5" fill="#BEBEBE"/>
<circle cx="58.9688" cy="253.234" r="2.5" fill="#BEBEBE"/>
<circle cx="7.05469" cy="265.075" r="2.5" fill="#BEBEBE"/>
<circle cx="22.5371" cy="316.99" r="2.5" fill="#BEBEBE"/>
<circle cx="79.0059" cy="306.06" r="2.5" fill="#BEBEBE"/>
<circle cx="52.5938" cy="363.44" r="2.5" fill="#BEBEBE"/>
<circle cx="91.7578" cy="400.782" r="2.5" fill="#BEBEBE"/>
<circle cx="115.438" cy="348.867" r="2.5" fill="#BEBEBE"/>
<circle cx="142.762" cy="301.506" r="2.5" fill="#BEBEBE"/>
<circle cx="192.855" cy="329.741" r="2.5" fill="#BEBEBE"/>
<circle cx="249.324" cy="329.741" r="2.5" fill="#BEBEBE"/>
<circle cx="221.09" cy="278.736" r="2.5" fill="#BEBEBE"/>
<circle cx="115.438" cy="251.413" r="2.5" fill="#BEBEBE"/>
<circle cx="173.729" cy="251.413" r="2.5" fill="#BEBEBE"/>
<circle cx="221.09" cy="388.031" r="2.5" fill="#BEBEBE"/>
<circle cx="164.621" cy="378.013" r="2.5" fill="#BEBEBE"/>
<circle cx="140.029" cy="427.195" r="2.5" fill="#BEBEBE"/>
<circle cx="192.855" cy="439.946" r="2.5" fill="#BEBEBE"/>
<circle cx="247.502" cy="439.946" r="2.5" fill="#BEBEBE"/>
<circle cx="276.646" cy="378.013" r="2.5" fill="#BEBEBE"/>
<circle cx="300.328" cy="427.195" r="2.5" fill="#BEBEBE"/>
<circle cx="349.51" cy="399.872" r="2.5" fill="#BEBEBE"/>
<circle cx="326.74" cy="348.867" r="2.5" fill="#BEBEBE"/>
<circle cx="388.674" cy="363.44" r="2.5" fill="#BEBEBE"/>
<circle cx="362.262" cy="305.149" r="2.5" fill="#BEBEBE"/>
<circle cx="417.82" cy="316.99" r="2.5" fill="#BEBEBE"/>
<circle cx="383.209" cy="194.033" r="2.5" fill="#BEBEBE"/>
<circle cx="428.748" cy="156.691" r="2.5" fill="#BEBEBE"/>
<circle cx="116.348" cy="31.9131" r="2.5" fill="#BEBEBE"/>
<circle cx="164.621" cy="69.2554" r="2.5" fill="#BEBEBE"/>
<circle cx="166.441" cy="11.8755" r="2.5" fill="#BEBEBE"/>
<circle cx="221.09" cy="60.1475" r="2.5" fill="#BEBEBE"/>
<circle cx="221.09" cy="5.5" r="2.5" fill="#BEBEBE"/>
</g>
</svg>
