<svg width="442" height="442" viewBox="0 0 442 442" fill="none" xmlns="http://www.w3.org/2000/svg">
<mask id="mask0_232_6685" style="mask-type:alpha" maskUnits="userSpaceOnUse" x="0" y="0" width="442" height="442">
<rect width="442" height="442" fill="#D9D9D9"/>
</mask>
<g mask="url(#mask0_232_6685)">
<circle cx="3.5" cy="6.5" r="2.5" fill="#BEBEBE"/>
<circle cx="55.5" cy="25.5" r="2.5" fill="#BEBEBE"/>
<circle cx="106.5" cy="43.5" r="2.5" fill="#BEBEBE"/>
<circle cx="157.5" cy="62.5" r="2.5" fill="#BEBEBE"/>
<circle cx="115.5" cy="99.5" r="2.5" fill="#BEBEBE"/>
<circle cx="166.5" cy="118.5" r="2.5" fill="#BEBEBE"/>
<circle cx="13.5" cy="62.5" r="2.5" fill="#BEBEBE"/>
<circle cx="64.5" cy="81.5" r="2.5" fill="#BEBEBE"/>
<circle cx="149.5" cy="6.5" r="2.5" fill="#BEBEBE"/>
<circle cx="199.5" cy="25.5" r="2.5" fill="#BEBEBE"/>
<circle cx="344.5" cy="25.5" r="2.5" fill="#BEBEBE"/>
<circle cx="302.5" cy="62.5" r="2.5" fill="#BEBEBE"/>
<circle cx="251.5" cy="43.5" r="2.5" fill="#BEBEBE"/>
<circle cx="353.5" cy="81.5" r="2.5" fill="#BEBEBE"/>
<circle cx="311.5" cy="118.5" r="2.5" fill="#BEBEBE"/>
<circle cx="404.5" cy="99.5" r="2.5" fill="#BEBEBE"/>
<circle cx="362.5" cy="137.5" r="2.5" fill="#BEBEBE"/>
<circle cx="413.5" cy="155.5" r="2.5" fill="#BEBEBE"/>
<circle cx="319.5" cy="174.5" r="2.5" fill="#BEBEBE"/>
<circle cx="328.5" cy="230.5" r="2.5" fill="#BEBEBE"/>
<circle cx="422.5" cy="211.5" r="2.5" fill="#BEBEBE"/>
<circle cx="379.5" cy="248.5" r="2.5" fill="#BEBEBE"/>
<circle cx="430.5" cy="267.5" r="2.5" fill="#BEBEBE"/>
<circle cx="388.5" cy="304.5" r="2.5" fill="#BEBEBE"/>
<circle cx="336.5" cy="285.5" r="2.5" fill="#BEBEBE"/>
<circle cx="439.5" cy="323.5" r="2.5" fill="#BEBEBE"/>
<circle cx="396.5" cy="360.5" r="2.5" fill="#BEBEBE"/>
<circle cx="345.5" cy="341.5" r="2.5" fill="#BEBEBE"/>
<circle cx="294.5" cy="323.5" r="2.5" fill="#BEBEBE"/>
<circle cx="243.5" cy="304.5" r="2.5" fill="#BEBEBE"/>
<circle cx="192.5" cy="286.5" r="2.5" fill="#BEBEBE"/>
<circle cx="149.5" cy="323.5" r="2.5" fill="#BEBEBE"/>
<circle cx="98.5" cy="304.5" r="2.5" fill="#BEBEBE"/>
<circle cx="47.5" cy="286.5" r="2.5" fill="#BEBEBE"/>
<circle cx="56.5" cy="341.5" r="2.5" fill="#BEBEBE"/>
<circle cx="4.5" cy="323.5" r="2.5" fill="#BEBEBE"/>
<circle cx="13.5" cy="379.5" r="2.5" fill="#BEBEBE"/>
<circle cx="64.5" cy="397.5" r="2.5" fill="#BEBEBE"/>
<circle cx="107.5" cy="360.5" r="2.5" fill="#BEBEBE"/>
<circle cx="158.5" cy="379.5" r="2.5" fill="#BEBEBE"/>
<circle cx="200.5" cy="341.5" r="2.5" fill="#BEBEBE"/>
<circle cx="251.5" cy="360.5" r="2.5" fill="#BEBEBE"/>
<circle cx="209.5" cy="397.5" r="2.5" fill="#BEBEBE"/>
<circle cx="260.5" cy="416.5" r="2.5" fill="#BEBEBE"/>
<circle cx="303.5" cy="379.5" r="2.5" fill="#BEBEBE"/>
<circle cx="311.5" cy="435.5" r="2.5" fill="#BEBEBE"/>
<circle cx="354.5" cy="398.5" r="2.5" fill="#BEBEBE"/>
<circle cx="405.5" cy="416.5" r="2.5" fill="#BEBEBE"/>
<circle cx="167.5" cy="435.5" r="2.5" fill="#BEBEBE"/>
<circle cx="115.5" cy="416.5" r="2.5" fill="#BEBEBE"/>
<circle cx="21.5" cy="434.5" r="2.5" fill="#BEBEBE"/>
<circle cx="286.5" cy="267.5" r="2.5" fill="#BEBEBE"/>
<circle cx="370.5" cy="192.5" r="2.5" fill="#BEBEBE"/>
<circle cx="277.5" cy="211.5" r="2.5" fill="#BEBEBE"/>
<circle cx="268.5" cy="155.5" r="2.5" fill="#BEBEBE"/>
<circle cx="217.5" cy="137.5" r="2.5" fill="#BEBEBE"/>
<circle cx="226.5" cy="192.5" r="2.5" fill="#BEBEBE"/>
<circle cx="175.5" cy="174.5" r="2.5" fill="#BEBEBE"/>
<circle cx="123.5" cy="155.5" r="2.5" fill="#BEBEBE"/>
<circle cx="73.5" cy="137.5" r="2.5" fill="#BEBEBE"/>
<circle cx="21.5" cy="118.5" r="2.5" fill="#BEBEBE"/>
<circle cx="30.5" cy="174.5" r="2.5" fill="#BEBEBE"/>
<circle cx="81.5" cy="192.5" r="2.5" fill="#BEBEBE"/>
<circle cx="132.5" cy="211.5" r="2.5" fill="#BEBEBE"/>
<circle cx="183.5" cy="230.5" r="2.5" fill="#BEBEBE"/>
<circle cx="141.5" cy="267.5" r="2.5" fill="#BEBEBE"/>
<circle cx="235.5" cy="248.5" r="2.5" fill="#BEBEBE"/>
<circle cx="89.5" cy="248.5" r="2.5" fill="#BEBEBE"/>
<circle cx="38.5" cy="230.5" r="2.5" fill="#BEBEBE"/>
<circle cx="259.5" cy="99.5" r="2.5" fill="#BEBEBE"/>
<circle cx="208.5" cy="81.5" r="2.5" fill="#BEBEBE"/>
<circle cx="395.5" cy="43.5" r="2.5" fill="#BEBEBE"/>
<circle cx="438.5" cy="6.5" r="2.5" fill="#BEBEBE"/>
<circle cx="293.5" cy="6.5" r="2.5" fill="#BEBEBE"/>
</g>
</svg>
