<svg width="442" height="442" viewBox="0 0 442 442" fill="none" xmlns="http://www.w3.org/2000/svg">
<mask id="mask0_232_6689" style="mask-type:alpha" maskUnits="userSpaceOnUse" x="0" y="0" width="442" height="442">
<rect width="442" height="442" fill="#D9D9D9"/>
</mask>
<g mask="url(#mask0_232_6689)">
<circle cx="102.5" cy="49.5" r="2.5" fill="#BEBEBE"/>
<circle cx="149.5" cy="24.5" r="2.5" fill="#BEBEBE"/>
<circle cx="200.5" cy="13.5" r="2.5" fill="#BEBEBE"/>
<circle cx="166.5" cy="82.5" r="2.5" fill="#BEBEBE"/>
<circle cx="219.5" cy="72.5" r="2.5" fill="#BEBEBE"/>
<circle cx="253.5" cy="16.5" r="2.5" fill="#BEBEBE"/>
<circle cx="302.5" cy="33.5" r="2.5" fill="#BEBEBE"/>
<circle cx="271.5" cy="85.5" r="2.5" fill="#BEBEBE"/>
<circle cx="345.5" cy="62.5" r="2.5" fill="#BEBEBE"/>
<circle cx="380.5" cy="102.5" r="2.5" fill="#BEBEBE"/>
<circle cx="315.5" cy="115.5" r="2.5" fill="#BEBEBE"/>
<circle cx="343.5" cy="160.5" r="2.5" fill="#BEBEBE"/>
<circle cx="403.5" cy="149.5" r="2.5" fill="#BEBEBE"/>
<circle cx="413.5" cy="200.5" r="2.5" fill="#BEBEBE"/>
<circle cx="410.5" cy="253.5" r="2.5" fill="#BEBEBE"/>
<circle cx="354.5" cy="212.5" r="2.5" fill="#BEBEBE"/>
<circle cx="345.5" cy="265.5" r="2.5" fill="#BEBEBE"/>
<circle cx="394.5" cy="303.5" r="2.5" fill="#BEBEBE"/>
<circle cx="366.5" cy="348.5" r="2.5" fill="#BEBEBE"/>
<circle cx="328.5" cy="385.5" r="2.5" fill="#BEBEBE"/>
<circle cx="279.5" cy="346.5" r="2.5" fill="#BEBEBE"/>
<circle cx="230.5" cy="365.5" r="2.5" fill="#BEBEBE"/>
<circle cx="284.5" cy="411.5" r="2.5" fill="#BEBEBE"/>
<circle cx="233.5" cy="426.5" r="2.5" fill="#BEBEBE"/>
<circle cx="180.5" cy="428.5" r="2.5" fill="#BEBEBE"/>
<circle cx="177.5" cy="367.5" r="2.5" fill="#BEBEBE"/>
<circle cx="127.5" cy="353.5" r="2.5" fill="#BEBEBE"/>
<circle cx="153.5" cy="300.5" r="2.5" fill="#BEBEBE"/>
<circle cx="210.5" cy="308.5" r="2.5" fill="#BEBEBE"/>
<circle cx="83.5" cy="325.5" r="2.5" fill="#BEBEBE"/>
<circle cx="110.5" cy="265.5" r="2.5" fill="#BEBEBE"/>
<circle cx="151.5" cy="217.5" r="2.5" fill="#BEBEBE"/>
<circle cx="171.5" cy="147.5" r="2.5" fill="#BEBEBE"/>
<circle cx="93.5" cy="160.5" r="2.5" fill="#BEBEBE"/>
<circle cx="88.5" cy="215.5" r="2.5" fill="#BEBEBE"/>
<circle cx="32.5" cy="233.5" r="2.5" fill="#BEBEBE"/>
<circle cx="27.5" cy="182.5" r="2.5" fill="#BEBEBE"/>
<circle cx="40.5" cy="131.5" r="2.5" fill="#BEBEBE"/>
<circle cx="234.5" cy="134.5" r="2.5" fill="#BEBEBE"/>
<circle cx="50.5" cy="284.5" r="2.5" fill="#BEBEBE"/>
<circle cx="318.5" cy="311.5" r="2.5" fill="#BEBEBE"/>
<circle cx="292.5" cy="233.5" r="2.5" fill="#BEBEBE"/>
<circle cx="262.5" cy="284.5" r="2.5" fill="#BEBEBE"/>
<circle cx="283.5" cy="173.5" r="2.5" fill="#BEBEBE"/>
<circle cx="219.5" cy="205.5" r="2.5" fill="#BEBEBE"/>
<circle cx="121.5" cy="112.5" r="2.5" fill="#BEBEBE"/>
<circle cx="65.5" cy="86.5" r="2.5" fill="#BEBEBE"/>
</g>
</svg>
