<svg xmlns="http://www.w3.org/2000/svg" viewBox="0 0 600 600"><defs><style>.a13d6811-e01e-4234-a799-77653c55bccd{fill:#1d1d1b;}.b27d3db9-7555-48ec-a882-eeabfda7a300,.bb7a5c96-cc31-4536-b8af-be7c2043c088{fill:none;}.b27d3db9-7555-48ec-a882-eeabfda7a300{stroke:#1d1d1b;stroke-linecap:round;stroke-linejoin:round;stroke-width:0.5px;}.f0416f7b-4591-4cb1-8b7b-81daf854adc4{fill:#fff;}</style></defs><g id="b35028e1-fb7c-4425-88e7-ed15985fb26a" data-name="Livello 2"><g id="b8d6e4fe-0d0b-430f-a402-9beea60b4c6f" data-name="Livello 1"><path class="a13d6811-e01e-4234-a799-77653c55bccd" d="M283.08,231.54v-5.4h-2v-.84c1.47-.08,2-.48,2.16-1.59h1v7.83h1.92v1.05H281v-1.05Z"/><path class="a13d6811-e01e-4234-a799-77653c55bccd" d="M290.9,231.8a1.73,1.73,0,0,0,1.89-1.67c0-1-.74-1.57-2-1.57h-.43v-1h.3c1.26,0,2-.56,2-1.54s-.71-1.52-1.77-1.52a1.74,1.74,0,0,0-1.86,1.89h-1.24a2.84,2.84,0,0,1,3.17-2.87c1.76,0,2.94,1,2.94,2.4a2.15,2.15,0,0,1-1.61,2.07v.06a2.09,2.09,0,0,1,1.74,2.16c0,1.51-1.36,2.57-3.21,2.57a2.86,2.86,0,0,1-3.13-3H289A1.82,1.82,0,0,0,290.9,231.8Z"/><path class="a13d6811-e01e-4234-a799-77653c55bccd" d="M295.28,230.22a2.1,2.1,0,0,1,1.86-2.21V228a2,2,0,0,1-1.61-2c0-1.44,1.18-2.41,3-2.41s2.94,1,2.94,2.41a2,2,0,0,1-1.61,2V228a2.09,2.09,0,0,1,1.87,2.21c0,1.5-1.33,2.56-3.2,2.56S295.28,231.72,295.28,230.22Zm5.11-.07a1.93,1.93,0,0,0-3.83,0,1.93,1.93,0,0,0,3.83,0Zm-.17-4.16a1.77,1.77,0,1,0-1.74,1.5A1.54,1.54,0,0,0,300.22,226Z"/><path class="a13d6811-e01e-4234-a799-77653c55bccd" d="M304.4,229.24c0-2,1.14-3.55,3.16-3.55a2.6,2.6,0,0,1,2.82,2.39h-1.25a1.48,1.48,0,0,0-1.59-1.43c-1.23,0-1.89,1-1.89,2.59s.68,2.6,1.89,2.6a1.64,1.64,0,0,0,1.68-1.5h1.17a2.62,2.62,0,0,1-2.86,2.44C305.5,232.78,304.4,231.35,304.4,229.24Z"/><path class="a13d6811-e01e-4234-a799-77653c55bccd" d="M311.11,225.88h1.11v.86a2.31,2.31,0,0,1,2-1,1.85,1.85,0,0,1,1.83,1.23,2.69,2.69,0,0,1,2.38-1.23c1.55,0,2.16,1,2.16,2.48v4.37h-1.2v-3.72c0-1-.08-2.18-1.32-2.18-1.45,0-1.63,1.58-1.63,2.58v3.32h-1.19v-3.72c0-1-.1-2.18-1.34-2.18-1.45,0-1.63,1.58-1.63,2.58v3.32h-1.19Z"/><path class="a13d6811-e01e-4234-a799-77653c55bccd" d="M289,238.71v1h-4.12l-.3,2.82a2.55,2.55,0,0,1,2.06-.93,2.86,2.86,0,0,1,2.91,3,3,3,0,0,1-3.18,3.13,2.89,2.89,0,0,1-3.1-2.56h1.25a1.73,1.73,0,0,0,1.83,1.58,1.89,1.89,0,0,0,1.93-2.08,1.91,1.91,0,0,0-1.88-2.1,1.7,1.7,0,0,0-1.74,1.24l-1.27-.12.49-5Z"/><path class="a13d6811-e01e-4234-a799-77653c55bccd" d="M295.78,245.34v2.25h-1.21v-2.25H290.5v-1l3.89-5.64h1.39v5.6h1.6v1Zm-1.15-1v-1.75c0-.63,0-1.83.06-2.48l-.08,0a15.55,15.55,0,0,1-.86,1.37l-2,2.88Z"/><path class="a13d6811-e01e-4234-a799-77653c55bccd" d="M299.61,246v1.55h-1.49V246Z"/><path class="a13d6811-e01e-4234-a799-77653c55bccd" d="M303.45,246.8a1.72,1.72,0,0,0,1.87-1.67c0-1-.73-1.57-1.95-1.57H303v-1h.29c1.26,0,2-.56,2-1.54s-.69-1.52-1.76-1.52a1.75,1.75,0,0,0-1.87,1.89h-1.24a2.85,2.85,0,0,1,3.18-2.87c1.75,0,3,1,3,2.4a2.17,2.17,0,0,1-1.61,2.07v.06a2.07,2.07,0,0,1,1.72,2.16c0,1.51-1.36,2.57-3.21,2.57a2.86,2.86,0,0,1-3.13-3h1.27A1.82,1.82,0,0,0,303.45,246.8Z"/><path class="a13d6811-e01e-4234-a799-77653c55bccd" d="M310.39,246.8a1.72,1.72,0,0,0,1.87-1.67c0-1-.73-1.57-1.95-1.57h-.41v-1h.28c1.26,0,2-.56,2-1.54s-.69-1.52-1.76-1.52a1.75,1.75,0,0,0-1.87,1.89H307.3a2.84,2.84,0,0,1,3.17-2.87c1.75,0,2.95,1,2.95,2.4a2.17,2.17,0,0,1-1.61,2.07v.06a2.08,2.08,0,0,1,1.73,2.16c0,1.51-1.37,2.57-3.21,2.57a2.86,2.86,0,0,1-3.14-3h1.28A1.81,1.81,0,0,0,310.39,246.8Z"/><path class="a13d6811-e01e-4234-a799-77653c55bccd" d="M314.21,241.49l.63-2h-.56v-1.39h1.45v1.55l-.75,1.79Zm2.21,0,.63-2h-.56v-1.39h1.45v1.55l-.75,1.79Z"/><path class="a13d6811-e01e-4234-a799-77653c55bccd" d="M283.08,359.26v-5.39h-2V353c1.47-.08,2-.48,2.16-1.59h1v7.83h1.92v1.05H281v-1.05Z"/><path class="a13d6811-e01e-4234-a799-77653c55bccd" d="M293.57,351.43v1h-4.12l-.3,2.82a2.56,2.56,0,0,1,2.05-.93,2.86,2.86,0,0,1,2.91,3,3,3,0,0,1-3.18,3.13,2.88,2.88,0,0,1-3.09-2.56h1.24a1.74,1.74,0,0,0,1.84,1.57,1.88,1.88,0,0,0,1.92-2.08,1.91,1.91,0,0,0-1.87-2.09,1.69,1.69,0,0,0-1.74,1.23l-1.28-.12.5-5Z"/><path class="a13d6811-e01e-4234-a799-77653c55bccd" d="M301.72,355.87c0,3.07-1.25,4.64-3.25,4.64s-3.24-1.65-3.24-4.64,1.24-4.63,3.24-4.63S301.72,352.88,301.72,355.87Zm-5.21,0c0,2.31.62,3.65,2,3.65s2-1.34,2-3.65-.63-3.64-2-3.64S296.51,353.5,296.51,355.87Z"/><path class="a13d6811-e01e-4234-a799-77653c55bccd" d="M304.4,357c0-2,1.14-3.55,3.16-3.55a2.6,2.6,0,0,1,2.82,2.39h-1.25a1.48,1.48,0,0,0-1.59-1.43c-1.23,0-1.9,1-1.9,2.59s.69,2.6,1.9,2.6a1.63,1.63,0,0,0,1.68-1.5h1.17a2.62,2.62,0,0,1-2.86,2.45C305.5,360.51,304.4,359.08,304.4,357Z"/><path class="a13d6811-e01e-4234-a799-77653c55bccd" d="M311.1,353.61h1.12v.85a2.31,2.31,0,0,1,2-1,1.85,1.85,0,0,1,1.83,1.24,2.7,2.7,0,0,1,2.38-1.24c1.55,0,2.16,1,2.16,2.49v4.36h-1.2V356.6c0-1-.08-2.19-1.32-2.19-1.45,0-1.63,1.59-1.63,2.59v3.31h-1.2V356.6c0-1-.09-2.19-1.33-2.19-1.45,0-1.63,1.59-1.63,2.59v3.31h-1.2Z"/><path class="a13d6811-e01e-4234-a799-77653c55bccd" d="M288.45,366.43v1h-4.12l-.3,2.82a2.56,2.56,0,0,1,2.05-.93,2.86,2.86,0,0,1,2.91,3,3,3,0,0,1-3.18,3.13,2.89,2.89,0,0,1-3.1-2.56H284a1.73,1.73,0,0,0,1.83,1.57,1.89,1.89,0,0,0,1.93-2.08,1.91,1.91,0,0,0-1.87-2.09,1.71,1.71,0,0,0-1.75,1.23l-1.27-.12.49-5Z"/><path class="a13d6811-e01e-4234-a799-77653c55bccd" d="M293.2,374.52c1.33,0,2-1.21,2-3.25v-.51a2.31,2.31,0,0,1-2.17,1.23,2.7,2.7,0,0,1-2.86-2.87,2.92,2.92,0,0,1,3.08-2.88c2.11,0,3.2,1.64,3.2,4.5,0,3-1.13,4.77-3.23,4.77a2.69,2.69,0,0,1-3-2.42h1.23A1.58,1.58,0,0,0,293.2,374.52Zm-1.83-5.4a1.78,1.78,0,0,0,1.77,1.89,1.9,1.9,0,0,0,0-3.8A1.8,1.8,0,0,0,291.37,369.12Z"/><path class="a13d6811-e01e-4234-a799-77653c55bccd" d="M299,373.77v1.54h-1.5v-1.54Z"/><path class="a13d6811-e01e-4234-a799-77653c55bccd" d="M306.41,370.87c0,3.07-1.25,4.64-3.25,4.64s-3.23-1.65-3.23-4.64,1.23-4.63,3.23-4.63S306.41,367.88,306.41,370.87Zm-5.21,0c0,2.31.62,3.65,2,3.65s2-1.34,2-3.65-.63-3.64-2-3.64S301.2,368.5,301.2,370.87Z"/><path class="a13d6811-e01e-4234-a799-77653c55bccd" d="M313.34,366.43v1h-4.12l-.3,2.82a2.56,2.56,0,0,1,2.05-.93,2.86,2.86,0,0,1,2.92,3,3,3,0,0,1-3.19,3.13,2.89,2.89,0,0,1-3.09-2.56h1.25a1.72,1.72,0,0,0,1.83,1.57,1.88,1.88,0,0,0,1.92-2.08,1.9,1.9,0,0,0-1.87-2.09,1.7,1.7,0,0,0-1.74,1.23l-1.28-.12.5-5Z"/><path class="a13d6811-e01e-4234-a799-77653c55bccd" d="M314.81,369.22l.62-2h-.55v-1.39h1.45v1.54l-.75,1.8Zm2.21,0,.62-2h-.56v-1.39h1.46v1.54l-.75,1.8Z"/><path class="a13d6811-e01e-4234-a799-77653c55bccd" d="M523.31,279.05v-5.39h-2v-.85c1.47-.07,2-.48,2.15-1.58h1v7.82h1.91v1.06h-5.15v-1.06Z"/><path class="a13d6811-e01e-4234-a799-77653c55bccd" d="M531.14,279.31a1.72,1.72,0,0,0,1.88-1.66c0-1-.74-1.57-1.95-1.57h-.43v-1h.3c1.26,0,2-.56,2-1.54s-.71-1.52-1.77-1.52a1.74,1.74,0,0,0-1.86,1.89h-1.24a2.85,2.85,0,0,1,3.18-2.88c1.75,0,2.94,1,2.94,2.41a2.14,2.14,0,0,1-1.62,2.06v.07a2.08,2.08,0,0,1,1.74,2.16c0,1.51-1.36,2.57-3.21,2.57a2.86,2.86,0,0,1-3.13-3h1.26A1.81,1.81,0,0,0,531.14,279.31Z"/><path class="a13d6811-e01e-4234-a799-77653c55bccd" d="M537.09,276.75c0-2,1.14-3.55,3.16-3.55a2.61,2.61,0,0,1,2.82,2.4h-1.25a1.48,1.48,0,0,0-1.58-1.43c-1.24,0-1.9,1-1.9,2.58s.69,2.6,1.9,2.6a1.62,1.62,0,0,0,1.67-1.49h1.17a2.61,2.61,0,0,1-2.86,2.44C538.19,280.3,537.09,278.87,537.09,276.75Z"/><path class="a13d6811-e01e-4234-a799-77653c55bccd" d="M543.8,273.4h1.12v.86a2.25,2.25,0,0,1,2-1,1.84,1.84,0,0,1,1.83,1.23,2.69,2.69,0,0,1,2.38-1.23c1.55,0,2.16,1,2.16,2.48v4.37h-1.2v-3.72c0-1-.07-2.19-1.32-2.19-1.45,0-1.63,1.59-1.63,2.59v3.32H548v-3.72c0-1-.09-2.19-1.34-2.19-1.45,0-1.63,1.59-1.63,2.59v3.32H543.8Z"/><path class="a13d6811-e01e-4234-a799-77653c55bccd" d="M526.26,286.23v1h-4.12l-.3,2.82a2.54,2.54,0,0,1,2-.94,2.87,2.87,0,0,1,2.92,3,3,3,0,0,1-3.19,3.13,2.89,2.89,0,0,1-3.09-2.56h1.25a1.71,1.71,0,0,0,1.83,1.57,1.87,1.87,0,0,0,1.92-2.08,1.9,1.9,0,0,0-1.87-2.09,1.69,1.69,0,0,0-1.74,1.24l-1.28-.12.5-5Z"/><path class="a13d6811-e01e-4234-a799-77653c55bccd" d="M529.29,293.56v1.55h-1.5v-1.55Z"/><path class="a13d6811-e01e-4234-a799-77653c55bccd" d="M533.12,294.05v-5.39h-2v-.85c1.47-.07,2-.48,2.16-1.58h1v7.82h1.91v1.06h-5.15v-1.06Z"/><path class="a13d6811-e01e-4234-a799-77653c55bccd" d="M538,294.73a3.72,3.72,0,0,1,.7-2.25,7.36,7.36,0,0,1,2-1.6c1.46-.88,2-1.45,2-2.35A1.48,1.48,0,0,0,541,287c-1.11,0-1.74.69-1.79,2H538a2.89,2.89,0,0,1,3.13-3,2.55,2.55,0,0,1,2.8,2.56c0,1.17-.67,2-2.37,3.07a7.06,7.06,0,0,0-1.68,1.26,1.93,1.93,0,0,0-.52,1.13H544v1.06h-6Z"/><path class="a13d6811-e01e-4234-a799-77653c55bccd" d="M545.08,289l.63-1.95h-.56v-1.39h1.45v1.55l-.75,1.79Zm2.21,0,.63-1.95h-.56v-1.39h1.46v1.55l-.76,1.79Z"/><line class="b27d3db9-7555-48ec-a882-eeabfda7a300" x1="512.54" y1="267.7" x2="512.54" y2="299.61"/><polygon class="a13d6811-e01e-4234-a799-77653c55bccd" points="515.58 268.1 509.5 268.1 512.54 265.07 515.58 268.1"/><polygon class="a13d6811-e01e-4234-a799-77653c55bccd" points="515.58 299.21 509.5 299.21 512.54 302.24 515.58 299.21"/><path class="a13d6811-e01e-4234-a799-77653c55bccd" d="M525.45,323v2.25h-1.2V323h-4.07v-1l3.88-5.65h1.39V322h1.6v1Zm-1.14-1v-1.76c0-.62,0-1.83.05-2.48h-.08a13.27,13.27,0,0,1-.85,1.36l-2,2.89Z"/><path class="a13d6811-e01e-4234-a799-77653c55bccd" d="M529.29,323.74v1.54h-1.5v-1.54Z"/><path class="a13d6811-e01e-4234-a799-77653c55bccd" d="M535.27,323v2.25h-1.21V323H530v-1l3.89-5.65h1.39V322h1.6v1Zm-1.15-1v-1.76c0-.62,0-1.83.06-2.48h-.08a15.41,15.41,0,0,1-.86,1.36l-2,2.89Z"/><path class="a13d6811-e01e-4234-a799-77653c55bccd" d="M539.36,321.93c0-2,1.15-3.55,3.16-3.55a2.59,2.59,0,0,1,2.82,2.39H544.1a1.49,1.49,0,0,0-1.59-1.43c-1.23,0-1.9,1-1.9,2.59s.69,2.6,1.9,2.6a1.63,1.63,0,0,0,1.68-1.5h1.17a2.63,2.63,0,0,1-2.86,2.45C540.47,325.48,539.36,324.05,539.36,321.93Z"/><path class="a13d6811-e01e-4234-a799-77653c55bccd" d="M546.07,318.58h1.12v.85a2.31,2.31,0,0,1,2-1,1.85,1.85,0,0,1,1.83,1.24,2.7,2.7,0,0,1,2.38-1.24c1.54,0,2.16,1,2.16,2.49v4.36h-1.2v-3.72c0-1-.08-2.18-1.33-2.18-1.44,0-1.62,1.59-1.62,2.59v3.31h-1.2v-3.72c0-1-.09-2.18-1.34-2.18-1.44,0-1.62,1.59-1.62,2.59v3.31h-1.2Z"/><path class="a13d6811-e01e-4234-a799-77653c55bccd" d="M523.31,339.23v-5.4h-2V333c1.47-.08,2-.48,2.15-1.59h1v7.83h1.91v1h-5.15v-1Z"/><path class="a13d6811-e01e-4234-a799-77653c55bccd" d="M529.29,338.74v1.54h-1.5v-1.54Z"/><path class="a13d6811-e01e-4234-a799-77653c55bccd" d="M535.14,332.46h-4.68V331.4h6v.9a25.87,25.87,0,0,0-3.19,8h-1.34A26.93,26.93,0,0,1,535.14,332.46Z"/><path class="a13d6811-e01e-4234-a799-77653c55bccd" d="M541,339.49a1.72,1.72,0,0,0,1.88-1.66c0-1-.74-1.58-2-1.58h-.42v-1h.29c1.27,0,2-.56,2-1.53s-.7-1.52-1.77-1.52a1.73,1.73,0,0,0-1.86,1.88h-1.23a2.83,2.83,0,0,1,3.17-2.87c1.76,0,2.94,1,2.94,2.4a2.13,2.13,0,0,1-1.61,2.07v.07a2.08,2.08,0,0,1,1.74,2.15c0,1.51-1.37,2.58-3.21,2.58a2.87,2.87,0,0,1-3.14-3H539A1.81,1.81,0,0,0,541,339.49Z"/><path class="a13d6811-e01e-4234-a799-77653c55bccd" d="M545.08,334.19l.63-1.95h-.56v-1.4h1.45v1.55l-.75,1.8Zm2.21,0,.63-1.95h-.56v-1.4h1.46v1.55l-.76,1.8Z"/><line class="b27d3db9-7555-48ec-a882-eeabfda7a300" x1="512.54" y1="325.03" x2="512.54" y2="332.63"/><polygon class="a13d6811-e01e-4234-a799-77653c55bccd" points="515.58 325.44 509.5 325.44 512.54 322.4 515.58 325.44"/><polygon class="a13d6811-e01e-4234-a799-77653c55bccd" points="515.58 332.22 509.5 332.22 512.54 335.26 515.58 332.22"/><line class="b27d3db9-7555-48ec-a882-eeabfda7a300" x1="97.33" y1="342.09" x2="502.83" y2="342.09"/><polygon class="a13d6811-e01e-4234-a799-77653c55bccd" points="97.74 339.06 97.74 345.13 94.7 342.09 97.74 339.06"/><polygon class="a13d6811-e01e-4234-a799-77653c55bccd" points="502.42 339.06 502.42 345.13 505.46 342.09 502.42 339.06"/><path class="f0416f7b-4591-4cb1-8b7b-81daf854adc4" d="M505.38,264.9H94.78a.17.17,0,0,0-.16.17v37.17a.16.16,0,0,0,.16.16h410.6a.16.16,0,0,0,.16-.16V265.07a.16.16,0,0,0-.16-.17"/><path class="b27d3db9-7555-48ec-a882-eeabfda7a300" d="M110.32,284.44h.13m-.26,0,.13,0m-.26-.09.13,0m-.22-.09.09,0m-.22-.13.13.09m-.22-.18.09.09m-.18-.17.09.08m-.17-.21.08.13m-.12-.22,0,.09m-.09-.22.05.13m-.09-.26,0,.13m0-.26v.13m0-.26v.13m0-.26,0,.13m.09-.27-.05.13m.09-.26,0,.13m.12-.22-.08.09m.17-.17-.09.08m.18-.17-.09.09m.22-.18-.13.09m.22-.13-.09,0m.22-.08-.13,0m.26-.09-.13.05m.26-.05h-.13m374.51,0h-.13m.26.05-.13-.05m.26.09-.13,0m.26.08-.13,0m.22.13-.09-.09m.17.18-.08-.09m.17.17-.09-.08m.18.17-.09-.09m.13.22,0-.13m.09.27-.05-.13m.09.26-.05-.13m.05.26v-.13m0,.26v-.13m0,.26,0-.13m-.09.26,0-.13m-.08.22,0-.09m-.13.22.09-.13m-.18.21.09-.08m-.17.17.08-.09m-.17.18.09-.09m-.22.13.13,0m-.26.09.13,0m-.26.09.12,0m-.25,0h.13m-.13-2H110.45m0,2H484.7m20.68,17.8H94.79m0-37.17h410.6m0,0v37.17M94.78,265.07v37.17"/><path class="f0416f7b-4591-4cb1-8b7b-81daf854adc4" d="M505.38,334.37h-4.81V323.13s0,0,0,0,0,0,0,0l0-.06v0s0,0,0,0,0,0,0-.05l-.05-.08h0s0,0,0,0l-.07-.07,0-.06s0,0-.05,0,0-.05,0-.06l-.08,0h0l-.08-.05h0l-.09,0s0,0,0,0,0,0,0,0H100.28s0,0,0,0,0,0-.05,0l-.08,0h0l-.08.05-.09,0s0,0,0,0h0l-.09.09s0,0,0,0h0l0,.09,0,.09h0l0,.08s0,0,0,0,0,0,0,0v11.33H94.78a.16.16,0,0,0-.16.16h0v.57a.17.17,0,0,0,.16.16h410.6a.16.16,0,0,0,.16-.16v-.57a.16.16,0,0,0-.16-.16"/><path class="b27d3db9-7555-48ec-a882-eeabfda7a300" d="M499.92,322.57h-.13m.22,0-.09,0m.18.08-.09,0m.18.09-.09,0m.13.12,0-.08m.13.17-.09-.09m.13.18,0-.09m0,.18V323m0,.17,0-.08m-400.56,0v.08m0-.17,0,.09m.09-.18,0,.09m.09-.18,0,.09m.13-.17-.09.08m.18-.13-.09.05m.18-.09-.09.05m.17-.09-.08,0m.17,0h-.09m400.12,12v-11.4m-400-.56H499.79m-400,.56v11.4m405.58.56H94.79m410.59-.56v.56m-410.6-.56h410.6m-410.6.56v-.56"/><line class="b27d3db9-7555-48ec-a882-eeabfda7a300" x1="114.64" y1="257.9" x2="485.52" y2="257.9"/><polygon class="a13d6811-e01e-4234-a799-77653c55bccd" points="115.05 254.87 115.05 260.94 112.01 257.9 115.05 254.87"/><polygon class="a13d6811-e01e-4234-a799-77653c55bccd" points="485.12 254.87 485.12 260.94 488.15 257.9 485.12 254.87"/><rect class="bb7a5c96-cc31-4536-b8af-be7c2043c088" width="600" height="600"/></g></g></svg>