<svg xmlns="http://www.w3.org/2000/svg" xmlns:xlink="http://www.w3.org/1999/xlink" viewBox="0 0 600 600"><defs><style>.cls-1,.cls-3,.cls-6,.cls-9{fill:none;}.cls-2{fill:#1d1d1b;}.cls-3,.cls-6,.cls-9{stroke:#1d1d1b;stroke-linecap:round;stroke-linejoin:round;stroke-width:0.55px;}.cls-4{fill:#fff;}.cls-5{clip-path:url(#clip-path);}.cls-6{stroke-dasharray:0 1.66;}.cls-7{clip-path:url(#clip-path-2);}.cls-8{clip-path:url(#clip-path-3);}.cls-9{stroke-dasharray:0 1.64;}</style><clipPath id="clip-path"><rect class="cls-1" x="221.31" y="331.48" width="81.69" height="18.15"/></clipPath><clipPath id="clip-path-2"><rect class="cls-1" x="275.09" y="331.48" width="81.69" height="18.15"/></clipPath><clipPath id="clip-path-3"><rect class="cls-1" x="221.29" y="306.95" width="135.49" height="18.15"/></clipPath></defs><g id="Livello_2" data-name="Livello 2"><g id="Livello_1-2" data-name="Livello 1"><polygon class="cls-2" points="196.3 258.73 193.18 261.85 196.3 264.97 196.3 258.73"/><polygon class="cls-2" points="217.68 264.96 220.79 261.85 217.68 258.73 217.68 264.96"/><line class="cls-3" x1="194.86" y1="261.85" x2="219.11" y2="261.85"/><path class="cls-4" d="M207,233.14l3.93,2.27M207,230.17l3.93,2.27M207,236.1l3.93,2.28M207,227.21l3.93,2.27m-3.93,9.2V225.15m0,27.07a13.54,13.54,0,1,0-13.53-13.54A13.56,13.56,0,0,0,207,252.22"/><path class="cls-3" d="M207,233.14l3.93,2.27M207,230.17l3.93,2.27M207,236.1l3.93,2.28M207,227.21l3.93,2.27m-3.93,9.2V225.15m0,27.07a13.54,13.54,0,1,0-13.53-13.54A13.56,13.56,0,0,0,207,252.22Z"/><polygon class="cls-2" points="270.62 258.01 267.5 261.13 270.62 264.25 270.62 258.01"/><polygon class="cls-2" points="306.79 264.25 309.9 261.13 306.79 258.01 306.79 264.25"/><line class="cls-3" x1="269.17" y1="261.13" x2="308.22" y2="261.13"/><polygon class="cls-2" points="322.38 227.13 319.26 224.01 316.14 227.13 322.38 227.13"/><polygon class="cls-2" points="316.14 248.66 319.26 251.78 322.38 248.66 316.14 248.66"/><line class="cls-3" x1="319.26" y1="225.71" x2="319.26" y2="250.1"/><polygon class="cls-2" points="320.6 374.22 317.49 371.1 314.37 374.22 320.6 374.22"/><polygon class="cls-2" points="314.37 375.41 317.48 378.53 320.6 375.41 314.37 375.41"/><line class="cls-3" x1="317.49" y1="372.79" x2="317.49" y2="376.84"/><polygon class="cls-2" points="350.86 325.46 347.74 322.34 344.62 325.46 350.86 325.46"/><polygon class="cls-2" points="344.62 344.32 347.74 347.44 350.86 344.32 344.62 344.32"/><line class="cls-3" x1="347.74" y1="324.03" x2="347.74" y2="345.75"/><polygon class="cls-2" points="292.15 315.25 289.04 312.13 285.92 315.25 292.15 315.25"/><polygon class="cls-2" points="285.92 329.43 289.04 332.55 292.15 329.43 285.92 329.43"/><line class="cls-3" x1="289.04" y1="313.83" x2="289.04" y2="330.87"/><path class="cls-4" d="M309.84,231.62s0,0,0-.05,0,0,0-.08l0,0a.16.16,0,0,0-.09-.07l-.13,0-1.14-.17h0l-1.79,0h-7.39L298,229.47h0l-3.59-4.39-.56-.75s-.06,0-.09,0,0-.07-.07-.07l-3.06-.12-1.44,0h-5.9a.21.21,0,0,0-.21.21v11.29l0,.45-.07.41-.16.48h0l-.09.21-.13.2-.22.1-.38,0h-1l-.49,0-.43-.1-.43-.18-.39-.24-.34-.29-.3-.35-.24-.39-.18-.42-.11-.45,0-.49v-.61h0l0-.4-.09-.4-.15-.37-.21-.36-.25-.31-.31-.28-.31-.21h0l-.31-.16-.52-.15-.51-.05H270.4s0,0,0,0,0,0,0,0h-.08a0,0,0,0,0,0,0,0,0,0,0,1,0,0l-.48,0-.45.13-.43.2-.39.28-.33.34-.27.39-.2.43-.12.46,0,.43h0V236a0,0,0,0,0,0,0h0l.05.47.12.46.21.43.27.39.34.33.39.27.43.19.46.13.44,0h0s0,0,0,0,0,0,0,0h.38l.42,0,.42.09.4.16.36.22.33.28.28.33.22.36.17.39.1.41,0,.43,0,.42-.1.42-.15.39-.23.37-.27.33-.32.27-.37.23-.39.17-.41.1-.46,0h-2.81s0,0,0,0,0,0,0,0h-.08a.22.22,0,0,0-.21.21v2.91a.22.22,0,0,0,.21.21h6.91V249h0l0,.47.13.46.2.43.28.38.34.34.39.27.43.19.46.13.43,0H282l.47-.05.46-.13.43-.2.38-.28.33-.33.28-.39.19-.43.12-.46,0-.44h0v-.21h7.95V249h0l0,.47.13.46.2.43.28.38.34.34.39.27.43.19.46.13.43,0H300l.47-.05.46-.13.43-.2.39-.28.33-.33.27-.39.19-.43.12-.46,0-.44h0v-1.46h6.91a.22.22,0,0,0,.21-.21v-2.68h0a.2.2,0,0,0,0-.13l-.06-.11-.06-.06-.17-.14-.11-.05v-4.41a.21.21,0,0,0-.21-.21h-1v-.31h1a.21.21,0,0,0,.21-.21v-4.42l.14-.07.14-.11.06-.06.06-.12a.25.25,0,0,0,0-.1h0v0h0Z"/><path class="cls-3" d="M306.28,241.89h1.34m0,0,.33-.33m-7,3.19,1-.23m0,0,4-.87m0,0,.07,0,.06,0,.06,0,.05-.06,0-.05,0-.07,0-.07v-.07m-4.45-1.11-.77.29M284.51,249v-.42h-9.63v-1.25m27.63,1.25v-1.25m-34.75-2.9v2.9m41.87-13.23v-2.47m0,15.7v-2.68M283,237l-.08.18-.08.18m-15.05-3.42V236m0,0,0,.44.11.42.19.4.25.36.31.31.36.25.4.18.42.12.44,0m0-7.14-.44,0-.42.11-.4.19-.36.25-.31.31-.25.36-.19.39-.11.43,0,.43M308,239v2.56m-7,3.19-.6.1-.62,0-.61-.05-.6-.11-.58-.19-.56-.25-.53-.32-.48-.38-.44-.43-.38-.48-.32-.52-.26-.55-.2-.58-.12-.6-.05-.61,0-.61,0-.19m11.68,0v4.24m-4.22-1.35,0-4m-1,4.54-.6.18a3.88,3.88,0,0,1-.49.11h0a4.38,4.38,0,0,1-.5,0h0a2.81,2.81,0,0,1-.5,0h0a2.84,2.84,0,0,1-.49-.1h0a3.75,3.75,0,0,1-.47-.17h0a3.75,3.75,0,0,1-.44-.24h0a3.08,3.08,0,0,1-.41-.3h0a4,4,0,0,1-.36-.35h0a4,4,0,0,1-.31-.41,3.75,3.75,0,0,1-.24-.44,4.68,4.68,0,0,1-.18-.48h0a3.88,3.88,0,0,1-.11-.49l0-.72m5.92,3.13.06,0,.05,0,.05,0,0-.05,0-.05v0m-1,.53h0m.76-.29h0m.68,6.44h-18m9.67-3.45,2.93.25m0,3.2v-3.2m-22.19,1.95h-7.12m29.31-1.95h5.44m0,0h4.09m2.6-1.1.22.11.14.11.06.11v.12l-.1.11-.17.11-.24.11-.33.1-.4.11m-1.77.11h.95l.27,0,.23,0,.19,0,.13,0m-1.77-13.93h-7.49m7.49,0h1.77m0,0,.39,0,.31,0,.24,0,.18,0,.1.05,0,0,0,0m-16.29.13h.42m-.42,0h0m0,0h-1.92m2.81-.29,4.92-.17m-2,2.71v-2.14m0,2.14h9.53m-12.88,14.33V231.79m1.25,2.33,2.1-.07m-2.1.07v3.93m-.76.83.15,0,.15,0,.13-.08.11-.11.1-.12.07-.14,0-.15v-.15m13.4-4H306.6m1.77,0,.17,0h1.08m-7.11,13.2h7.12m-41.76-2.9h-.11m41.44-10,.22-.11.14-.11.06-.11v0m-.43.36V239m0,5.27v-4.54m0-.73h-6.77m-6.53,0h-1.3m7.83,0-.09-.47-.16-.46-.22-.42-.28-.39-.33-.35-.38-.29-.42-.23-.44-.17-.47-.11-.48,0-.48,0-.46.11-.45.17-.42.23-.38.29-.33.35-.28.39-.22.42-.16.46-.08.47m-11.81,2.25v.42m0,1.67v.42m0-8.37v.41m0-.83v.42m0,1.25v.42m0,3.77v.42m0-6.7V235m0,11.72v.48m9.21,0h-9.21m0-15.55V232m7.29-.24-.37,0-.36-.06-.35-.1m0,0-.26-.12-.26-.13-.23-.17m0,0-.18-.13-.17-.14-.16-.15m0,0-.11-.15-.11-.16-.1-.17m0,0-.25-.51-.16-.55-.05-.58m-4.17,5.47v.42m0-1.68v.42m0-3v.48m0-.48h4.63m-4.63,11.37v.41m0,4.19v.42m0-10.89v.42m0,0v.42m0,6.28v.42m0-9.63v.42m0-.84v.42m0,5v.42m0,6.28v.42m0-6.28V240m0,.42v.42m0-8.37v.41m0,7.12v.42m0-2.51v.42m0-7.12v.42m0,10.46v.42m0,0v.42m0,2.93v.42m0-2.51v.42m0-12.14v.42m0,12.55v.42m0-7.11v.41m0-7.95v.42m0,8v.42m0,5V245m0-.83v.42m0-7.12v.42m0-.84v.42m4.17-12.23v3.41m4-2.93.32.07.3.14.28.19.26.25.23.29.2.34.15.38.12.41.07.42,0,.43m-5.93-3.4,4,.48m1.95-.52-.56-.75m.56.75v3.44m-5.05-4.36,1.43.05m3.06.12-.55,0-.71,0-.85,0-.95,0m-2.31-.05h.88m-5.9,11.31V224.29h5v1M283,237l0-.1.12-.39.08-.43,0-.47m-.43,1.74-.15.33-.21.46m-.48-.44.4-.06m0,0,.31-.14.17-.25m-.4.89-.18.34-.24.26-.3.16-.34.05m-.68,0-.47-.05m1.15.05h-.68m.24-1.25h1m-1.53,0,.51,0m-3.14-3.14,0,.49.11.48.19.45.26.42.32.37.37.32.41.26.46.19.47.12m-.2,1.24-.55-.13-.52-.19-.5-.27-.46-.32-.42-.38-.36-.42-.31-.48-.24-.5-.18-.54-.11-.55,0-.56m-1.26-3.14h-4.9m6.16.34-.15-.08-.15-.07-.15-.06-.16,0-.16,0-.16,0h-.33m1.26,3.14v-2.8m-8.69,12.67h2.83m0,0,.45,0,.45-.11.43-.17.39-.24.35-.3.29-.35.24-.39.18-.43.11-.45,0-.46,0-.45-.11-.45-.18-.42-.24-.4-.29-.35-.35-.29-.39-.25-.43-.17-.45-.11-.45,0m0,0h-.3m0,0h-.12m0-7.14h.12m7.41,2.51v.63m0-.63,0-.37-.08-.37-.14-.35-.19-.32-.23-.3-.27-.25-.31-.21M274.88,249l0,.44.11.42.19.4.25.36.31.31.36.25.39.18.43.12.43,0m-.83-2.51v-.42m.83,1.26-.16,0-.16,0-.14-.08-.13-.11-.1-.12-.08-.15-.05-.16V249m-1.68-.42V249m7.12.84h-4.61m0,1.67H282m.83-2.51v.16l-.05.16-.08.15-.1.12-.13.11-.14.08-.16,0-.16,0m.83-1.26V249M282,251.5l.43,0,.43-.12.39-.18.36-.25.31-.31.25-.36.19-.4.11-.42,0-.44m10-.42V249m0,0,0,.18.05.17.09.16.11.14.14.11.15.08.18,0,.17,0m0,0H300m0,0,.18,0,.17,0,.16-.08.13-.11.12-.14.08-.16.05-.17,0-.18m0,0v-.42m-5.52,2.93-.43,0-.43-.12-.39-.18-.36-.25-.31-.31-.25-.36-.19-.4-.11-.42,0-.44m0,0v-.42M300,251.5h-4.61m7.12-2.51,0,.44-.11.42-.18.4-.26.36-.31.31-.36.25-.39.18-.43.12-.43,0m2.51-2.93V249m-8.32-20.34v2.86m3.59-1.91,1.33,1.74m-1.33-1.74-3.59-4.39m15,14.52H308"/><polygon class="cls-2" points="273.05 381.52 269.93 384.64 273.05 387.76 273.05 381.52"/><polygon class="cls-2" points="305.02 387.76 308.14 384.64 305.02 381.52 305.02 387.76"/><line class="cls-3" x1="271.61" y1="384.64" x2="306.46" y2="384.64"/><path class="cls-4" d="M270,374.83h0l.07.23.14.19.21.12.2,0h36.78l.24-.05.19-.13.13-.2.05-.19h0l0-.86a.2.2,0,0,0-.2-.22l0,0,0,0h-4l-1.12-1.94c0-.07-.12-.06-.2-.05v-.06l-6.21-.21-.23,0-.31-.12-.08-.06s0,0,0,0,0,0,0,0l-.14,0-.18-.12-.12-.13-.07-.17V349.81h0l0-.44-.08-.44-.15-.41-.19-.39-.25-.33-.31-.28-.34-.21-.38-.14-.48-.07h0L289,347h0l-3.77.13h0l-.42.05-.39.13-.35.2-.32.28-.25.32-.2.36-.15.41-.09.42-.05.54h0v20.77l0,.2,0,.09-.11.15-.13.11-.14.07-.1,0s0,0,0,0,0,0-.05,0l-.39.18-.23,0-6.25.22s0,.05-.06.07-.09,0-.11,0l-1.12,1.94h-4.07a.2.2,0,0,0-.2.22l0,.86h0"/><path class="cls-3" d="M270.2,374l0,.86m37.59,0,0-.86m-37.63.86v.08l0,.07,0,.07.05.06.06.05.08,0,.07,0h.08m36.75,0h.08l.08,0,.07,0,.06-.05.05-.06,0-.07,0-.07v-.08m-4.14-.86-1.18-2m-26.95,0-1.18,2m15.49-20.65-.83-.07m0,0-.84.07M270.2,374h37.67m-.46,1.25H270.66m17.54-3.74-1,0-.95,0-.94,0-.91,0-.9,0-.87,0-.83,0-.8,0-.76,0-.71,0-.67,0-.61,0-.55,0-.5,0h-.44l-.37,0h-.87m12.64,1.23.84.08m.83-.08-.83.08m.83-1.76,1,0,.95,0,.94,0,.92,0,.89,0,.87,0,.83,0,.8,0,.76,0,.71,0,.67,0,.61,0,.56,0,.49,0h.44l.38,0h.86m-14.31-4.64.84,0m-.84,0v5.87m1.67-5.87-.83,0m.83,0v5.87m0-7.63v1.76m-1.67-1.76v1.76m0-11.95v8.37m0,0V365m1.67-9.71v8.37m0-10.39h0v2m0,8.37V365M288.2,353.3h0v2m1.67,9.71v.48m-1.67,0V365m-5.65,6.4-.09.06-.37.16-.26,0m.72-.26.1,0,.18-.09.2-.15.14-.21,0-.14m11.65,0,.09.23.16.18.23.14.16.06h0m0,0,.08.06.37.16.26,0m-13-1.09,0,.22m0-.22V349.81m2-2.52-.37,0-.35.11-.33.18-.28.24-.23.29-.19.34-.14.37-.09.4,0,.54m5.8-2.66-.79,0-.77,0-.76,0-.74,0-.72,0m3.78-.14.78,0,.77,0,.76,0,.75,0,.71,0m2,2.52,0-.42-.08-.41-.12-.39-.18-.35-.23-.3-.27-.26-.3-.19-.34-.13-.48-.07m2,2.52V370.6m0,.22v-.22"/><g class="cls-5"><line class="cls-6" x1="281.27" y1="347.16" x2="242.21" y2="347.16"/><path class="cls-3" d="M241.38,347.16h0m41.55,0h0"/></g><g class="cls-7"><line class="cls-6" x1="335.04" y1="347.16" x2="295.99" y2="347.16"/><path class="cls-3" d="M295.16,347.16h0m41.55,0h0"/></g><g class="cls-8"><line class="cls-9" x1="243.01" y1="322.62" x2="335.88" y2="322.62"/><path class="cls-3" d="M336.71,322.62h0m-95.34,0h0"/></g><path class="cls-2" d="M182.28,281l.79-1.08a5.39,5.39,0,0,1-1.15-3.52c0-2.9,1.71-4.92,4.35-4.92a4.14,4.14,0,0,1,2.47.76l.65-.89.76.59-.7.94a5.37,5.37,0,0,1,1.17,3.52c0,3-1.71,4.91-4.35,4.91a4.15,4.15,0,0,1-2.47-.74l-.74,1Zm5.77-7.84a2.64,2.64,0,0,0-1.78-.66c-1.84,0-3,1.66-3,3.9a4.88,4.88,0,0,0,.6,2.47Zm1.25,3.24a4.85,4.85,0,0,0-.62-2.48l-4.19,5.73a2.66,2.66,0,0,0,1.78.64C188.11,280.29,189.3,278.63,189.3,276.4Z"/><path class="cls-2" d="M197.5,280.31a1.72,1.72,0,0,0,1.88-1.67c0-1-.74-1.57-1.95-1.57H197v-1h.3c1.26,0,2-.56,2-1.53s-.7-1.53-1.77-1.53a1.74,1.74,0,0,0-1.86,1.89h-1.23a2.83,2.83,0,0,1,3.17-2.87c1.75,0,2.94,1,2.94,2.4a2.14,2.14,0,0,1-1.61,2.07v.06a2.09,2.09,0,0,1,1.74,2.16c0,1.51-1.37,2.58-3.21,2.58a2.87,2.87,0,0,1-3.14-3h1.26A1.82,1.82,0,0,0,197.5,280.31Z"/><path class="cls-2" d="M203.65,279.55v1.55h-1.5v-1.55Z"/><path class="cls-2" d="M210.89,272.22v1h-4.12l-.3,2.82a2.53,2.53,0,0,1,2.05-.93,2.86,2.86,0,0,1,2.91,3,3,3,0,0,1-3.18,3.14,2.88,2.88,0,0,1-3.09-2.56h1.24a1.74,1.74,0,0,0,1.84,1.57,1.88,1.88,0,0,0,1.92-2.08,1.92,1.92,0,0,0-1.87-2.1,1.7,1.7,0,0,0-1.74,1.24l-1.28-.12.5-5Z"/><path class="cls-2" d="M215.09,277.75c0-2,1.14-3.55,3.16-3.55a2.6,2.6,0,0,1,2.82,2.39h-1.25a1.48,1.48,0,0,0-1.59-1.43c-1.23,0-1.9,1-1.9,2.59s.69,2.6,1.9,2.6a1.63,1.63,0,0,0,1.68-1.5h1.17a2.62,2.62,0,0,1-2.86,2.45C216.19,281.3,215.09,279.87,215.09,277.75Z"/><path class="cls-2" d="M222.25,274.39h1.12v.86a2.3,2.3,0,0,1,2-1,1.85,1.85,0,0,1,1.84,1.24,2.68,2.68,0,0,1,2.38-1.24c1.54,0,2.15,1,2.15,2.48v4.37h-1.19v-3.72c0-1-.08-2.18-1.33-2.18-1.44,0-1.62,1.59-1.62,2.59v3.31h-1.2v-3.72c0-1-.09-2.18-1.34-2.18-1.44,0-1.62,1.59-1.62,2.59v3.31h-1.2Z"/><path class="cls-2" d="M186.06,296l.79-1.08a5.39,5.39,0,0,1-1.14-3.52c0-2.9,1.7-4.92,4.34-4.92a4.14,4.14,0,0,1,2.47.76l.65-.89.77.59-.71.94a5.31,5.31,0,0,1,1.17,3.52c0,3-1.71,4.91-4.35,4.91a4.2,4.2,0,0,1-2.47-.74l-.74,1Zm5.77-7.84a2.64,2.64,0,0,0-1.78-.66c-1.83,0-3,1.66-3,3.9a4.88,4.88,0,0,0,.6,2.47Zm1.25,3.24a5,5,0,0,0-.61-2.48l-4.2,5.73a2.68,2.68,0,0,0,1.78.64C191.9,295.29,193.08,293.63,193.08,291.4Z"/><path class="cls-2" d="M201,295.05v-5.4h-2v-.84c1.47-.08,2-.48,2.16-1.59h1v7.83h1.91v1.05H199v-1.05Z"/><path class="cls-2" d="M207.43,294.55v1.55h-1.5v-1.55Z"/><path class="cls-2" d="M212,295.31a1.72,1.72,0,0,0,1.88-1.67c0-1-.74-1.57-1.95-1.57h-.43v-1h.3c1.26,0,2-.56,2-1.53A1.56,1.56,0,0,0,212,288a1.74,1.74,0,0,0-1.86,1.89h-1.24A2.85,2.85,0,0,1,212.1,287c1.75,0,2.94,1,2.94,2.4a2.15,2.15,0,0,1-1.62,2.07v.06a2.09,2.09,0,0,1,1.75,2.16c0,1.51-1.37,2.58-3.22,2.58a2.87,2.87,0,0,1-3.13-3h1.26A1.82,1.82,0,0,0,212,295.31Z"/><path class="cls-2" d="M221.73,288.28h-4.68v-1.06h6v.9a25.87,25.87,0,0,0-3.19,8h-1.34A26.93,26.93,0,0,1,221.73,288.28Z"/><path class="cls-2" d="M224.59,290l.62-1.95h-.56v-1.39h1.46v1.55l-.75,1.79Zm2.21,0,.62-1.95h-.55v-1.39h1.45v1.55l-.75,1.79Z"/><path class="cls-2" d="M264.33,404.28l.79-1.08a5.39,5.39,0,0,1-1.14-3.52c0-2.9,1.7-4.92,4.34-4.92a4.21,4.21,0,0,1,2.47.76l.65-.89.77.59-.71.95a5.29,5.29,0,0,1,1.18,3.51c0,2.95-1.72,4.91-4.36,4.91a4.2,4.2,0,0,1-2.47-.74l-.74,1Zm5.77-7.84a2.64,2.64,0,0,0-1.78-.66c-1.83,0-3,1.66-3,3.9a4.88,4.88,0,0,0,.6,2.47Zm1.25,3.24a4.88,4.88,0,0,0-.61-2.47l-4.2,5.72a2.68,2.68,0,0,0,1.78.65C270.17,403.58,271.35,401.91,271.35,399.68Z"/><path class="cls-2" d="M281.41,402.13v2.25H280.2v-2.25h-4.07v-1L280,395.5h1.39v5.61H283v1Zm-1.14-1v-1.76c0-.62,0-1.83.05-2.48h-.08a13.39,13.39,0,0,1-.86,1.36l-2,2.89Z"/><path class="cls-2" d="M285.7,402.84v1.54h-1.49v-1.54Z"/><path class="cls-2" d="M292.94,395.5v1h-4.12l-.3,2.82a2.54,2.54,0,0,1,2.06-.93,2.86,2.86,0,0,1,2.91,3,3.05,3.05,0,0,1-3.19,3.14,2.89,2.89,0,0,1-3.09-2.56h1.25a1.72,1.72,0,0,0,1.83,1.57,1.88,1.88,0,0,0,1.92-2.08,1.9,1.9,0,0,0-1.87-2.09,1.7,1.7,0,0,0-1.74,1.23l-1.27-.12.49-5Z"/><path class="cls-2" d="M297.14,401c0-2,1.14-3.55,3.16-3.55a2.6,2.6,0,0,1,2.82,2.39h-1.25a1.48,1.48,0,0,0-1.58-1.43c-1.24,0-1.9,1-1.9,2.59s.69,2.6,1.9,2.6a1.61,1.61,0,0,0,1.67-1.5h1.17a2.62,2.62,0,0,1-2.86,2.45C298.25,404.58,297.14,403.15,297.14,401Z"/><path class="cls-2" d="M304.3,397.67h1.12v.86a2.31,2.31,0,0,1,2-1,1.85,1.85,0,0,1,1.83,1.24,2.7,2.7,0,0,1,2.38-1.24c1.55,0,2.16,1,2.16,2.48v4.37h-1.2v-3.72c0-1-.08-2.18-1.32-2.18-1.45,0-1.63,1.59-1.63,2.59v3.31h-1.2v-3.72c0-1-.09-2.18-1.34-2.18-1.44,0-1.62,1.59-1.62,2.59v3.31h-1.2Z"/><path class="cls-2" d="M268.11,419.28l.79-1.08a5.44,5.44,0,0,1-1.14-3.52c0-2.9,1.7-4.92,4.34-4.92a4.19,4.19,0,0,1,2.47.76l.65-.89.77.59-.7.95a5.34,5.34,0,0,1,1.17,3.51c0,2.95-1.72,4.91-4.36,4.91a4.2,4.2,0,0,1-2.47-.74l-.74,1Zm5.77-7.84a2.64,2.64,0,0,0-1.78-.66c-1.83,0-3,1.66-3,3.9a4.88,4.88,0,0,0,.59,2.47Zm1.25,3.24a4.88,4.88,0,0,0-.61-2.47l-4.2,5.72a2.68,2.68,0,0,0,1.78.65C274,418.58,275.13,416.91,275.13,414.68Z"/><path class="cls-2" d="M283.05,418.33v-5.4h-2v-.84c1.46-.08,2-.48,2.15-1.59h1v7.83h1.92v1.05H281v-1.05Z"/><path class="cls-2" d="M289.48,417.84v1.54H288v-1.54Z"/><path class="cls-2" d="M295.79,411.56h-4.68V410.5h6v.9a25.85,25.85,0,0,0-3.18,8h-1.34A26.93,26.93,0,0,1,295.79,411.56Z"/><path class="cls-2" d="M303.78,411.56H299.1V410.5h6v.9a26.12,26.12,0,0,0-3.19,8h-1.34A27.49,27.49,0,0,1,303.78,411.56Z"/><path class="cls-2" d="M306.64,413.29l.63-2h-.56v-1.39h1.45v1.55l-.75,1.8Zm2.21,0,.63-2h-.56v-1.39h1.45v1.55l-.75,1.8Z"/><path class="cls-2" d="M280.68,272.22v1h-4.12l-.3,2.82a2.53,2.53,0,0,1,2.05-.93,2.86,2.86,0,0,1,2.91,3A3,3,0,0,1,278,281.3a2.88,2.88,0,0,1-3.09-2.56h1.24a1.74,1.74,0,0,0,1.84,1.57,1.88,1.88,0,0,0,1.92-2.08,1.92,1.92,0,0,0-1.87-2.1,1.7,1.7,0,0,0-1.74,1.24l-1.28-.12.5-5Z"/><path class="cls-2" d="M284.88,277.75c0-2,1.14-3.55,3.16-3.55a2.6,2.6,0,0,1,2.82,2.39h-1.25a1.48,1.48,0,0,0-1.59-1.43c-1.23,0-1.89,1-1.89,2.59s.68,2.6,1.89,2.6a1.63,1.63,0,0,0,1.68-1.5h1.17A2.62,2.62,0,0,1,288,281.3C286,281.3,284.88,279.87,284.88,277.75Z"/><path class="cls-2" d="M292,274.39h1.12v.86a2.3,2.3,0,0,1,2-1,1.85,1.85,0,0,1,1.84,1.24,2.68,2.68,0,0,1,2.38-1.24c1.54,0,2.15,1,2.15,2.48v4.37h-1.19v-3.72c0-1-.08-2.18-1.33-2.18-1.44,0-1.62,1.59-1.62,2.59v3.31h-1.2v-3.72c0-1-.09-2.18-1.34-2.18-1.44,0-1.62,1.59-1.62,2.59v3.31H292Z"/><path class="cls-2" d="M276.15,295.05v-5.4h-2v-.84c1.46-.08,2-.48,2.15-1.59h1v7.83h1.92v1.05h-5.15v-1.05Z"/><path class="cls-2" d="M282.58,294.55v1.55h-1.49v-1.55Z"/><path class="cls-2" d="M287,295.31c1.33,0,2-1.21,2-3.25v-.51a2.3,2.3,0,0,1-2.17,1.22,2.69,2.69,0,0,1-2.86-2.86,2.91,2.91,0,0,1,3.08-2.88c2.1,0,3.19,1.64,3.19,4.5,0,3-1.13,4.77-3.22,4.77a2.7,2.7,0,0,1-3-2.42h1.24A1.58,1.58,0,0,0,287,295.31Zm-1.83-5.4A1.78,1.78,0,0,0,287,291.8a1.9,1.9,0,0,0,0-3.8A1.79,1.79,0,0,0,285.21,289.91Z"/><path class="cls-2" d="M295.41,288c-1.33,0-2.14,1.28-2.14,3.27v.32a2.46,2.46,0,0,1,2.27-1.31,2.77,2.77,0,0,1,2.81,2.92,3,3,0,0,1-3.14,3.09c-2,0-3.16-1.67-3.16-4.51s1.23-4.76,3.36-4.76a2.6,2.6,0,0,1,2.85,2.44H297A1.46,1.46,0,0,0,295.41,288Zm-1.93,5.23a1.93,1.93,0,0,0,1.9,2.08,1.83,1.83,0,0,0,1.74-2.05,1.76,1.76,0,0,0-1.74-2A1.87,1.87,0,0,0,293.48,293.24Z"/><path class="cls-2" d="M299.74,290l.63-1.95h-.56v-1.39h1.45v1.55l-.75,1.79Zm2.21,0,.63-1.95H302v-1.39h1.45v1.55l-.75,1.79Z"/><path class="cls-2" d="M328.63,235a3.74,3.74,0,0,1,.7-2.25,7.36,7.36,0,0,1,2-1.6c1.45-.88,2-1.45,2-2.35a1.48,1.48,0,0,0-1.66-1.51c-1.11,0-1.74.69-1.79,2h-1.22a2.89,2.89,0,0,1,3.13-3,2.54,2.54,0,0,1,2.8,2.56c0,1.17-.67,2-2.37,3.06a6.74,6.74,0,0,0-1.68,1.27,1.9,1.9,0,0,0-.52,1.13h4.6v1h-5.95Z"/><path class="cls-2" d="M337.72,233.8v1.55h-1.5V233.8Z"/><path class="cls-2" d="M344,227.52h-4.68v-1.05h6v.9a26.12,26.12,0,0,0-3.19,8h-1.34A27.38,27.38,0,0,1,344,227.52Z"/><path class="cls-2" d="M353,226.47v1h-4.12l-.3,2.82a2.54,2.54,0,0,1,2.06-.93,2.86,2.86,0,0,1,2.91,3,3,3,0,0,1-3.19,3.13,2.88,2.88,0,0,1-3.09-2.56h1.25a1.72,1.72,0,0,0,1.83,1.58,1.89,1.89,0,0,0,1.93-2.08,1.91,1.91,0,0,0-1.88-2.1,1.7,1.7,0,0,0-1.74,1.24l-1.27-.12.49-5Z"/><path class="cls-2" d="M357.15,232c0-2,1.15-3.55,3.16-3.55a2.6,2.6,0,0,1,2.82,2.39h-1.25a1.47,1.47,0,0,0-1.58-1.43c-1.24,0-1.9,1-1.9,2.59s.69,2.6,1.9,2.6a1.63,1.63,0,0,0,1.68-1.5h1.17a2.62,2.62,0,0,1-2.86,2.44C358.26,235.54,357.15,234.12,357.15,232Z"/><path class="cls-2" d="M364.31,228.64h1.12v.86a2.31,2.31,0,0,1,2-1,1.85,1.85,0,0,1,1.83,1.23,2.69,2.69,0,0,1,2.38-1.23c1.55,0,2.16,1,2.16,2.48v4.37h-1.2v-3.72c0-1-.08-2.18-1.32-2.18-1.45,0-1.63,1.58-1.63,2.59v3.31h-1.2v-3.72c0-1-.09-2.18-1.33-2.18-1.45,0-1.63,1.58-1.63,2.59v3.31h-1.2Z"/><path class="cls-2" d="M331.28,249.3v-5.4h-2v-.84c1.47-.08,2-.48,2.16-1.59h1v7.83h1.91v1h-5.15v-1Z"/><path class="cls-2" d="M337.72,248.8v1.55h-1.5V248.8Z"/><path class="cls-2" d="M345.57,245.9c0,3.07-1.25,4.64-3.25,4.64s-3.24-1.65-3.24-4.64,1.24-4.62,3.24-4.62S345.57,242.91,345.57,245.9Zm-5.21,0c0,2.32.62,3.66,2,3.66s2-1.34,2-3.66-.63-3.64-2-3.64S340.36,243.54,340.36,245.9Z"/><path class="cls-2" d="M347.13,248a2.09,2.09,0,0,1,1.86-2.21v-.06a2,2,0,0,1-1.61-2c0-1.44,1.18-2.41,2.95-2.41s2.94,1,2.94,2.41a2,2,0,0,1-1.62,2v.06a2.1,2.1,0,0,1,1.88,2.21c0,1.5-1.33,2.56-3.2,2.56S347.13,249.48,347.13,248Zm5.11-.07a1.94,1.94,0,0,0-3.84,0,1.94,1.94,0,0,0,3.84,0Zm-.17-4.16a1.77,1.77,0,0,0-3.5,0c0,.92.72,1.5,1.76,1.5A1.53,1.53,0,0,0,352.07,243.75Z"/><path class="cls-2" d="M354.88,244.25l.62-1.95h-.56v-1.39h1.46v1.55l-.76,1.79Zm2.21,0,.62-1.95h-.56v-1.39h1.46v1.55l-.76,1.79Z"/><path class="cls-2" d="M358,322.71h2l2.31,6.08c.34.88.5,1.37.67,2H363a16.94,16.94,0,0,1,.6-2l2.22-6.08h2v9.43h-1.2v-5.39c0-.88,0-1.77,0-2.83h-.06l-3,8.22H362.2l-3-8.22h-.07c0,.67.07,2.05.07,2.83v5.39H358Z"/><path class="cls-2" d="M369.9,322.71h1.2V324h-1.2Zm0,2.73h1.2v6.7h-1.2Z"/><path class="cls-2" d="M373.05,325.44h1.1v.85a2.6,2.6,0,0,1,2.14-1,2,2,0,0,1,2.13,1.2,4.48,4.48,0,0,1,.23,1.64v4h-1.19v-3.78c0-1-.15-2.12-1.43-2.12-1.12,0-1.78.78-1.78,2.39v3.51h-1.2Z"/><path class="cls-2" d="M389.48,327.7c0,3.07-1.25,4.64-3.25,4.64S383,330.69,383,327.7s1.24-4.63,3.24-4.63S389.48,324.71,389.48,327.7Zm-5.21,0c0,2.31.62,3.65,2,3.65s2-1.34,2-3.65-.64-3.64-2-3.64S384.27,325.33,384.27,327.7Z"/><path class="cls-2" d="M392.55,330.6v1.54h-1.5V330.6Z"/><path class="cls-2" d="M399.05,324.32h-4.68v-1.05h6v.89a26,26,0,0,0-3.19,8h-1.34A26.93,26.93,0,0,1,399.05,324.32Z"/><path class="cls-2" d="M404.57,328.79c0-2,1.15-3.55,3.16-3.55a2.59,2.59,0,0,1,2.82,2.39h-1.24a1.49,1.49,0,0,0-1.59-1.43c-1.23,0-1.9,1-1.9,2.59s.69,2.6,1.9,2.6a1.63,1.63,0,0,0,1.68-1.49h1.17a2.62,2.62,0,0,1-2.86,2.44C405.68,332.34,404.57,330.91,404.57,328.79Z"/><path class="cls-2" d="M411.93,325.44h1.12v.85a2.3,2.3,0,0,1,2-1,1.86,1.86,0,0,1,1.84,1.24,2.7,2.7,0,0,1,2.38-1.24c1.54,0,2.16,1,2.16,2.49v4.36h-1.2v-3.71c0-1-.08-2.19-1.33-2.19-1.44,0-1.62,1.59-1.62,2.59v3.31h-1.2v-3.71c0-1-.09-2.19-1.34-2.19-1.44,0-1.62,1.59-1.62,2.59v3.31h-1.2Z"/><path class="cls-2" d="M431.43,328v.93h-5.71V328Z"/><path class="cls-2" d="M442.16,327.7c0,3.07-1.25,4.64-3.25,4.64s-3.24-1.65-3.24-4.64,1.23-4.63,3.24-4.63S442.16,324.71,442.16,327.7Zm-5.22,0c0,2.31.63,3.65,2,3.65s2-1.34,2-3.65-.64-3.64-2-3.64S436.94,325.33,436.94,327.7Z"/><path class="cls-2" d="M445.22,330.6v1.54h-1.49V330.6Z"/><path class="cls-2" d="M447.06,331.77a3.7,3.7,0,0,1,.7-2.25,7,7,0,0,1,2-1.6c1.45-.88,2-1.46,2-2.35a1.46,1.46,0,0,0-1.65-1.51c-1.12,0-1.74.69-1.79,2H447a2.89,2.89,0,0,1,3.14-3,2.54,2.54,0,0,1,2.79,2.56c0,1.17-.66,2-2.36,3.07a6.63,6.63,0,0,0-1.68,1.26,1.87,1.87,0,0,0-.52,1.13H453v1.05h-5.95Z"/><path class="cls-2" d="M459.91,324.32h-4.68v-1.05h6v.89a26,26,0,0,0-3.18,8h-1.34A27.17,27.17,0,0,1,459.91,324.32Z"/><path class="cls-2" d="M463,326.05l.62-1.95H463v-1.39h1.46v1.54l-.75,1.8Zm2.21,0,.62-1.95h-.56v-1.39h1.46v1.54l-.75,1.8Z"/><path class="cls-2" d="M358,337.71h2l2.31,6.08c.34.88.5,1.37.67,2H363a16.94,16.94,0,0,1,.6-2l2.22-6.08h2v9.43h-1.2v-5.39c0-.88,0-1.77,0-2.83h-.06l-3,8.22H362.2l-3-8.22h-.07c0,.67.07,2.05.07,2.83v5.39H358Z"/><path class="cls-2" d="M369.33,345.26c0-2.2,2.81-2.12,4.47-2.31v-.24c0-1-.45-1.57-1.48-1.57s-1.56.47-1.56,1.36h-1.18c0-1.37,1.13-2.26,2.74-2.26,2.54,0,2.65,1.69,2.65,3v1.84a9.52,9.52,0,0,0,.17,2H374a5.4,5.4,0,0,1-.1-.91,2.61,2.61,0,0,1-2.27,1.06A2.05,2.05,0,0,1,369.33,345.26Zm4.47-1v-.38c-1,.13-3.26.05-3.26,1.42,0,.65.53,1.13,1.39,1.13S373.8,346,373.8,344.25Z"/><path class="cls-2" d="M378.34,343.67l-2.27-3.23h1.48l1.53,2.45,1.64-2.45H382l-2.3,3.23,2.49,3.47h-1.46L379,344.52l-1.75,2.62h-1.36Z"/><path class="cls-2" d="M386,346.77a3.7,3.7,0,0,1,.7-2.25,7,7,0,0,1,2-1.6c1.45-.88,2-1.46,2-2.35a1.46,1.46,0,0,0-1.65-1.51c-1.12,0-1.74.69-1.79,2H386a2.88,2.88,0,0,1,3.13-3,2.54,2.54,0,0,1,2.79,2.56c0,1.17-.66,2-2.36,3.07a7.06,7.06,0,0,0-1.68,1.26,1.93,1.93,0,0,0-.52,1.13h4.6v1.05h-6Z"/><path class="cls-2" d="M395.24,345.6v1.54h-1.49V345.6Z"/><path class="cls-2" d="M401.87,344.9v2.24h-1.21V344.9h-4.07v-1l3.89-5.64h1.39v5.6h1.6v1Zm-1.14-1v-1.76c0-.62,0-1.83,0-2.48h-.08a14.07,14.07,0,0,1-.86,1.36l-2,2.89Z"/><path class="cls-2" d="M407.27,343.79c0-2,1.14-3.55,3.15-3.55a2.61,2.61,0,0,1,2.83,2.39H412a1.49,1.49,0,0,0-1.59-1.43c-1.23,0-1.9,1-1.9,2.59s.69,2.6,1.9,2.6a1.63,1.63,0,0,0,1.68-1.49h1.17a2.62,2.62,0,0,1-2.86,2.44C408.37,347.34,407.27,345.91,407.27,343.79Z"/><path class="cls-2" d="M414.62,340.44h1.12v.85a2.31,2.31,0,0,1,2-1,1.85,1.85,0,0,1,1.83,1.24,2.7,2.7,0,0,1,2.38-1.24c1.55,0,2.16,1,2.16,2.49v4.36h-1.2v-3.71c0-1-.08-2.19-1.33-2.19-1.44,0-1.62,1.59-1.62,2.59v3.31h-1.2v-3.71c0-1-.09-2.19-1.34-2.19-1.44,0-1.62,1.59-1.62,2.59v3.31h-1.2Z"/><path class="cls-2" d="M434.12,343v.93h-5.7V343Z"/><path class="cls-2" d="M444.85,342.7c0,3.07-1.25,4.64-3.25,4.64s-3.24-1.65-3.24-4.64,1.24-4.63,3.24-4.63S444.85,339.71,444.85,342.7Zm-5.22,0c0,2.31.63,3.65,2,3.65s2-1.34,2-3.65-.64-3.64-2-3.64S439.63,340.33,439.63,342.7Z"/><path class="cls-2" d="M447.92,345.6v1.54h-1.5V345.6Z"/><path class="cls-2" d="M452.57,346.35c1.33,0,2-1.21,2-3.25v-.51a2.3,2.3,0,0,1-2.17,1.23,2.7,2.7,0,0,1-2.86-2.86,2.93,2.93,0,0,1,3.08-2.89c2.11,0,3.2,1.64,3.2,4.5,0,3-1.13,4.77-3.22,4.77a2.7,2.7,0,0,1-3-2.42h1.24A1.57,1.57,0,0,0,452.57,346.35ZM450.74,341a1.77,1.77,0,0,0,1.76,1.88,1.9,1.9,0,0,0,0-3.79A1.78,1.78,0,0,0,450.74,341Z"/><path class="cls-2" d="M462.74,344.9v2.24h-1.21V344.9h-4.07v-1l3.88-5.64h1.4v5.6h1.59v1Zm-1.15-1v-1.76c0-.62,0-1.83.05-2.48h-.07a14.07,14.07,0,0,1-.86,1.36l-2,2.89Z"/><path class="cls-2" d="M465.66,341.05l.62-1.95h-.56v-1.39h1.46v1.54l-.75,1.8Zm2.21,0,.62-1.95h-.55v-1.39h1.45v1.54l-.75,1.8Z"/><path class="cls-2" d="M334.84,367.62c0,3.06-1.24,4.64-3.25,4.64s-3.23-1.65-3.23-4.64,1.23-4.63,3.23-4.63S334.84,364.62,334.84,367.62Zm-5.21,0c0,2.31.63,3.65,2,3.65s2-1.34,2-3.65-.64-3.64-2-3.64S329.63,365.25,329.63,367.62Z"/><path class="cls-2" d="M337.72,370.51v1.55h-1.5v-1.55Z"/><path class="cls-2" d="M342,371v-5.4h-2v-.84c1.47-.08,2-.48,2.16-1.59h1V371h1.91v1.05H340V371Z"/><path class="cls-2" d="M353,363.18v1h-4.12l-.3,2.82a2.54,2.54,0,0,1,2.06-.93,2.86,2.86,0,0,1,2.91,3,3.05,3.05,0,0,1-3.19,3.14,2.89,2.89,0,0,1-3.09-2.56h1.25a1.72,1.72,0,0,0,1.83,1.57,1.89,1.89,0,0,0,1.93-2.08,1.91,1.91,0,0,0-1.88-2.09,1.7,1.7,0,0,0-1.74,1.23l-1.27-.12.49-5Z"/><path class="cls-2" d="M357.15,368.71c0-2,1.15-3.55,3.16-3.55a2.6,2.6,0,0,1,2.82,2.39h-1.25a1.47,1.47,0,0,0-1.58-1.43c-1.24,0-1.9,1-1.9,2.59s.69,2.6,1.9,2.6a1.63,1.63,0,0,0,1.68-1.5h1.17a2.63,2.63,0,0,1-2.86,2.45C358.26,372.26,357.15,370.83,357.15,368.71Z"/><path class="cls-2" d="M364.31,365.35h1.12v.86a2.31,2.31,0,0,1,2-1,1.84,1.84,0,0,1,1.83,1.24,2.68,2.68,0,0,1,2.38-1.24c1.55,0,2.16,1,2.16,2.48v4.37h-1.2v-3.72c0-1-.08-2.18-1.32-2.18-1.45,0-1.63,1.59-1.63,2.59v3.31h-1.2v-3.72c0-1-.09-2.18-1.33-2.18-1.45,0-1.63,1.59-1.63,2.59v3.31h-1.2Z"/><path class="cls-2" d="M334.84,382.62c0,3.06-1.24,4.64-3.25,4.64s-3.23-1.65-3.23-4.64,1.23-4.63,3.23-4.63S334.84,379.62,334.84,382.62Zm-5.21,0c0,2.31.63,3.65,2,3.65s2-1.34,2-3.65-.64-3.64-2-3.64S329.63,380.25,329.63,382.62Z"/><path class="cls-2" d="M337.72,385.51v1.55h-1.5v-1.55Z"/><path class="cls-2" d="M345.57,382.62c0,3.06-1.25,4.64-3.25,4.64s-3.24-1.65-3.24-4.64,1.24-4.63,3.24-4.63S345.57,379.62,345.57,382.62Zm-5.21,0c0,2.31.62,3.65,2,3.65s2-1.34,2-3.65-.63-3.64-2-3.64S340.36,380.25,340.36,382.62Z"/><path class="cls-2" d="M353,378.18v1h-4.12l-.3,2.82a2.54,2.54,0,0,1,2.06-.93,2.86,2.86,0,0,1,2.91,3,3.05,3.05,0,0,1-3.19,3.14,2.89,2.89,0,0,1-3.09-2.56h1.25a1.72,1.72,0,0,0,1.83,1.57,1.89,1.89,0,0,0,1.93-2.08,1.91,1.91,0,0,0-1.88-2.09,1.7,1.7,0,0,0-1.74,1.23l-1.27-.12.49-5Z"/><path class="cls-2" d="M354.88,381l.62-1.95h-.56v-1.39h1.46v1.55l-.76,1.79Zm2.21,0,.62-1.95h-.56v-1.39h1.46v1.55l-.76,1.79Z"/><rect class="cls-1" width="600" height="600"/></g></g></svg>