<?xml version="1.0" encoding="utf-8"?>
<!-- Generator: Adobe Illustrator 27.1.1, SVG Export Plug-In . SVG Version: 6.00 Build 0)  -->
<svg version="1.1" id="Livello_1" xmlns="http://www.w3.org/2000/svg" xmlns:xlink="http://www.w3.org/1999/xlink" x="0px" y="0px"
	 viewBox="0 0 600 600" style="enable-background:new 0 0 600 600;" xml:space="preserve">
<style type="text/css">
	.st0{fill:none;}
	.st1{fill:none;stroke:#1D1D1B;stroke-width:0.5;stroke-linecap:round;stroke-linejoin:round;}
	.st2{fill:#1D1D1B;}
	.st3{fill:#FFFFFF;}
	.st4{fill:none;stroke:#1D1D1B;stroke-width:0.5;stroke-linecap:round;}
	.st5{fill:none;stroke:#1D1D1B;stroke-width:0.5;stroke-linecap:round;stroke-linejoin:round;stroke-miterlimit:10;}
</style>
<rect y="0" class="st0" width="600" height="600"/>
<g>
	<g>
		<line class="st1" x1="349.7" y1="246" x2="349.7" y2="310.9"/>
		<g>
			<polygon class="st2" points="352.7,246.4 346.6,246.4 349.7,243.3 			"/>
		</g>
		<g>
			<polygon class="st2" points="352.7,310.5 346.6,310.5 349.7,313.6 			"/>
		</g>
	</g>
</g>
<g>
	<g>
		<line class="st1" x1="349.7" y1="336.5" x2="349.7" y2="348.2"/>
		<g>
			<polygon class="st2" points="352.7,336.9 346.6,336.9 349.7,333.9 			"/>
		</g>
		<g>
			<polygon class="st2" points="352.7,347.8 346.6,347.8 349.7,350.9 			"/>
		</g>
	</g>
</g>
<path class="st3" d="M297.2,277.7c0-1.5,1.2-2.8,2.8-2.8c1.5,0,2.8,1.2,2.8,2.8c0,1.5-1.2,2.8-2.8,2.8
	C298.5,280.4,297.2,279.2,297.2,277.7 M264.9,277.7c0-19.4,15.7-35.1,35.1-35.1s35.1,15.7,35.1,35.1s-15.7,35.1-35.1,35.1
	C280.6,312.8,264.9,297.1,264.9,277.7"/>
<path class="st4" d="M297.2,278.4c0-1.5,1.2-2.8,2.8-2.8c1.5,0,2.8,1.2,2.8,2.8c0,1.5-1.2,2.8-2.8,2.8
	C298.5,281.2,297.2,280,297.2,278.4z M264.9,278.4c0-19.4,15.7-35.1,35.1-35.1s35.1,15.7,35.1,35.1s-15.7,35.1-35.1,35.1
	C280.6,313.6,264.9,297.8,264.9,278.4z"/>
<g>
	<path class="st2" d="M358.7,275.5l0.8-1.1c-0.7-0.9-1.1-2.1-1.1-3.5c0-2.9,1.7-4.9,4.3-4.9c1,0,1.8,0.3,2.5,0.8l0.7-0.9l0.8,0.6
		l-0.7,0.9c0.7,0.9,1.2,2.1,1.2,3.5c0,3-1.7,4.9-4.4,4.9c-1,0-1.8-0.3-2.5-0.7l-0.7,1L358.7,275.5z M364.4,267.7
		c-0.5-0.4-1.1-0.7-1.8-0.7c-1.8,0-3,1.7-3,3.9c0,1,0.2,1.8,0.6,2.5L364.4,267.7z M365.7,270.9c0-0.9-0.2-1.8-0.6-2.5l-4.2,5.7
		c0.5,0.4,1.1,0.7,1.8,0.7C364.5,274.8,365.7,273.1,365.7,270.9z"/>
	<path class="st2" d="M373.8,274.8c1.3,0,2-1.2,2-3.2V271c-0.5,0.8-1.2,1.2-2.2,1.2c-1.7,0-2.9-1.1-2.9-2.9c0-1.7,1.4-2.9,3.1-2.9
		c2.1,0,3.2,1.6,3.2,4.5c0,3-1.1,4.8-3.2,4.8c-1.7,0-2.8-0.9-3-2.4h1.2C372.3,274.3,372.9,274.8,373.8,274.8z M372,269.4
		c0,1.1,0.7,1.9,1.8,1.9c1.1,0,1.9-0.8,1.9-1.9c0-1.1-0.8-1.9-1.8-1.9C372.8,267.5,372,268.3,372,269.4z"/>
	<path class="st2" d="M379.7,274.1v1.5h-1.5v-1.5H379.7z"/>
	<path class="st2" d="M386.7,266.7v1h-4.1l-0.3,2.8c0.6-0.6,1.2-0.9,2.1-0.9c1.7,0,2.9,1.3,2.9,3c0,1.8-1.3,3.1-3.2,3.1
		c-1.7,0-2.9-1-3.1-2.6h1.2c0.1,1,0.8,1.6,1.8,1.6c1.2,0,1.9-0.8,1.9-2.1c0-1.2-0.8-2.1-1.9-2.1c-0.9,0-1.5,0.4-1.7,1.2l-1.3-0.1
		l0.5-5H386.7z"/>
	<path class="st2" d="M390.9,272.2c0-2,1.1-3.5,3.2-3.5c1.6,0,2.6,0.9,2.8,2.4h-1.2c-0.1-0.9-0.7-1.4-1.6-1.4c-1.2,0-1.9,1-1.9,2.6
		c0,1.6,0.7,2.6,1.9,2.6c0.9,0,1.5-0.5,1.7-1.5h1.2c-0.3,1.6-1.2,2.4-2.9,2.4C392,275.8,390.9,274.4,390.9,272.2z"/>
	<path class="st2" d="M398.2,268.9h1.1v0.9c0.4-0.6,1.1-1,2-1c0.8,0,1.5,0.4,1.8,1.2c0.6-0.9,1.4-1.2,2.4-1.2c1.5,0,2.2,1,2.2,2.5
		v4.4h-1.2v-3.7c0-1-0.1-2.2-1.3-2.2c-1.4,0-1.6,1.6-1.6,2.6v3.3h-1.2v-3.7c0-1-0.1-2.2-1.3-2.2c-1.4,0-1.6,1.6-1.6,2.6v3.3h-1.2
		V268.9z"/>
	<path class="st2" d="M358.7,289.5l0.8-1.1c-0.7-0.9-1.1-2.1-1.1-3.5c0-2.9,1.7-4.9,4.3-4.9c1,0,1.8,0.3,2.5,0.8l0.7-0.9l0.8,0.6
		l-0.7,0.9c0.7,0.9,1.2,2.1,1.2,3.5c0,3-1.7,4.9-4.4,4.9c-1,0-1.8-0.3-2.5-0.7l-0.7,1L358.7,289.5z M364.4,281.7
		c-0.5-0.4-1.1-0.7-1.8-0.7c-1.8,0-3,1.7-3,3.9c0,1,0.2,1.8,0.6,2.5L364.4,281.7z M365.7,284.9c0-0.9-0.2-1.8-0.6-2.5l-4.2,5.7
		c0.5,0.4,1.1,0.7,1.8,0.7C364.5,288.8,365.7,287.1,365.7,284.9z"/>
	<path class="st2" d="M374,288.8c1.1,0,1.9-0.7,1.9-1.7c0-1-0.7-1.6-2-1.6h-0.4v-1h0.3c1.3,0,2-0.6,2-1.5c0-0.9-0.7-1.5-1.8-1.5
		c-1.1,0-1.8,0.7-1.9,1.9h-1.2c0.1-1.8,1.3-2.9,3.2-2.9c1.8,0,3,1,3,2.4c0,1-0.7,1.8-1.6,2.1v0.1c1.1,0.3,1.7,1,1.7,2.2
		c0,1.5-1.4,2.6-3.2,2.6c-1.9,0-3.1-1.2-3.1-3h1.3C372.1,288.1,372.8,288.8,374,288.8z"/>
	<path class="st2" d="M380,288.1v1.5h-1.5v-1.5H380z"/>
	<path class="st2" d="M385.1,281.8h-4.7v-1.1h6v0.9c-1.4,2.5-2.6,5-3.2,8h-1.3C382.5,287,383.6,284.4,385.1,281.8z"/>
	<path class="st2" d="M391.7,287.4v2.2h-1.2v-2.2h-4.1v-1l3.9-5.6h1.4v5.6h1.6v1H391.7z M390.5,286.3v-1.8c0-0.6,0-1.8,0.1-2.5
		l-0.1,0c-0.3,0.5-0.5,0.9-0.9,1.4l-2,2.9H390.5z"/>
	<path class="st2" d="M393.8,283.5l0.6-1.9h-0.6v-1.4h1.5v1.5l-0.8,1.8H393.8z M396,283.5l0.6-1.9h-0.6v-1.4h1.5v1.5l-0.8,1.8H396z"
		/>
</g>
<g>
	<path class="st2" d="M358.3,338.7c0-0.8,0.3-1.7,0.7-2.2c0.4-0.5,0.9-0.9,2-1.6c1.5-0.9,2-1.5,2-2.4c0-1-0.7-1.5-1.7-1.5
		c-1.1,0-1.8,0.7-1.8,2h-1.2c0-1.9,1.3-3,3.1-3c1.7,0,2.8,1.1,2.8,2.6c0,1.2-0.7,2-2.4,3.1c-1.1,0.7-1.4,0.9-1.7,1.3
		c-0.3,0.3-0.5,0.6-0.5,1.1h4.6v1.1h-6V338.7z"/>
	<path class="st2" d="M367.1,337.6v1.5h-1.5v-1.5H367.1z"/>
	<path class="st2" d="M371.6,331c-1.3,0-2.1,1.3-2.1,3.3v0.3c0.5-0.9,1.3-1.3,2.3-1.3c1.5,0,2.8,1.1,2.8,2.9c0,1.9-1.4,3.1-3.1,3.1
		c-2,0-3.2-1.7-3.2-4.5c0-3,1.2-4.8,3.4-4.8c1.6,0,2.7,0.9,2.8,2.4h-1.3C373,331.5,372.5,331,371.6,331z M369.6,336.2
		c0,1.2,0.8,2.1,1.9,2.1c1,0,1.8-0.9,1.8-2.1c0-1.2-0.7-2-1.8-2S369.6,335.1,369.6,336.2z"/>
	<path class="st2" d="M378.2,335.7c0-2,1.1-3.5,3.2-3.5c1.6,0,2.6,0.9,2.8,2.4H383c-0.1-0.9-0.7-1.4-1.6-1.4c-1.2,0-1.9,1-1.9,2.6
		c0,1.6,0.7,2.6,1.9,2.6c0.9,0,1.5-0.5,1.7-1.5h1.2c-0.3,1.6-1.2,2.4-2.9,2.4C379.3,339.3,378.2,337.9,378.2,335.7z"/>
	<path class="st2" d="M385.6,332.4h1.1v0.9c0.4-0.6,1.1-1,2-1c0.8,0,1.5,0.4,1.8,1.2c0.6-0.9,1.4-1.2,2.4-1.2c1.5,0,2.2,1,2.2,2.5
		v4.4h-1.2v-3.7c0-1-0.1-2.2-1.3-2.2c-1.4,0-1.6,1.6-1.6,2.6v3.3h-1.2v-3.7c0-1-0.1-2.2-1.3-2.2c-1.4,0-1.6,1.6-1.6,2.6v3.3h-1.2
		V332.4z"/>
	<path class="st2" d="M358,346.7v-0.8c1.5-0.1,2-0.5,2.2-1.6h1v8.9H360v-6.4H358z"/>
	<path class="st2" d="M364.5,351.6v1.5H363v-1.5H364.5z"/>
	<path class="st2" d="M372.1,348.7c0,3.1-1.2,4.6-3.2,4.6s-3.2-1.7-3.2-4.6s1.2-4.6,3.2-4.6S372.1,345.7,372.1,348.7z M366.9,348.7
		c0,2.3,0.6,3.7,2,3.7c1.3,0,2-1.3,2-3.7c0-2.4-0.6-3.6-2-3.6C367.5,345,366.9,346.3,366.9,348.7z"/>
	<path class="st2" d="M373.4,352.7c0-0.8,0.3-1.7,0.7-2.2c0.4-0.5,0.9-0.9,2-1.6c1.5-0.9,2-1.5,2-2.4c0-1-0.7-1.5-1.7-1.5
		c-1.1,0-1.8,0.7-1.8,2h-1.2c0-1.9,1.3-3,3.1-3c1.7,0,2.8,1.1,2.8,2.6c0,1.2-0.7,2-2.4,3.1c-1.1,0.7-1.4,0.9-1.7,1.3
		c-0.3,0.3-0.5,0.6-0.5,1.1h4.6v1.1h-6V352.7z"/>
	<path class="st2" d="M380.6,347l0.6-1.9h-0.6v-1.4h1.5v1.5l-0.8,1.8H380.6z M382.8,347l0.6-1.9h-0.6v-1.4h1.5v1.5l-0.8,1.8H382.8z"
		/>
</g>
<g>
	<path class="st3" d="M336.8,352.5c0-0.6-0.5-1.1-1-1.1h-0.5L335,334c0-0.1-0.1-0.1-0.1-0.1h-69.4c-0.1,0-0.1,0.1-0.1,0.1l-0.2,17.4
		h-0.5c-0.6,0-1,0.5-1,1.1v0.1c0,0.6,0.5,1,1,1h71C336.3,353.6,336.7,353.1,336.8,352.5L336.8,352.5L336.8,352.5"/>
	<path class="st5" d="M335.1,351.6l-0.2-17.5h-69.4l-0.2,17.5 M336.6,352.6c0,0.5-0.4,0.9-0.9,0.9h-35.5h-35.5
		c-0.5,0-0.9-0.4-0.9-0.9l0-0.1c0,0,0,0,0,0c0-0.5,0.4-0.9,0.9-0.9h35.5h35.5h0C336.2,351.6,336.6,352,336.6,352.6 M336.6,352.6
		L336.6,352.6"/>
</g>
</svg>
