<?xml version="1.0" encoding="utf-8"?>
<!-- Generator: Adobe Illustrator 27.1.1, SVG Export Plug-In . SVG Version: 6.00 Build 0)  -->
<svg version="1.1" id="Livello_1" xmlns="http://www.w3.org/2000/svg" xmlns:xlink="http://www.w3.org/1999/xlink" x="0px" y="0px"
	 viewBox="0 0 600 600" style="enable-background:new 0 0 600 600;" xml:space="preserve">
<style type="text/css">
	.st0{fill:none;}
	.st1{fill:#FFFFFF;}
	.st2{fill:none;stroke:#000000;stroke-width:0.5;stroke-linecap:round;}
	.st3{fill:none;stroke:#000000;stroke-width:0.5;stroke-linecap:round;stroke-linejoin:round;}
	.st4{fill:none;stroke:#000000;stroke-width:0.5;stroke-linejoin:bevel;stroke-miterlimit:22.926;}
</style>
<rect y="0" class="st0" width="600" height="600"/>
<g>
	<g>
		<g>
			<path class="st1" d="M348.6,374.3c-1.2-0.7-2.3-1.1-3-1.1c-0.1,0-0.1,0-0.2,0c-0.2,0-0.3,0.1-0.4,0.2l-1,1.2
				c-0.5-0.2-1.1-0.4-1.6-0.6c0,0,0,0,0,0l0-11.4c0-0.8-0.7-1.5-1.5-1.5h-81c-0.8,0-1.5,0.7-1.5,1.5v15.7h-19.1v11.3
				c0,0.8,0.7,1.5,1.5,1.5h118.6c0.8,0,1.5-0.7,1.5-1.5l0-11.3h-6.2c0,0,0,0,0,0c-0.5-0.3-3.2-2.3-5.7-3.7"/>
			<path class="st2" d="M342.3,373.9l0-11.4c0-0.7-0.6-1.3-1.3-1.3h-81c-0.7,0-1.3,0.6-1.3,1.3v15.9h83.7 M360.7,378.4H239.5v11.1
				c0,0.7,0.6,1.3,1.3,1.3h118.6c0.7,0,1.3-0.6,1.3-1.3L360.7,378.4z M346.2,377.7c0,0,0.4-5.7,14.5-5.7 M354.6,378.3
				c0,0-8.6-6.1-9.4-4.8l-1,1.3 M340.8,374l-3.1,4.4 M350.6,378.4c0,0-4.1-2.5-5.5-3.2c-1.3-0.6-4-1.8-4.2-1.3
				c-0.3,0.6,2.5,2.8,5.5,4.4"/>
		</g>
		<g>
			<path d="M387.2,370.7v2.2H386v-2.2h-4.1v-1l3.9-5.6h1.4v5.6h1.6v1H387.2z M386,369.7v-1.8c0-0.6,0-1.8,0.1-2.5l-0.1,0
				c-0.3,0.5-0.5,0.9-0.9,1.4l-2,2.9H386z"/>
			<path d="M391.3,371.4v1.5h-1.5v-1.5H391.3z"/>
			<path d="M395.8,372.1c1.1,0,1.9-0.7,1.9-1.7c0-1-0.7-1.6-2-1.6h-0.4v-1h0.3c1.3,0,2-0.6,2-1.5c0-0.9-0.7-1.5-1.8-1.5
				c-1.1,0-1.8,0.7-1.9,1.9h-1.2c0.1-1.8,1.3-2.9,3.2-2.9c1.8,0,3,1,3,2.4c0,1-0.7,1.8-1.6,2.1v0.1c1.1,0.3,1.7,1,1.7,2.2
				c0,1.5-1.4,2.6-3.2,2.6c-1.9,0-3.1-1.2-3.1-3h1.3C393.9,371.4,394.6,372.1,395.8,372.1z"/>
			<path d="M402.8,369.6c0-2,1.1-3.5,3.2-3.5c1.6,0,2.6,0.9,2.8,2.4h-1.2c-0.1-0.9-0.7-1.4-1.6-1.4c-1.2,0-1.9,1-1.9,2.6
				c0,1.6,0.7,2.6,1.9,2.6c0.9,0,1.5-0.5,1.7-1.5h1.2c-0.3,1.6-1.2,2.4-2.9,2.4C403.9,373.1,402.8,371.7,402.8,369.6z"/>
			<path d="M410.1,366.2h1.1v0.9c0.4-0.6,1.1-1,2-1c0.8,0,1.5,0.4,1.8,1.2c0.6-0.9,1.4-1.2,2.4-1.2c1.5,0,2.2,1,2.2,2.5v4.4h-1.2
				v-3.7c0-1-0.1-2.2-1.3-2.2c-1.4,0-1.6,1.6-1.6,2.6v3.3h-1.2v-3.7c0-1-0.1-2.2-1.3-2.2c-1.4,0-1.6,1.6-1.6,2.6v3.3h-1.2V366.2z"/>
			<path d="M385.4,385.9v-5.4h-2v-0.8c1.5-0.1,2-0.5,2.2-1.6h1v7.8h1.9v1.1h-5.1v-1.1H385.4z"/>
			<path d="M392,385.4v1.5h-1.5v-1.5H392z"/>
			<path d="M396.5,378.8c-1.3,0-2.1,1.3-2.1,3.3v0.3c0.5-0.9,1.3-1.3,2.3-1.3c1.5,0,2.8,1.1,2.8,2.9c0,1.9-1.4,3.1-3.1,3.1
				c-2,0-3.2-1.7-3.2-4.5c0-3,1.2-4.8,3.4-4.8c1.6,0,2.7,0.9,2.8,2.4H398C397.9,379.3,397.4,378.8,396.5,378.8z M394.5,384.1
				c0,1.2,0.8,2.1,1.9,2.1c1,0,1.8-0.9,1.8-2.1c0-1.2-0.7-2-1.8-2S394.5,382.9,394.5,384.1z"/>
			<path d="M403.6,386.1c1.3,0,2-1.2,2-3.2v-0.5c-0.5,0.8-1.2,1.2-2.2,1.2c-1.7,0-2.9-1.1-2.9-2.9c0-1.7,1.4-2.9,3.1-2.9
				c2.1,0,3.2,1.6,3.2,4.5c0,3-1.1,4.8-3.2,4.8c-1.7,0-2.8-0.9-3-2.4h1.2C402.1,385.6,402.7,386.1,403.6,386.1z M401.8,380.7
				c0,1.1,0.7,1.9,1.8,1.9c1.1,0,1.9-0.8,1.9-1.9c0-1.1-0.8-1.9-1.8-1.9C402.5,378.8,401.8,379.6,401.8,380.7z"/>
			<path d="M408.2,380.8l0.6-2h-0.6v-1.4h1.5v1.5l-0.8,1.8H408.2z M410.4,380.8l0.6-2h-0.6v-1.4h1.5v1.5l-0.8,1.8H410.4z"/>
		</g>
		<g>
			<line class="st3" x1="374" y1="363.2" x2="374" y2="388.7"/>
			<polygon points="377,363.6 371,363.6 374,360.6 			"/>
			<polygon points="377,388.3 371,388.3 374,391.3 			"/>
		</g>
		<g>
			<path d="M272.3,424.8l0.8-1.1c-0.7-0.9-1.1-2.1-1.1-3.5c0-2.9,1.7-4.9,4.3-4.9c1,0,1.8,0.3,2.5,0.8l0.7-0.9l0.8,0.6l-0.7,0.9
				c0.7,0.9,1.2,2.1,1.2,3.5c0,3-1.7,4.9-4.4,4.9c-1,0-1.8-0.3-2.5-0.7l-0.7,1L272.3,424.8z M278.1,416.9c-0.5-0.4-1.1-0.7-1.8-0.7
				c-1.8,0-3,1.7-3,3.9c0,1,0.2,1.8,0.6,2.5L278.1,416.9z M279.3,420.2c0-0.9-0.2-1.8-0.6-2.5l-4.2,5.7c0.5,0.4,1.1,0.7,1.8,0.7
				C278.1,424.1,279.3,422.4,279.3,420.2z"/>
			<path d="M287.6,423.8v-5.4h-2v-0.8c1.5-0.1,2-0.5,2.2-1.6h1v7.8h1.9v1.1h-5.1v-1.1H287.6z"/>
			<path d="M294.2,423.8v-5.4h-2v-0.8c1.5-0.1,2-0.5,2.2-1.6h1v7.8h1.9v1.1h-5.1v-1.1H294.2z"/>
			<path d="M300.1,423.3v1.5h-1.5v-1.5H300.1z"/>
			<path d="M301.4,424.5c0-0.8,0.3-1.7,0.7-2.2c0.4-0.5,0.9-0.9,2-1.6c1.5-0.9,2-1.5,2-2.4c0-1-0.7-1.5-1.7-1.5
				c-1.1,0-1.8,0.7-1.8,2h-1.2c0-1.9,1.3-3,3.1-3c1.7,0,2.8,1.1,2.8,2.6c0,1.2-0.7,2-2.4,3.1c-1.1,0.7-1.4,0.9-1.7,1.3
				c-0.3,0.3-0.5,0.6-0.5,1.1h4.6v1.1h-6V424.5z"/>
			<path d="M311.1,421.5c0-2,1.1-3.5,3.2-3.5c1.6,0,2.6,0.9,2.8,2.4h-1.2c-0.1-0.9-0.7-1.4-1.6-1.4c-1.2,0-1.9,1-1.9,2.6
				c0,1.6,0.7,2.6,1.9,2.6c0.9,0,1.5-0.5,1.7-1.5h1.2c-0.3,1.6-1.2,2.4-2.9,2.4C312.2,425.1,311.1,423.7,311.1,421.5z"/>
			<path d="M318.5,418.2h1.1v0.9c0.4-0.6,1.1-1,2-1c0.8,0,1.5,0.4,1.8,1.2c0.6-0.9,1.4-1.2,2.4-1.2c1.5,0,2.2,1,2.2,2.5v4.4h-1.2
				v-3.7c0-1-0.1-2.2-1.3-2.2c-1.4,0-1.6,1.6-1.6,2.6v3.3h-1.2v-3.7c0-1-0.1-2.2-1.3-2.2c-1.4,0-1.6,1.6-1.6,2.6v3.3h-1.2V418.2z"/>
			<path d="M279.6,438.8l0.8-1.1c-0.7-0.9-1.1-2.1-1.1-3.5c0-2.9,1.7-4.9,4.3-4.9c1,0,1.8,0.3,2.5,0.8l0.7-0.9l0.8,0.6l-0.7,0.9
				c0.7,0.9,1.2,2.1,1.2,3.5c0,3-1.7,4.9-4.4,4.9c-1,0-1.8-0.3-2.5-0.7l-0.7,1L279.6,438.8z M285.4,430.9c-0.5-0.4-1.1-0.7-1.8-0.7
				c-1.8,0-3,1.7-3,3.9c0,1,0.2,1.8,0.6,2.5L285.4,430.9z M286.6,434.2c0-0.9-0.2-1.8-0.6-2.5l-4.2,5.7c0.5,0.4,1.1,0.7,1.8,0.7
				C285.4,438.1,286.6,436.4,286.6,434.2z"/>
			<path d="M296.7,436.6v2.2h-1.2v-2.2h-4.1v-1l3.9-5.6h1.4v5.6h1.6v1H296.7z M295.6,435.6v-1.8c0-0.6,0-1.8,0.1-2.5l-0.1,0
				c-0.3,0.5-0.5,0.9-0.9,1.4l-2,2.9H295.6z"/>
			<path d="M300.9,437.3v1.5h-1.5v-1.5H300.9z"/>
			<path d="M307.2,436.6v2.2H306v-2.2h-4.1v-1l3.9-5.6h1.4v5.6h1.6v1H307.2z M306.1,435.6v-1.8c0-0.6,0-1.8,0.1-2.5l-0.1,0
				c-0.3,0.5-0.5,0.9-0.9,1.4l-2,2.9H306.1z"/>
			<path d="M316.3,434.4c0,3.1-1.2,4.6-3.2,4.6s-3.2-1.7-3.2-4.6s1.2-4.6,3.2-4.6S316.3,431.5,316.3,434.4z M311.1,434.4
				c0,2.3,0.6,3.7,2,3.7c1.3,0,2-1.3,2-3.7c0-2.4-0.6-3.6-2-3.6C311.7,430.8,311.1,432.1,311.1,434.4z"/>
			<path d="M317.6,432.8l0.6-2h-0.6v-1.4h1.5v1.5l-0.8,1.8H317.6z M319.8,432.8l0.6-2h-0.6v-1.4h1.5v1.5l-0.8,1.8H319.8z"/>
		</g>
		<g>
			<line class="st3" x1="260.9" y1="404.4" x2="339.3" y2="404.4"/>
			<polygon points="261.3,401.3 261.3,407.4 258.3,404.4 			"/>
			<polygon points="338.9,401.3 338.9,407.4 341.9,404.4 			"/>
		</g>
	</g>
	<g>
		<g>
			<path class="st1" d="M300.1,330.6c33.5,0,60.8-27.3,60.8-60.8c0-33.5-27.3-60.8-60.8-60.8s-60.8,27.3-60.8,60.8
				C239.3,303.3,266.6,330.6,300.1,330.6"/>
			<path class="st4" d="M300.1,269.1l-0.6,0.3 M299.5,269.4v0.7 M299.5,270.1l0.6,0.3 M300.1,270.5l0.6-0.3 M300.7,270.1v-0.7
				 M300.7,269.4l-0.6-0.3 M297.1,269.8c0,1.7,1.4,3,3,3s3-1.4,3-3c0-1.7-1.4-3-3-3S297.1,268.1,297.1,269.8z M239.5,269.8
				c0,33.5,27.2,60.7,60.7,60.7s60.7-27.2,60.7-60.7c0-33.5-27.2-60.7-60.7-60.7S239.5,236.3,239.5,269.8z"/>
		</g>
		<g>
			<path d="M382.6,266.6l0.8-1.1c-0.7-0.9-1.1-2.1-1.1-3.5c0-2.9,1.7-4.9,4.3-4.9c1,0,1.8,0.3,2.5,0.8l0.7-0.9l0.8,0.6l-0.7,0.9
				c0.7,0.9,1.2,2.1,1.2,3.5c0,3-1.7,4.9-4.4,4.9c-1,0-1.8-0.3-2.5-0.7l-0.7,1L382.6,266.6z M388.3,258.8c-0.5-0.4-1.1-0.7-1.8-0.7
				c-1.8,0-3,1.7-3,3.9c0,1,0.2,1.8,0.6,2.5L388.3,258.8z M389.6,262c0-0.9-0.2-1.8-0.6-2.5l-4.2,5.7c0.5,0.4,1.1,0.6,1.8,0.6
				C388.4,265.9,389.6,264.3,389.6,262z"/>
			<path d="M397.9,265.7v-5.4h-2v-0.8c1.5-0.1,2-0.5,2.2-1.6h1v7.8h1.9v1.1h-5.1v-1.1H397.9z"/>
			<path d="M406.3,258.7c-1.3,0-2.1,1.3-2.1,3.3v0.3c0.5-0.9,1.3-1.3,2.3-1.3c1.5,0,2.8,1.1,2.8,2.9c0,1.9-1.4,3.1-3.1,3.1
				c-2,0-3.2-1.7-3.2-4.5c0-3,1.2-4.8,3.4-4.8c1.6,0,2.7,0.9,2.8,2.4h-1.3C407.8,259.2,407.3,258.7,406.3,258.7z M404.4,263.9
				c0,1.2,0.8,2.1,1.9,2.1c1,0,1.8-0.9,1.8-2.1c0-1.2-0.7-2-1.8-2S404.4,262.8,404.4,263.9z"/>
			<path d="M412.1,265.2v1.5h-1.5v-1.5H412.1z"/>
			<path d="M419.1,257.9v1H415l-0.3,2.8c0.6-0.6,1.2-0.9,2.1-0.9c1.7,0,2.9,1.3,2.9,3c0,1.8-1.3,3.1-3.2,3.1c-1.7,0-2.9-1-3.1-2.6
				h1.2c0.1,1,0.8,1.6,1.8,1.6c1.2,0,1.9-0.8,1.9-2.1c0-1.2-0.8-2.1-1.9-2.1c-0.9,0-1.5,0.4-1.7,1.2l-1.3-0.1l0.5-5H419.1z"/>
			<path d="M423.3,263.4c0-2,1.1-3.5,3.2-3.5c1.6,0,2.6,0.9,2.8,2.4h-1.2c-0.1-0.9-0.7-1.4-1.6-1.4c-1.2,0-1.9,1-1.9,2.6
				c0,1.6,0.7,2.6,1.9,2.6c0.9,0,1.5-0.5,1.7-1.5h1.2c-0.3,1.6-1.2,2.4-2.9,2.4C424.4,266.9,423.3,265.5,423.3,263.4z"/>
			<path d="M430.7,260h1.1v0.9c0.4-0.6,1.1-1,2-1c0.8,0,1.5,0.4,1.8,1.2c0.6-0.9,1.4-1.2,2.4-1.2c1.5,0,2.2,1,2.2,2.5v4.4H439V263
				c0-1-0.1-2.2-1.3-2.2c-1.4,0-1.6,1.6-1.6,2.6v3.3h-1.2V263c0-1-0.1-2.2-1.3-2.2c-1.4,0-1.6,1.6-1.6,2.6v3.3h-1.2V260z"/>
			<path d="M382.6,280.6l0.8-1.1c-0.7-0.9-1.1-2.1-1.1-3.5c0-2.9,1.7-4.9,4.3-4.9c1,0,1.8,0.3,2.5,0.8l0.7-0.9l0.8,0.6l-0.7,0.9
				c0.7,0.9,1.2,2.1,1.2,3.5c0,3-1.7,4.9-4.4,4.9c-1,0-1.8-0.3-2.5-0.7l-0.7,1L382.6,280.6z M388.3,272.8c-0.5-0.4-1.1-0.7-1.8-0.7
				c-1.8,0-3,1.7-3,3.9c0,1,0.2,1.8,0.6,2.5L388.3,272.8z M389.6,276c0-0.9-0.2-1.8-0.6-2.5l-4.2,5.7c0.5,0.4,1.1,0.6,1.8,0.6
				C388.4,279.9,389.6,278.3,389.6,276z"/>
			<path d="M398.2,272.7c-1.3,0-2.1,1.3-2.1,3.3v0.3c0.5-0.9,1.3-1.3,2.3-1.3c1.5,0,2.8,1.1,2.8,2.9c0,1.9-1.4,3.1-3.1,3.1
				c-2,0-3.2-1.7-3.2-4.5c0-3,1.2-4.8,3.4-4.8c1.6,0,2.7,0.9,2.8,2.4h-1.3C399.6,273.2,399.1,272.7,398.2,272.7z M396.2,277.9
				c0,1.2,0.8,2.1,1.9,2.1c1,0,1.8-0.9,1.8-2.1c0-1.2-0.7-2-1.8-2S396.2,276.8,396.2,277.9z"/>
			<path d="M403.9,279.2v1.5h-1.5v-1.5H403.9z"/>
			<path d="M410.2,278.5v2.2H409v-2.2H405v-1l3.9-5.6h1.4v5.6h1.6v1H410.2z M409.1,277.5v-1.8c0-0.6,0-1.8,0.1-2.5l-0.1,0
				c-0.3,0.5-0.5,0.9-0.9,1.4l-2,2.9H409.1z"/>
			<path d="M415.8,280c1.3,0,2-1.2,2-3.2v-0.5c-0.5,0.8-1.2,1.2-2.2,1.2c-1.7,0-2.9-1.1-2.9-2.9c0-1.7,1.4-2.9,3.1-2.9
				c2.1,0,3.2,1.6,3.2,4.5c0,3-1.1,4.8-3.2,4.8c-1.7,0-2.8-0.9-3-2.4h1.2C414.2,279.4,414.8,280,415.8,280z M414,274.6
				c0,1.1,0.7,1.9,1.8,1.9c1.1,0,1.9-0.8,1.9-1.9c0-1.1-0.8-1.9-1.8-1.9C414.7,272.6,414,273.4,414,274.6z"/>
			<path d="M420.4,274.6l0.6-2h-0.6v-1.4h1.5v1.5l-0.8,1.8H420.4z M422.6,274.6l0.6-2h-0.6v-1.4h1.5v1.5l-0.8,1.8H422.6z"/>
		</g>
		<g>
			<line class="st3" x1="374" y1="211.7" x2="374" y2="327.9"/>
			<polygon points="377,212.1 371,212.1 374,209 			"/>
			<polygon points="377,327.5 371,327.5 374,330.5 			"/>
		</g>
	</g>
</g>
</svg>
