<svg xmlns="http://www.w3.org/2000/svg" viewBox="0 0 600 600"><defs><style>.b42a8a97-7f1a-4e65-b3c8-4f89bbee7b77{fill:#fff;}.aec19de0-f8cb-4a2c-aea2-125d9a16f963,.f4469a7a-9d9e-4c78-9235-6e521825764b,.f452fe7b-2bc7-4e5a-8716-778fad2f1b2f{fill:none;}.f4469a7a-9d9e-4c78-9235-6e521825764b,.f452fe7b-2bc7-4e5a-8716-778fad2f1b2f{stroke:#1d1d1b;stroke-width:0.5px;}.f4469a7a-9d9e-4c78-9235-6e521825764b{stroke-linejoin:bevel;}.f452fe7b-2bc7-4e5a-8716-778fad2f1b2f{stroke-linecap:round;stroke-linejoin:round;}.f13b9d53-a8c1-46fa-8759-6828fccca4de{fill:#1d1d1b;}</style></defs><g id="a616a4e9-f911-46b8-b325-eeeb0b0f3c2c" data-name="Livello 2"><g id="b431f22f-262c-4bfa-815f-aca691ce5a90" data-name="Livello 1"><path class="b42a8a97-7f1a-4e65-b3c8-4f89bbee7b77" d="M123.88,341.52H476a1.06,1.06,0,0,0,1.07-1.06V227.63a1.07,1.07,0,0,0-1.07-1.07H123.88a1.07,1.07,0,0,0-1.06,1.07V340.46a1.06,1.06,0,0,0,1.06,1.06"/><path class="f4469a7a-9d9e-4c78-9235-6e521825764b" d="M476.15,341.46H123.77a.89.89,0,0,1-.89-.89V227.51a.89.89,0,0,1,.89-.89H476.15a.89.89,0,0,1,.89.89V340.57A.89.89,0,0,1,476.15,341.46Zm-58.3-98a1.33,1.33,0,1,0-1.33,1.34A1.34,1.34,0,0,0,417.85,243.41ZM433,314.33a1.33,1.33,0,1,0-1.33,1.34A1.34,1.34,0,0,0,433,314.33Zm25.29-38a1.33,1.33,0,1,0-1.33,1.33A1.33,1.33,0,0,0,458.32,276.34Zm-68.3,7.6a1.33,1.33,0,1,0-1.32,1.33A1.32,1.32,0,0,0,390,283.94ZM362.2,324.47a1.33,1.33,0,1,0-1.33,1.33A1.34,1.34,0,0,0,362.2,324.47ZM347,253.55a1.33,1.33,0,1,0-1.33,1.33A1.33,1.33,0,0,0,347,253.55Zm-25.29,38a1.33,1.33,0,1,0-1.33,1.33A1.33,1.33,0,0,0,321.73,291.54Zm-81-48.13a1.33,1.33,0,1,0-1.33,1.34A1.33,1.33,0,0,0,240.78,243.41ZM256,314.33a1.33,1.33,0,1,0-1.33,1.34A1.33,1.33,0,0,0,256,314.33Zm25.29-38a1.33,1.33,0,1,0-1.32,1.33A1.33,1.33,0,0,0,281.25,276.34ZM213,283.94a1.33,1.33,0,1,0-1.33,1.33A1.32,1.32,0,0,0,213,283.94Zm-27.82,40.53a1.33,1.33,0,1,0-1.34,1.33A1.34,1.34,0,0,0,185.14,324.47ZM170,253.55a1.33,1.33,0,1,0-1.33,1.33A1.34,1.34,0,0,0,170,253.55Zm-25.3,38a1.33,1.33,0,1,0-1.33,1.33A1.32,1.32,0,0,0,144.66,291.54Z"/><line class="f452fe7b-2bc7-4e5a-8716-778fad2f1b2f" x1="484.1" y1="229.25" x2="484.1" y2="338.84"/><polygon class="f13b9d53-a8c1-46fa-8759-6828fccca4de" points="487.14 229.66 481.06 229.66 484.1 226.62 487.14 229.66"/><polygon class="f13b9d53-a8c1-46fa-8759-6828fccca4de" points="487.14 338.43 481.06 338.43 484.1 341.46 487.14 338.43"/><path class="f13b9d53-a8c1-46fa-8759-6828fccca4de" d="M497,278.24v2.25h-1.2v-2.25h-4.07v-1l3.88-5.65H497v5.61h1.6v1Zm-1.14-1v-1.76c0-.62,0-1.83.05-2.48h-.08a13.27,13.27,0,0,1-.85,1.36l-2,2.89Z"/><path class="f13b9d53-a8c1-46fa-8759-6828fccca4de" d="M505.36,271.61v1h-4.12l-.3,2.83a2.54,2.54,0,0,1,2.05-.94,2.87,2.87,0,0,1,2.92,3,3,3,0,0,1-3.19,3.13,2.89,2.89,0,0,1-3.09-2.56h1.25a1.72,1.72,0,0,0,1.83,1.57,1.88,1.88,0,0,0,1.92-2.08,1.9,1.9,0,0,0-1.87-2.09,1.7,1.7,0,0,0-1.74,1.23l-1.28-.11.5-5Z"/><path class="f13b9d53-a8c1-46fa-8759-6828fccca4de" d="M508.65,277.14c0-2,1.14-3.55,3.16-3.55a2.6,2.6,0,0,1,2.82,2.39h-1.25a1.48,1.48,0,0,0-1.59-1.43c-1.23,0-1.89,1-1.89,2.59s.69,2.6,1.89,2.6a1.62,1.62,0,0,0,1.68-1.5h1.17a2.62,2.62,0,0,1-2.86,2.45C509.75,280.69,508.65,279.26,508.65,277.14Z"/><path class="f13b9d53-a8c1-46fa-8759-6828fccca4de" d="M515.36,273.79h1.12v.85a2.29,2.29,0,0,1,2-1,1.85,1.85,0,0,1,1.83,1.24,2.7,2.7,0,0,1,2.38-1.24c1.55,0,2.16,1,2.16,2.49v4.36h-1.2v-3.71c0-1-.07-2.19-1.32-2.19-1.44,0-1.63,1.59-1.63,2.59v3.31h-1.19v-3.71c0-1-.09-2.19-1.34-2.19-1.44,0-1.63,1.59-1.63,2.59v3.31h-1.19Z"/><path class="f13b9d53-a8c1-46fa-8759-6828fccca4de" d="M494.87,294.44v-5.39h-2v-.85c1.47-.08,2-.48,2.15-1.59h1v7.83H498v1.05h-5.15v-1.05Z"/><path class="f13b9d53-a8c1-46fa-8759-6828fccca4de" d="M504.42,287.67h-4.68v-1.06h6v.9a26,26,0,0,0-3.18,8h-1.34A27.17,27.17,0,0,1,504.42,287.67Z"/><path class="f13b9d53-a8c1-46fa-8759-6828fccca4de" d="M508.39,294v1.54h-1.5V294Z"/><path class="f13b9d53-a8c1-46fa-8759-6828fccca4de" d="M514.24,287.67h-4.68v-1.06h6v.9a25.72,25.72,0,0,0-3.19,8H511A26.93,26.93,0,0,1,514.24,287.67Z"/><path class="f13b9d53-a8c1-46fa-8759-6828fccca4de" d="M519.76,294.44v-5.39h-2v-.85c1.47-.08,2-.48,2.16-1.59h1v7.83h1.91v1.05h-5.15v-1.05Z"/><path class="f13b9d53-a8c1-46fa-8759-6828fccca4de" d="M524.18,289.4l.63-1.95h-.56v-1.39h1.46v1.54l-.76,1.8Zm2.21,0,.63-1.95h-.56v-1.39h1.46v1.54l-.76,1.8Z"/><path class="f13b9d53-a8c1-46fa-8759-6828fccca4de" d="M282.72,396.8v-5.39h-2v-.85c1.47-.08,2-.48,2.15-1.59h1v7.83h1.91v1.05h-5.15V396.8Z"/><path class="f13b9d53-a8c1-46fa-8759-6828fccca4de" d="M292.4,395.6v2.25h-1.2V395.6h-4.07v-1L291,389h1.39v5.61H294v1Zm-1.14-1v-1.76c0-.62,0-1.83.05-2.48h-.08a13.27,13.27,0,0,1-.85,1.36l-2,2.89Z"/><path class="f13b9d53-a8c1-46fa-8759-6828fccca4de" d="M301.36,393.41c0,3.07-1.25,4.64-3.25,4.64s-3.24-1.65-3.24-4.64,1.24-4.63,3.24-4.63S301.36,390.42,301.36,393.41Zm-5.21,0c0,2.31.62,3.65,2,3.65s2-1.34,2-3.65-.63-3.64-2-3.64S296.15,391,296.15,393.41Z"/><path class="f13b9d53-a8c1-46fa-8759-6828fccca4de" d="M304,394.5c0-2,1.14-3.55,3.16-3.55a2.6,2.6,0,0,1,2.82,2.39h-1.25a1.48,1.48,0,0,0-1.59-1.43c-1.23,0-1.89,1-1.89,2.59s.69,2.6,1.89,2.6a1.62,1.62,0,0,0,1.68-1.5H310a2.62,2.62,0,0,1-2.86,2.45C305.14,398.05,304,396.62,304,394.5Z"/><path class="f13b9d53-a8c1-46fa-8759-6828fccca4de" d="M310.75,391.15h1.12V392a2.28,2.28,0,0,1,2-1,1.85,1.85,0,0,1,1.83,1.24,2.7,2.7,0,0,1,2.38-1.24c1.55,0,2.16,1,2.16,2.49v4.36h-1.2v-3.72c0-1-.07-2.18-1.32-2.18-1.44,0-1.63,1.59-1.63,2.59v3.31h-1.19v-3.72c0-1-.09-2.18-1.34-2.18-1.45,0-1.63,1.59-1.63,2.59v3.31h-1.19Z"/><path class="f13b9d53-a8c1-46fa-8759-6828fccca4de" d="M288.09,404v1H284l-.3,2.82a2.56,2.56,0,0,1,2.05-.93,2.86,2.86,0,0,1,2.91,3,3,3,0,0,1-3.18,3.13,2.88,2.88,0,0,1-3.09-2.56h1.24a1.74,1.74,0,0,0,1.84,1.57,1.88,1.88,0,0,0,1.92-2.08,1.91,1.91,0,0,0-1.87-2.09,1.69,1.69,0,0,0-1.74,1.23l-1.28-.12.5-5Z"/><path class="f13b9d53-a8c1-46fa-8759-6828fccca4de" d="M295.63,404v1h-4.12l-.3,2.82a2.56,2.56,0,0,1,2.05-.93,2.86,2.86,0,0,1,2.91,3,3,3,0,0,1-3.18,3.13,2.88,2.88,0,0,1-3.09-2.56h1.24a1.74,1.74,0,0,0,1.84,1.57A1.88,1.88,0,0,0,294.9,410a1.91,1.91,0,0,0-1.87-2.09,1.69,1.69,0,0,0-1.74,1.23L290,409l.5-5Z"/><path class="f13b9d53-a8c1-46fa-8759-6828fccca4de" d="M298.66,411.31v1.54h-1.5v-1.54Z"/><path class="f13b9d53-a8c1-46fa-8759-6828fccca4de" d="M302.49,411.8v-5.39h-2v-.85c1.47-.08,2-.48,2.16-1.59h1v7.83h1.91v1.05h-5.15V411.8Z"/><path class="f13b9d53-a8c1-46fa-8759-6828fccca4de" d="M310,411.8v-5.39h-2v-.85c1.47-.08,2-.48,2.16-1.59h1v7.83h1.91v1.05H308V411.8Z"/><path class="f13b9d53-a8c1-46fa-8759-6828fccca4de" d="M314.45,406.76l.63-1.95h-.56v-1.39H316V405l-.75,1.8Zm2.21,0,.63-1.95h-.56v-1.39h1.45V405l-.75,1.8Z"/><path class="f13b9d53-a8c1-46fa-8759-6828fccca4de" d="M497,361.38v2.24h-1.2v-2.24h-4.07v-1l3.88-5.64H497v5.6h1.6v1Zm-1.14-1v-1.76c0-.62,0-1.83.05-2.48h-.08a12.27,12.27,0,0,1-.85,1.36l-2,2.89Z"/><path class="f13b9d53-a8c1-46fa-8759-6828fccca4de" d="M500.85,362.08v1.54h-1.5v-1.54Z"/><path class="f13b9d53-a8c1-46fa-8759-6828fccca4de" d="M502,363.25a3.7,3.7,0,0,1,.7-2.25,7.17,7.17,0,0,1,2-1.6c1.46-.88,2-1.46,2-2.35a1.47,1.47,0,0,0-1.65-1.51c-1.12,0-1.75.69-1.8,2H502a2.89,2.89,0,0,1,3.13-3,2.55,2.55,0,0,1,2.8,2.56c0,1.17-.67,2-2.37,3.07a7.06,7.06,0,0,0-1.68,1.26,1.93,1.93,0,0,0-.52,1.13H508v1.05h-6Z"/><path class="f13b9d53-a8c1-46fa-8759-6828fccca4de" d="M510.92,360.27c0-2,1.15-3.55,3.16-3.55a2.59,2.59,0,0,1,2.82,2.39h-1.24a1.49,1.49,0,0,0-1.59-1.43c-1.24,0-1.9,1-1.9,2.59s.69,2.6,1.9,2.6a1.63,1.63,0,0,0,1.68-1.49h1.17a2.62,2.62,0,0,1-2.86,2.44C512,363.82,510.92,362.39,510.92,360.27Z"/><path class="f13b9d53-a8c1-46fa-8759-6828fccca4de" d="M517.63,356.92h1.12v.86a2.28,2.28,0,0,1,2-1A1.86,1.86,0,0,1,522.6,358a2.7,2.7,0,0,1,2.38-1.24c1.54,0,2.16,1,2.16,2.49v4.36h-1.2v-3.71c0-1-.08-2.19-1.33-2.19-1.44,0-1.62,1.59-1.62,2.59v3.31h-1.2v-3.71c0-1-.09-2.19-1.34-2.19-1.44,0-1.62,1.59-1.62,2.59v3.31h-1.2Z"/><path class="f13b9d53-a8c1-46fa-8759-6828fccca4de" d="M494.87,377.57v-5.39h-2v-.85c1.47-.08,2-.48,2.15-1.58h1v7.82H498v1.05h-5.15v-1.05Z"/><path class="f13b9d53-a8c1-46fa-8759-6828fccca4de" d="M500.85,377.08v1.54h-1.5v-1.54Z"/><path class="f13b9d53-a8c1-46fa-8759-6828fccca4de" d="M505.23,370.54c-1.34,0-2.15,1.27-2.15,3.26v.33a2.47,2.47,0,0,1,2.28-1.32,2.77,2.77,0,0,1,2.81,2.93,3,3,0,0,1-3.15,3.08c-2,0-3.16-1.66-3.16-4.51s1.24-4.76,3.37-4.76a2.61,2.61,0,0,1,2.85,2.45H506.8A1.45,1.45,0,0,0,505.23,370.54Zm-1.94,5.22a1.93,1.93,0,0,0,1.9,2.08,1.83,1.83,0,0,0,1.74-2,1.76,1.76,0,0,0-1.74-2A1.88,1.88,0,0,0,503.29,375.76Z"/><path class="f13b9d53-a8c1-46fa-8759-6828fccca4de" d="M515.17,369.75v1h-4.12l-.3,2.82a2.56,2.56,0,0,1,2.06-.94,2.86,2.86,0,0,1,2.91,3,3,3,0,0,1-3.18,3.13,2.89,2.89,0,0,1-3.1-2.56h1.25a1.73,1.73,0,0,0,1.83,1.57,1.88,1.88,0,0,0,1.93-2.08,1.91,1.91,0,0,0-1.87-2.09,1.7,1.7,0,0,0-1.75,1.23l-1.27-.11.49-5Z"/><path class="f13b9d53-a8c1-46fa-8759-6828fccca4de" d="M516.64,372.53l.63-1.95h-.56v-1.39h1.46v1.54l-.76,1.8Zm2.21,0,.63-1.95h-.56v-1.39h1.46v1.54l-.76,1.8Z"/><path class="b42a8a97-7f1a-4e65-b3c8-4f89bbee7b77" d="M476.52,372.63l.17-.17v-.39l-.17-.17h-3.65v-9.07a1.12,1.12,0,0,0-1.12-1.12h-345l-.17.17v10h-3.65l-.17.17v.39l.17.17Z"/><path class="f4469a7a-9d9e-4c78-9235-6e521825764b" d="M472.75,372.13v-9.34a1,1,0,0,0-.95-1H126.7v10.31m349.88.39H122.87v-.39H476.58Z"/><line class="f452fe7b-2bc7-4e5a-8716-778fad2f1b2f" x1="484.1" y1="364.15" x2="484.1" y2="370.19"/><polygon class="f13b9d53-a8c1-46fa-8759-6828fccca4de" points="487.14 364.56 481.06 364.56 484.1 361.52 487.14 364.56"/><polygon class="f13b9d53-a8c1-46fa-8759-6828fccca4de" points="487.14 369.79 481.06 369.79 484.1 372.82 487.14 369.79"/><line class="f452fe7b-2bc7-4e5a-8716-778fad2f1b2f" x1="125.5" y1="379.63" x2="473.95" y2="379.63"/><polygon class="f13b9d53-a8c1-46fa-8759-6828fccca4de" points="125.91 376.6 125.91 382.67 122.87 379.63 125.91 376.6"/><polygon class="f13b9d53-a8c1-46fa-8759-6828fccca4de" points="473.54 376.6 473.54 382.67 476.58 379.63 473.54 376.6"/><rect class="aec19de0-f8cb-4a2c-aea2-125d9a16f963" width="600" height="600"/></g></g></svg>