<svg xmlns="http://www.w3.org/2000/svg" viewBox="0 0 600 600"><defs><style>.b0b8cb7a-66df-4e1a-861b-2fe60b021401{fill:#fff;}.a67efa54-e256-41a3-a109-553f029239cd,.bdf6c2a1-076c-40c3-aac0-a7fe4b9fb3c3,.ea4cfc86-0b39-41c5-b5f5-c0bcf07d21d5{fill:none;}.bdf6c2a1-076c-40c3-aac0-a7fe4b9fb3c3,.ea4cfc86-0b39-41c5-b5f5-c0bcf07d21d5{stroke:#1d1d1b;stroke-width:0.5px;}.ea4cfc86-0b39-41c5-b5f5-c0bcf07d21d5{stroke-linejoin:bevel;}.bdf6c2a1-076c-40c3-aac0-a7fe4b9fb3c3{stroke-linecap:round;stroke-linejoin:round;}.aa4ffa98-013b-49b1-9ea7-631a427a5e79{fill:#1d1d1b;}</style></defs><g id="aa92a1bf-108a-4abd-ac63-bef17b065902" data-name="Livello 2"><g id="a10de4f6-9a27-48ad-80d5-21a053fefab4" data-name="Livello 1"><path class="b0b8cb7a-66df-4e1a-861b-2fe60b021401" d="M211.71,341.52h176.5a1.06,1.06,0,0,0,1.07-1.06V227.62a1.07,1.07,0,0,0-1.07-1.06H211.71a1.07,1.07,0,0,0-1.07,1.06V340.46a1.06,1.06,0,0,0,1.07,1.06"/><path class="ea4cfc86-0b39-41c5-b5f5-c0bcf07d21d5" d="M388.27,341.41H211.65a.89.89,0,0,1-.89-.89V227.57a.89.89,0,0,1,.89-.9H388.27a.89.89,0,0,1,.89.9v113A.89.89,0,0,1,388.27,341.41Zm-58.94-98.16a1.34,1.34,0,1,0-1.34,1.33A1.34,1.34,0,0,0,329.33,243.25Zm15.29,71.39a1.34,1.34,0,1,0-1.33,1.33A1.34,1.34,0,0,0,344.62,314.64Zm25.49-48.45a1.34,1.34,0,1,0-1.34,1.34A1.33,1.33,0,0,0,370.11,266.19ZM301.3,284a1.34,1.34,0,1,0-1.34,1.34A1.34,1.34,0,0,0,301.3,284Zm-28,40.79a1.34,1.34,0,1,0-1.33,1.34A1.34,1.34,0,0,0,273.26,324.83ZM258,253.45a1.34,1.34,0,1,0-1.34,1.33A1.34,1.34,0,0,0,258,253.45Zm-25.49,48.44a1.34,1.34,0,1,0-1.33,1.33A1.34,1.34,0,0,0,232.48,301.89Z"/><line class="bdf6c2a1-076c-40c3-aac0-a7fe4b9fb3c3" x1="396.16" y1="229.3" x2="396.16" y2="338.9"/><polygon class="aa4ffa98-013b-49b1-9ea7-631a427a5e79" points="399.2 229.71 393.13 229.71 396.16 226.67 399.2 229.71"/><polygon class="aa4ffa98-013b-49b1-9ea7-631a427a5e79" points="399.2 338.49 393.13 338.49 396.16 341.52 399.2 338.49"/><path class="aa4ffa98-013b-49b1-9ea7-631a427a5e79" d="M409.08,278.25v2.24h-1.21v-2.24H403.8v-1l3.89-5.65h1.39v5.61h1.6v1Zm-1.14-1v-1.76c0-.62,0-1.83.05-2.48h-.08a15.41,15.41,0,0,1-.86,1.36l-2,2.89Z"/><path class="aa4ffa98-013b-49b1-9ea7-631a427a5e79" d="M417.43,271.61v1H413.3l-.29,2.83a2.54,2.54,0,0,1,2.05-.94,2.86,2.86,0,0,1,2.91,3,3,3,0,0,1-3.18,3.13,2.89,2.89,0,0,1-3.1-2.56h1.25a1.73,1.73,0,0,0,1.83,1.57,1.88,1.88,0,0,0,1.93-2.08,1.91,1.91,0,0,0-1.87-2.09,1.7,1.7,0,0,0-1.75,1.23l-1.27-.11.49-5Z"/><path class="aa4ffa98-013b-49b1-9ea7-631a427a5e79" d="M420.71,277.14c0-2,1.15-3.55,3.16-3.55a2.6,2.6,0,0,1,2.82,2.39h-1.24a1.49,1.49,0,0,0-1.59-1.43c-1.24,0-1.9,1-1.9,2.59s.69,2.6,1.9,2.6a1.63,1.63,0,0,0,1.68-1.49h1.17a2.63,2.63,0,0,1-2.86,2.44C421.82,280.69,420.71,279.26,420.71,277.14Z"/><path class="aa4ffa98-013b-49b1-9ea7-631a427a5e79" d="M427.42,273.79h1.12v.85a2.3,2.3,0,0,1,2-1,1.86,1.86,0,0,1,1.84,1.24,2.7,2.7,0,0,1,2.38-1.24c1.54,0,2.16,1,2.16,2.49v4.36h-1.2v-3.71c0-1-.08-2.19-1.33-2.19-1.44,0-1.62,1.59-1.62,2.59v3.31h-1.2v-3.71c0-1-.09-2.19-1.34-2.19-1.44,0-1.62,1.59-1.62,2.59v3.31h-1.2Z"/><path class="aa4ffa98-013b-49b1-9ea7-631a427a5e79" d="M406.93,294.44v-5.39h-2v-.85c1.47-.08,2-.48,2.16-1.59h1v7.83H410v1.05h-5.15v-1.05Z"/><path class="aa4ffa98-013b-49b1-9ea7-631a427a5e79" d="M416.49,287.67h-4.68v-1.06h6v.9a26,26,0,0,0-3.19,8h-1.34A26.93,26.93,0,0,1,416.49,287.67Z"/><path class="aa4ffa98-013b-49b1-9ea7-631a427a5e79" d="M420.45,294v1.54H419V294Z"/><path class="aa4ffa98-013b-49b1-9ea7-631a427a5e79" d="M426.3,287.67h-4.68v-1.06h6v.9a26.22,26.22,0,0,0-3.19,8h-1.33A27.17,27.17,0,0,1,426.3,287.67Z"/><path class="aa4ffa98-013b-49b1-9ea7-631a427a5e79" d="M431.83,294.44v-5.39h-2v-.85c1.46-.08,2-.48,2.15-1.59h1v7.83h1.92v1.05h-5.15v-1.05Z"/><path class="aa4ffa98-013b-49b1-9ea7-631a427a5e79" d="M436.25,289.4l.62-1.95h-.56v-1.39h1.46v1.54l-.75,1.8Zm2.21,0,.62-1.95h-.56v-1.39H440v1.54l-.75,1.8Z"/><path class="aa4ffa98-013b-49b1-9ea7-631a427a5e79" d="M288.5,390h-4.68V389h6v.9a26,26,0,0,0-3.18,8h-1.34A27.17,27.17,0,0,1,288.5,390Z"/><path class="aa4ffa98-013b-49b1-9ea7-631a427a5e79" d="M297.59,393.41c0,3.07-1.25,4.64-3.25,4.64s-3.24-1.65-3.24-4.64,1.24-4.63,3.24-4.63S297.59,390.42,297.59,393.41Zm-5.21,0c0,2.31.62,3.65,2,3.65s2-1.34,2-3.65-.63-3.64-2-3.64S292.38,391,292.38,393.41Z"/><path class="aa4ffa98-013b-49b1-9ea7-631a427a5e79" d="M300.27,394.5c0-2,1.14-3.55,3.16-3.55a2.6,2.6,0,0,1,2.82,2.39H305a1.48,1.48,0,0,0-1.58-1.43c-1.24,0-1.9,1-1.9,2.59s.69,2.6,1.9,2.6a1.62,1.62,0,0,0,1.67-1.5h1.17a2.62,2.62,0,0,1-2.86,2.45C301.37,398.05,300.27,396.62,300.27,394.5Z"/><path class="aa4ffa98-013b-49b1-9ea7-631a427a5e79" d="M307,391.15h1.12V392a2.28,2.28,0,0,1,2-1,1.85,1.85,0,0,1,1.83,1.24,2.7,2.7,0,0,1,2.38-1.24c1.55,0,2.16,1,2.16,2.49v4.36h-1.2v-3.72c0-1-.07-2.18-1.32-2.18-1.44,0-1.63,1.59-1.63,2.59v3.31h-1.19v-3.72c0-1-.09-2.18-1.34-2.18-1.45,0-1.63,1.59-1.63,2.59v3.31H307Z"/><path class="aa4ffa98-013b-49b1-9ea7-631a427a5e79" d="M282.49,412.48a3.7,3.7,0,0,1,.7-2.25,7.09,7.09,0,0,1,2-1.6c1.46-.89,2-1.46,2-2.35a1.46,1.46,0,0,0-1.65-1.51c-1.12,0-1.74.69-1.8,2h-1.22a2.89,2.89,0,0,1,3.14-3,2.54,2.54,0,0,1,2.79,2.56c0,1.17-.66,2-2.37,3.07a6.71,6.71,0,0,0-1.67,1.26,1.82,1.82,0,0,0-.52,1.13h4.6v1.05h-5.95Z"/><path class="aa4ffa98-013b-49b1-9ea7-631a427a5e79" d="M294.69,405H290V404h6v.9a26.22,26.22,0,0,0-3.19,8h-1.34A27.21,27.21,0,0,1,294.69,405Z"/><path class="aa4ffa98-013b-49b1-9ea7-631a427a5e79" d="M298.66,411.31v1.54h-1.5v-1.54Z"/><path class="aa4ffa98-013b-49b1-9ea7-631a427a5e79" d="M305.44,404v1h-4.12l-.3,2.82a2.57,2.57,0,0,1,2.06-.93,2.86,2.86,0,0,1,2.91,3,3,3,0,0,1-3.19,3.13,2.89,2.89,0,0,1-3.09-2.56H301a1.72,1.72,0,0,0,1.83,1.57,1.88,1.88,0,0,0,1.92-2.08,1.9,1.9,0,0,0-1.87-2.09,1.7,1.7,0,0,0-1.74,1.23l-1.27-.12.49-5Z"/><path class="aa4ffa98-013b-49b1-9ea7-631a427a5e79" d="M313,404v1h-4.12l-.3,2.82a2.57,2.57,0,0,1,2.06-.93,2.86,2.86,0,0,1,2.91,3,3,3,0,0,1-3.19,3.13,2.89,2.89,0,0,1-3.09-2.56h1.25a1.72,1.72,0,0,0,1.83,1.57,1.88,1.88,0,0,0,1.92-2.08,1.9,1.9,0,0,0-1.87-2.09,1.7,1.7,0,0,0-1.74,1.23l-1.27-.12.49-5Z"/><path class="aa4ffa98-013b-49b1-9ea7-631a427a5e79" d="M314.45,406.76l.63-1.95h-.56v-1.39H316V405l-.75,1.8Zm2.21,0,.63-1.95h-.56v-1.39h1.45V405l-.75,1.8Z"/><path class="aa4ffa98-013b-49b1-9ea7-631a427a5e79" d="M409.08,361.38v2.24h-1.21v-2.24H403.8v-1l3.89-5.64h1.39v5.6h1.6v1Zm-1.14-1v-1.76c0-.62,0-1.83.05-2.48h-.08a14.07,14.07,0,0,1-.86,1.36l-2,2.89Z"/><path class="aa4ffa98-013b-49b1-9ea7-631a427a5e79" d="M412.91,362.08v1.54h-1.49v-1.54Z"/><path class="aa4ffa98-013b-49b1-9ea7-631a427a5e79" d="M414.1,363.25a3.7,3.7,0,0,1,.7-2.25,7,7,0,0,1,2-1.6c1.45-.88,2-1.46,2-2.35a1.46,1.46,0,0,0-1.65-1.51c-1.12,0-1.74.69-1.79,2h-1.23a2.89,2.89,0,0,1,3.14-3,2.54,2.54,0,0,1,2.79,2.56c0,1.17-.66,2-2.36,3.07a6.63,6.63,0,0,0-1.68,1.26,1.87,1.87,0,0,0-.52,1.13h4.6v1.05H414.1Z"/><path class="aa4ffa98-013b-49b1-9ea7-631a427a5e79" d="M423,360.27c0-2,1.14-3.55,3.16-3.55a2.61,2.61,0,0,1,2.82,2.39h-1.25a1.49,1.49,0,0,0-1.58-1.43c-1.24,0-1.9,1-1.9,2.59s.69,2.6,1.9,2.6a1.62,1.62,0,0,0,1.67-1.49H429a2.62,2.62,0,0,1-2.86,2.44C424.09,363.82,423,362.39,423,360.27Z"/><path class="aa4ffa98-013b-49b1-9ea7-631a427a5e79" d="M429.7,356.92h1.12v.86a2.27,2.27,0,0,1,2-1,1.85,1.85,0,0,1,1.83,1.24,2.7,2.7,0,0,1,2.38-1.24c1.55,0,2.16,1,2.16,2.49v4.36H438v-3.71c0-1-.07-2.19-1.32-2.19-1.44,0-1.63,1.59-1.63,2.59v3.31h-1.19v-3.71c0-1-.09-2.19-1.34-2.19-1.44,0-1.63,1.59-1.63,2.59v3.31H429.7Z"/><path class="aa4ffa98-013b-49b1-9ea7-631a427a5e79" d="M406.93,377.57v-5.39h-2v-.85c1.47-.08,2-.48,2.16-1.58h1v7.82H410v1.05h-5.15v-1.05Z"/><path class="aa4ffa98-013b-49b1-9ea7-631a427a5e79" d="M412.91,377.08v1.54h-1.49v-1.54Z"/><path class="aa4ffa98-013b-49b1-9ea7-631a427a5e79" d="M417.3,370.54c-1.34,0-2.15,1.27-2.15,3.26v.33a2.46,2.46,0,0,1,2.28-1.32,2.77,2.77,0,0,1,2.8,2.93,3,3,0,0,1-3.14,3.08c-2,0-3.16-1.66-3.16-4.51s1.23-4.76,3.37-4.76a2.61,2.61,0,0,1,2.84,2.45h-1.27A1.45,1.45,0,0,0,417.3,370.54Zm-1.94,5.22a1.93,1.93,0,0,0,1.9,2.08,1.83,1.83,0,0,0,1.74-2,1.76,1.76,0,0,0-1.74-2A1.87,1.87,0,0,0,415.36,375.76Z"/><path class="aa4ffa98-013b-49b1-9ea7-631a427a5e79" d="M427.24,369.75v1h-4.12l-.3,2.82a2.54,2.54,0,0,1,2.05-.94,2.87,2.87,0,0,1,2.92,3,3,3,0,0,1-3.19,3.13,2.89,2.89,0,0,1-3.09-2.56h1.24a1.74,1.74,0,0,0,1.84,1.57,1.87,1.87,0,0,0,1.92-2.08,1.9,1.9,0,0,0-1.87-2.09,1.7,1.7,0,0,0-1.74,1.23l-1.28-.11.5-5Z"/><path class="aa4ffa98-013b-49b1-9ea7-631a427a5e79" d="M428.71,372.53l.62-1.95h-.56v-1.39h1.46v1.54l-.75,1.8Zm2.21,0,.62-1.95H431v-1.39h1.46v1.54l-.75,1.8Z"/><path class="b0b8cb7a-66df-4e1a-861b-2fe60b021401" d="M388.58,372.63l.18-.17v-.39l-.18-.17h-3.65v-9.07a1.12,1.12,0,0,0-1.12-1.12H214.75l-.17.17v10h-3.65l-.17.17v.39l.17.17Z"/><path class="ea4cfc86-0b39-41c5-b5f5-c0bcf07d21d5" d="M384.81,372.13v-9.34a1,1,0,0,0-.94-1H214.69v10.31m174,.39H210.87v-.39H388.64Z"/><line class="bdf6c2a1-076c-40c3-aac0-a7fe4b9fb3c3" x1="396.16" y1="364.15" x2="396.16" y2="370.19"/><polygon class="aa4ffa98-013b-49b1-9ea7-631a427a5e79" points="399.2 364.56 393.13 364.56 396.16 361.52 399.2 364.56"/><polygon class="aa4ffa98-013b-49b1-9ea7-631a427a5e79" points="399.2 369.79 393.13 369.79 396.16 372.82 399.2 369.79"/><line class="bdf6c2a1-076c-40c3-aac0-a7fe4b9fb3c3" x1="213.5" y1="379.63" x2="386.01" y2="379.63"/><polygon class="aa4ffa98-013b-49b1-9ea7-631a427a5e79" points="213.91 376.6 213.91 382.67 210.87 379.63 213.91 376.6"/><polygon class="aa4ffa98-013b-49b1-9ea7-631a427a5e79" points="385.61 376.6 385.61 382.67 388.64 379.63 385.61 376.6"/><rect class="a67efa54-e256-41a3-a109-553f029239cd" width="600" height="600"/></g></g></svg>