<svg xmlns="http://www.w3.org/2000/svg" viewBox="0 0 600 600"><defs><style>.e3616789-3c8a-47fb-895c-88df001a7e3a,.f6c2fe14-d663-4c1c-a383-dfa3ef735113{fill:#fff;}.bb38b5e7-2886-46dd-88c3-4ed24722e9f6,.bef1bae9-36f1-4372-aac2-525ea02bdbcb,.e3616789-3c8a-47fb-895c-88df001a7e3a{stroke:#1d1d1b;stroke-width:0.5px;}.bef1bae9-36f1-4372-aac2-525ea02bdbcb,.e3616789-3c8a-47fb-895c-88df001a7e3a{stroke-linejoin:bevel;}.bb38b5e7-2886-46dd-88c3-4ed24722e9f6,.bef1bae9-36f1-4372-aac2-525ea02bdbcb,.f6f9fc37-26e2-4d45-84da-b6cfd89df1b6{fill:none;}.bb38b5e7-2886-46dd-88c3-4ed24722e9f6{stroke-linecap:round;stroke-linejoin:round;}.b7108439-6a84-4f04-a5cd-644ee5b524cf{fill:#1d1d1b;}</style></defs><g id="b23084ad-f7c9-46f7-be1f-26472bac3184" data-name="Livello 2"><g id="fab133d7-39f1-4352-ad82-be8fde939408" data-name="Livello 1"><path class="e3616789-3c8a-47fb-895c-88df001a7e3a" d="M476.21,398.76H123.71a.89.89,0,0,1-.89-.9V171.11a.89.89,0,0,1,.89-.9h352.5a.89.89,0,0,1,.89.9V397.86A.89.89,0,0,1,476.21,398.76ZM458.37,209.5a1.33,1.33,0,1,0-1.33,1.33A1.33,1.33,0,0,0,458.37,209.5ZM321.56,245a1.33,1.33,0,1,0-1.33,1.33A1.33,1.33,0,0,0,321.56,245ZM281,209.5a1.33,1.33,0,1,0-1.33,1.33A1.34,1.34,0,0,0,281,209.5ZM144.21,245a1.33,1.33,0,1,0-1.33,1.33A1.33,1.33,0,0,0,144.21,245Zm273.62-58.3a1.33,1.33,0,1,0-1.32,1.34A1.33,1.33,0,0,0,417.83,186.68Zm15.21,71A1.33,1.33,0,1,0,431.7,259,1.34,1.34,0,0,0,433,257.65ZM390,227.24a1.33,1.33,0,1,0-2.66,0,1.33,1.33,0,1,0,2.66,0ZM362.1,267.79a1.33,1.33,0,1,0-1.34,1.33A1.33,1.33,0,0,0,362.1,267.79Zm-15.21-71a1.33,1.33,0,1,0-1.32,1.33A1.33,1.33,0,0,0,346.89,196.82ZM240.48,186.68a1.33,1.33,0,1,0-1.33,1.34A1.33,1.33,0,0,0,240.48,186.68Zm15.2,71a1.33,1.33,0,1,0-1.32,1.33A1.33,1.33,0,0,0,255.68,257.65Zm-43.07-30.41a1.33,1.33,0,1,0-1.33,1.33A1.32,1.32,0,0,0,212.61,227.24Zm-27.87,40.55a1.33,1.33,0,1,0-1.33,1.33A1.32,1.32,0,0,0,184.74,267.79Zm-15.2-71a1.33,1.33,0,1,0-1.33,1.33A1.33,1.33,0,0,0,169.54,196.82ZM458.37,323.55a1.33,1.33,0,1,0-1.33,1.33A1.32,1.32,0,0,0,458.37,323.55ZM321.56,359a1.33,1.33,0,1,0-1.33,1.33A1.33,1.33,0,0,0,321.56,359ZM281,323.55a1.33,1.33,0,1,0-1.33,1.33A1.33,1.33,0,0,0,281,323.55ZM144.21,359a1.33,1.33,0,1,0-1.33,1.33A1.33,1.33,0,0,0,144.21,359Zm273.62-58.29a1.33,1.33,0,1,0-2.66,0,1.33,1.33,0,1,0,2.66,0Zm15.21,71a1.33,1.33,0,1,0-2.66,0,1.33,1.33,0,1,0,2.66,0ZM390,341.29a1.33,1.33,0,1,0-2.66,0,1.33,1.33,0,1,0,2.66,0ZM362.1,381.84a1.33,1.33,0,1,0-2.66,0,1.33,1.33,0,1,0,2.66,0Zm-15.21-71a1.33,1.33,0,0,0-2.66,0,1.33,1.33,0,1,0,2.66,0ZM240.48,300.74a1.33,1.33,0,1,0-1.33,1.33A1.32,1.32,0,0,0,240.48,300.74Zm15.2,71a1.33,1.33,0,1,0-1.32,1.33A1.33,1.33,0,0,0,255.68,371.7Zm-43.07-30.41a1.33,1.33,0,1,0-1.33,1.33A1.32,1.32,0,0,0,212.61,341.29Zm-27.87,40.55a1.33,1.33,0,1,0-1.33,1.33A1.33,1.33,0,0,0,184.74,381.84Zm-15.2-71a1.33,1.33,0,0,0-2.66,0,1.33,1.33,0,1,0,2.66,0Z"/><line class="bb38b5e7-2886-46dd-88c3-4ed24722e9f6" x1="484.1" y1="172.84" x2="484.1" y2="396.13"/><polygon class="b7108439-6a84-4f04-a5cd-644ee5b524cf" points="487.14 173.25 481.06 173.25 484.1 170.22 487.14 173.25"/><polygon class="b7108439-6a84-4f04-a5cd-644ee5b524cf" points="487.14 395.72 481.06 395.72 484.1 398.76 487.14 395.72"/><path class="b7108439-6a84-4f04-a5cd-644ee5b524cf" d="M495,280.15c1.32,0,2-1.21,2-3.25v-.51a2.29,2.29,0,0,1-2.17,1.22,2.69,2.69,0,0,1-2.86-2.86,2.93,2.93,0,0,1,3.08-2.89c2.11,0,3.2,1.64,3.2,4.5,0,3-1.13,4.77-3.22,4.77a2.69,2.69,0,0,1-3-2.41h1.24A1.57,1.57,0,0,0,495,280.15Zm-1.83-5.4a1.78,1.78,0,0,0,1.76,1.89,1.9,1.9,0,0,0,0-3.8A1.78,1.78,0,0,0,493.21,274.75Z"/><path class="b7108439-6a84-4f04-a5cd-644ee5b524cf" d="M506,276.49c0,3.07-1.25,4.64-3.25,4.64s-3.24-1.65-3.24-4.64,1.24-4.63,3.24-4.63S506,273.5,506,276.49Zm-5.21,0c0,2.32.62,3.66,2,3.66s2-1.34,2-3.66-.63-3.64-2-3.64S500.76,274.13,500.76,276.49Z"/><path class="b7108439-6a84-4f04-a5cd-644ee5b524cf" d="M508.65,277.58c0-2,1.14-3.54,3.16-3.54a2.6,2.6,0,0,1,2.82,2.39h-1.25a1.48,1.48,0,0,0-1.59-1.43c-1.23,0-1.89,1-1.89,2.58s.69,2.6,1.89,2.6a1.62,1.62,0,0,0,1.68-1.49h1.17a2.61,2.61,0,0,1-2.86,2.44C509.75,281.13,508.65,279.7,508.65,277.58Z"/><path class="b7108439-6a84-4f04-a5cd-644ee5b524cf" d="M515.36,274.23h1.12v.86a2.27,2.27,0,0,1,2-1,1.84,1.84,0,0,1,1.83,1.23,2.69,2.69,0,0,1,2.38-1.23c1.55,0,2.16,1,2.16,2.48v4.37h-1.2v-3.72c0-1-.07-2.18-1.32-2.18-1.44,0-1.63,1.58-1.63,2.58v3.32h-1.19v-3.72c0-1-.09-2.18-1.34-2.18-1.44,0-1.63,1.58-1.63,2.58v3.32h-1.19Z"/><path class="b7108439-6a84-4f04-a5cd-644ee5b524cf" d="M495.16,295.15a1.73,1.73,0,0,0,1.88-1.67c0-1-.74-1.57-2-1.57h-.43v-1h.3c1.26,0,2-.56,2-1.54s-.71-1.52-1.77-1.52a1.74,1.74,0,0,0-1.86,1.89h-1.24a2.85,2.85,0,0,1,3.18-2.88c1.75,0,2.93,1,2.93,2.41a2.15,2.15,0,0,1-1.61,2.07v.06a2.08,2.08,0,0,1,1.74,2.16c0,1.51-1.36,2.57-3.21,2.57a2.86,2.86,0,0,1-3.13-3h1.26A1.82,1.82,0,0,0,495.16,295.15Z"/><path class="b7108439-6a84-4f04-a5cd-644ee5b524cf" d="M505.36,287.06v1h-4.12l-.3,2.82A2.54,2.54,0,0,1,503,290a2.87,2.87,0,0,1,2.92,3,3,3,0,0,1-3.19,3.13,2.88,2.88,0,0,1-3.09-2.56h1.25a1.72,1.72,0,0,0,1.83,1.58,1.88,1.88,0,0,0,1.92-2.08,1.91,1.91,0,0,0-1.87-2.1,1.69,1.69,0,0,0-1.74,1.24l-1.28-.12.5-5Z"/><path class="b7108439-6a84-4f04-a5cd-644ee5b524cf" d="M508.39,294.39v1.55h-1.5v-1.55Z"/><path class="b7108439-6a84-4f04-a5cd-644ee5b524cf" d="M514.37,293.69v2.25h-1.21v-2.25h-4.07v-1l3.89-5.64h1.39v5.6H516v1Zm-1.15-1v-1.75c0-.63,0-1.84.06-2.49h-.08a15.55,15.55,0,0,1-.86,1.37l-2,2.88Z"/><path class="b7108439-6a84-4f04-a5cd-644ee5b524cf" d="M520.05,295.15a1.74,1.74,0,0,0,1.89-1.67c0-1-.75-1.57-2-1.57h-.43v-1h.3c1.26,0,2-.56,2-1.54s-.7-1.52-1.77-1.52a1.74,1.74,0,0,0-1.86,1.89H517a2.83,2.83,0,0,1,3.17-2.88c1.76,0,2.94,1,2.94,2.41a2.15,2.15,0,0,1-1.61,2.07v.06a2.08,2.08,0,0,1,1.74,2.16c0,1.51-1.37,2.57-3.21,2.57a2.86,2.86,0,0,1-3.13-3h1.26A1.82,1.82,0,0,0,520.05,295.15Z"/><path class="b7108439-6a84-4f04-a5cd-644ee5b524cf" d="M524.18,289.84l.63-1.95h-.56V286.5h1.46v1.55l-.76,1.79Zm2.21,0,.63-1.95h-.56V286.5h1.46v1.55l-.76,1.79Z"/><path class="b7108439-6a84-4f04-a5cd-644ee5b524cf" d="M282.72,453.76v-5.39h-2v-.85c1.47-.08,2-.48,2.16-1.58h1v7.82h1.91v1.06h-5.15v-1.06Z"/><path class="b7108439-6a84-4f04-a5cd-644ee5b524cf" d="M292.4,452.57v2.25h-1.2v-2.25h-4.07v-1l3.88-5.64h1.39v5.6H294v1Zm-1.14-1v-1.76c0-.62,0-1.83.05-2.48h-.08a12.27,12.27,0,0,1-.85,1.36l-2,2.89Z"/><path class="b7108439-6a84-4f04-a5cd-644ee5b524cf" d="M301.36,450.37c0,3.07-1.25,4.64-3.25,4.64s-3.24-1.65-3.24-4.64,1.24-4.63,3.24-4.63S301.36,447.38,301.36,450.37Zm-5.21,0c0,2.31.62,3.65,2,3.65s2-1.34,2-3.65-.63-3.64-2-3.64S296.15,448,296.15,450.37Z"/><path class="b7108439-6a84-4f04-a5cd-644ee5b524cf" d="M304,451.46c0-2,1.14-3.55,3.16-3.55A2.61,2.61,0,0,1,310,450.3h-1.25a1.49,1.49,0,0,0-1.59-1.43c-1.23,0-1.89,1-1.89,2.59s.69,2.6,1.89,2.6a1.62,1.62,0,0,0,1.68-1.49H310a2.61,2.61,0,0,1-2.86,2.44C305.14,455,304,453.58,304,451.46Z"/><path class="b7108439-6a84-4f04-a5cd-644ee5b524cf" d="M310.75,448.11h1.12V449a2.26,2.26,0,0,1,2-1,1.85,1.85,0,0,1,1.83,1.24,2.7,2.7,0,0,1,2.38-1.24c1.55,0,2.16,1,2.16,2.49v4.37h-1.2V451.1c0-1-.07-2.19-1.32-2.19-1.44,0-1.63,1.59-1.63,2.59v3.32h-1.19V451.1c0-1-.09-2.19-1.34-2.19-1.45,0-1.63,1.59-1.63,2.59v3.32h-1.19Z"/><path class="b7108439-6a84-4f04-a5cd-644ee5b524cf" d="M288.09,460.94v1H284l-.3,2.82a2.54,2.54,0,0,1,2.05-.94,2.86,2.86,0,0,1,2.91,3,3,3,0,0,1-3.18,3.13,2.88,2.88,0,0,1-3.09-2.56h1.24a1.74,1.74,0,0,0,1.84,1.57,1.88,1.88,0,0,0,1.92-2.08,1.91,1.91,0,0,0-1.87-2.09,1.69,1.69,0,0,0-1.74,1.23l-1.28-.11.5-5Z"/><path class="b7108439-6a84-4f04-a5cd-644ee5b524cf" d="M295.63,460.94v1h-4.12l-.3,2.82a2.54,2.54,0,0,1,2.05-.94,2.86,2.86,0,0,1,2.91,3A3,3,0,0,1,293,470a2.88,2.88,0,0,1-3.09-2.56h1.24A1.74,1.74,0,0,0,293,469a1.88,1.88,0,0,0,1.92-2.08,1.91,1.91,0,0,0-1.87-2.09,1.69,1.69,0,0,0-1.74,1.23L290,466l.5-5Z"/><path class="b7108439-6a84-4f04-a5cd-644ee5b524cf" d="M298.66,468.27v1.55h-1.5v-1.55Z"/><path class="b7108439-6a84-4f04-a5cd-644ee5b524cf" d="M302.49,468.76v-5.39h-2v-.85c1.47-.08,2-.48,2.16-1.58h1v7.82h1.91v1.06h-5.15v-1.06Z"/><path class="b7108439-6a84-4f04-a5cd-644ee5b524cf" d="M310,468.76v-5.39h-2v-.85c1.47-.08,2-.48,2.16-1.58h1v7.82h1.91v1.06H308v-1.06Z"/><path class="b7108439-6a84-4f04-a5cd-644ee5b524cf" d="M314.45,463.72l.63-2h-.56v-1.39H316v1.54l-.75,1.8Zm2.21,0,.63-2h-.56v-1.39h1.45v1.54l-.75,1.8Z"/><path class="b7108439-6a84-4f04-a5cd-644ee5b524cf" d="M497,418.34v2.25h-1.2v-2.25h-4.07v-1l3.88-5.64H497v5.6h1.6v1Zm-1.14-1v-1.75c0-.63,0-1.84.05-2.49h-.08a13.39,13.39,0,0,1-.85,1.37l-2,2.88Z"/><path class="b7108439-6a84-4f04-a5cd-644ee5b524cf" d="M500.85,419v1.55h-1.5V419Z"/><path class="b7108439-6a84-4f04-a5cd-644ee5b524cf" d="M502,420.21a3.74,3.74,0,0,1,.7-2.25,7.36,7.36,0,0,1,2-1.6c1.46-.88,2-1.45,2-2.35A1.47,1.47,0,0,0,505,412.5c-1.12,0-1.75.69-1.8,2H502a2.89,2.89,0,0,1,3.13-3,2.55,2.55,0,0,1,2.8,2.57c0,1.17-.67,2-2.37,3.06a7.06,7.06,0,0,0-1.68,1.26,1.93,1.93,0,0,0-.52,1.14H508v1h-6Z"/><path class="b7108439-6a84-4f04-a5cd-644ee5b524cf" d="M510.92,417.23c0-2,1.15-3.55,3.16-3.55a2.6,2.6,0,0,1,2.82,2.4h-1.24a1.49,1.49,0,0,0-1.59-1.43c-1.24,0-1.9,1-1.9,2.58s.69,2.6,1.9,2.6a1.63,1.63,0,0,0,1.68-1.49h1.17a2.62,2.62,0,0,1-2.86,2.44C512,420.78,510.92,419.35,510.92,417.23Z"/><path class="b7108439-6a84-4f04-a5cd-644ee5b524cf" d="M517.63,413.88h1.12v.86a2.28,2.28,0,0,1,2-1A1.85,1.85,0,0,1,522.6,415a2.69,2.69,0,0,1,2.38-1.23c1.54,0,2.16,1,2.16,2.48v4.37h-1.2v-3.72c0-1-.08-2.18-1.33-2.18-1.44,0-1.62,1.58-1.62,2.58v3.32h-1.2v-3.72c0-1-.09-2.18-1.34-2.18-1.44,0-1.62,1.58-1.62,2.58v3.32h-1.2Z"/><path class="b7108439-6a84-4f04-a5cd-644ee5b524cf" d="M494.87,434.54v-5.4h-2v-.85c1.47-.07,2-.48,2.15-1.58h1v7.83H498v1h-5.15v-1Z"/><path class="b7108439-6a84-4f04-a5cd-644ee5b524cf" d="M500.85,434v1.55h-1.5V434Z"/><path class="b7108439-6a84-4f04-a5cd-644ee5b524cf" d="M505.23,427.5c-1.34,0-2.15,1.28-2.15,3.26v.33a2.48,2.48,0,0,1,2.28-1.31,2.77,2.77,0,0,1,2.81,2.92,3,3,0,0,1-3.15,3.08c-2,0-3.16-1.66-3.16-4.51s1.24-4.76,3.37-4.76a2.61,2.61,0,0,1,2.85,2.45H506.8A1.45,1.45,0,0,0,505.23,427.5Zm-1.94,5.23a1.93,1.93,0,0,0,1.9,2.08,1.83,1.83,0,0,0,1.74-2.06,1.76,1.76,0,0,0-1.74-2A1.89,1.89,0,0,0,503.29,432.73Z"/><path class="b7108439-6a84-4f04-a5cd-644ee5b524cf" d="M515.17,426.71v1h-4.12l-.3,2.82a2.56,2.56,0,0,1,2.06-.94,2.86,2.86,0,0,1,2.91,3,3,3,0,0,1-3.18,3.13,2.89,2.89,0,0,1-3.1-2.56h1.25a1.72,1.72,0,0,0,1.83,1.57,1.88,1.88,0,0,0,1.93-2.08,1.91,1.91,0,0,0-1.87-2.09,1.7,1.7,0,0,0-1.75,1.24l-1.27-.12.49-5Z"/><path class="b7108439-6a84-4f04-a5cd-644ee5b524cf" d="M516.64,429.49l.63-1.95h-.56v-1.39h1.46v1.55l-.76,1.79Zm2.21,0,.63-1.95h-.56v-1.39h1.46v1.55l-.76,1.79Z"/><path class="f6c2fe14-d663-4c1c-a383-dfa3ef735113" d="M476.52,429.6l.17-.18V429l-.17-.18h-3.65v-9.07a1.12,1.12,0,0,0-1.12-1.12h-345l-.17.18v10h-3.65l-.17.18v.38l.17.18Z"/><path class="bef1bae9-36f1-4372-aac2-525ea02bdbcb" d="M472.75,429.09v-9.34a1,1,0,0,0-.95-1H126.7v10.3m349.88.39H122.87v-.39H476.58Z"/><line class="bb38b5e7-2886-46dd-88c3-4ed24722e9f6" x1="484.1" y1="421.12" x2="484.1" y2="427.16"/><polygon class="b7108439-6a84-4f04-a5cd-644ee5b524cf" points="487.14 421.52 481.06 421.52 484.1 418.49 487.14 421.52"/><polygon class="b7108439-6a84-4f04-a5cd-644ee5b524cf" points="487.14 426.75 481.06 426.75 484.1 429.79 487.14 426.75"/><line class="bb38b5e7-2886-46dd-88c3-4ed24722e9f6" x1="125.5" y1="436.6" x2="473.95" y2="436.6"/><polygon class="b7108439-6a84-4f04-a5cd-644ee5b524cf" points="125.91 433.56 125.91 439.63 122.87 436.6 125.91 433.56"/><polygon class="b7108439-6a84-4f04-a5cd-644ee5b524cf" points="473.54 433.56 473.54 439.63 476.58 436.6 473.54 433.56"/><rect class="f6f9fc37-26e2-4d45-84da-b6cfd89df1b6" width="600" height="600"/></g></g></svg>