<svg xmlns="http://www.w3.org/2000/svg" viewBox="0 0 600 600"><defs><style>.b2465543-e5fd-4d19-952e-34507c8ea84a{fill:#fff;}.a25500a4-d0e1-48d0-8cb1-57f1cdb0dd30,.a41d581b-cdcc-4cb9-aea7-2e7a2a0ff4a1,.bde194d5-f3a7-47b8-a68c-f7419d40528d,.eb1df840-4b83-43e6-9d49-f4a457d49f0b{fill:none;}.a25500a4-d0e1-48d0-8cb1-57f1cdb0dd30,.eb1df840-4b83-43e6-9d49-f4a457d49f0b{stroke:#1d1d1b;}.eb1df840-4b83-43e6-9d49-f4a457d49f0b{stroke-linecap:round;stroke-linejoin:round;}.a25500a4-d0e1-48d0-8cb1-57f1cdb0dd30,.bde194d5-f3a7-47b8-a68c-f7419d40528d,.eb1df840-4b83-43e6-9d49-f4a457d49f0b{stroke-width:0.5px;}.bde194d5-f3a7-47b8-a68c-f7419d40528d{stroke:#000;}.a25500a4-d0e1-48d0-8cb1-57f1cdb0dd30,.bde194d5-f3a7-47b8-a68c-f7419d40528d{stroke-linejoin:bevel;}.bbe6e29c-e93b-402e-ba06-f312c51ad27b{fill:#1d1d1b;}</style></defs><g id="f48c092b-bfa3-41a0-b0b9-972c12e08342" data-name="Livello 2"><g id="ae99eb49-7ee9-4739-8fba-65acf6e2cc07" data-name="Livello 1"><path class="b2465543-e5fd-4d19-952e-34507c8ea84a" d="M299.73,376.3a91.94,91.94,0,1,0-65-26.93,91.31,91.31,0,0,0,65,26.93"/><path class="eb1df840-4b83-43e6-9d49-f4a457d49f0b" d="M299.73,192.44a91.92,91.92,0,1,1-91.91,91.91A91.91,91.91,0,0,1,299.73,192.44Z"/><path class="bde194d5-f3a7-47b8-a68c-f7419d40528d" d="M269.63,208.47a1.33,1.33,0,1,0-1.33,1.32A1.33,1.33,0,0,0,269.63,208.47Z"/><path class="bde194d5-f3a7-47b8-a68c-f7419d40528d" d="M332.49,208.47a1.33,1.33,0,1,0-1.32,1.32A1.33,1.33,0,0,0,332.49,208.47Z"/><path class="bde194d5-f3a7-47b8-a68c-f7419d40528d" d="M337.46,248a1.32,1.32,0,1,0-1.32,1.32A1.32,1.32,0,0,0,337.46,248Z"/><path class="bde194d5-f3a7-47b8-a68c-f7419d40528d" d="M264.65,248a1.33,1.33,0,1,0-1.32,1.32A1.32,1.32,0,0,0,264.65,248Z"/><path class="bde194d5-f3a7-47b8-a68c-f7419d40528d" d="M326.8,284.35a1.32,1.32,0,1,0-1.32,1.32A1.32,1.32,0,0,0,326.8,284.35Z"/><path class="bde194d5-f3a7-47b8-a68c-f7419d40528d" d="M275.31,284.35a1.32,1.32,0,1,0-1.32,1.32A1.32,1.32,0,0,0,275.31,284.35Z"/><path class="bde194d5-f3a7-47b8-a68c-f7419d40528d" d="M376.94,315.79a1.33,1.33,0,1,0-1.32,1.32A1.33,1.33,0,0,0,376.94,315.79Z"/><path class="bde194d5-f3a7-47b8-a68c-f7419d40528d" d="M225.17,315.79a1.32,1.32,0,1,0-1.32,1.32A1.33,1.33,0,0,0,225.17,315.79Z"/><path class="bde194d5-f3a7-47b8-a68c-f7419d40528d" d="M337.46,320.76a1.32,1.32,0,1,0-1.32,1.32A1.32,1.32,0,0,0,337.46,320.76Z"/><path class="bde194d5-f3a7-47b8-a68c-f7419d40528d" d="M264.65,320.76a1.33,1.33,0,1,0-1.32,1.32A1.32,1.32,0,0,0,264.65,320.76Z"/><path class="bde194d5-f3a7-47b8-a68c-f7419d40528d" d="M332.49,360.24a1.33,1.33,0,1,0-1.32,1.32A1.33,1.33,0,0,0,332.49,360.24Z"/><path class="bde194d5-f3a7-47b8-a68c-f7419d40528d" d="M269.63,360.24a1.33,1.33,0,1,0-1.33,1.32A1.33,1.33,0,0,0,269.63,360.24Z"/><path class="bde194d5-f3a7-47b8-a68c-f7419d40528d" d="M376.94,252.92a1.33,1.33,0,1,0-1.32,1.32A1.33,1.33,0,0,0,376.94,252.92Z"/><path class="bde194d5-f3a7-47b8-a68c-f7419d40528d" d="M225.17,252.92a1.32,1.32,0,1,0-1.32,1.32A1.32,1.32,0,0,0,225.17,252.92Z"/><line class="eb1df840-4b83-43e6-9d49-f4a457d49f0b" x1="399.55" y1="195.03" x2="399.55" y2="373.64"/><polygon class="bbe6e29c-e93b-402e-ba06-f312c51ad27b" points="402.59 195.44 396.51 195.44 399.55 192.4 402.59 195.44"/><polygon class="bbe6e29c-e93b-402e-ba06-f312c51ad27b" points="402.59 373.23 396.51 373.23 399.55 376.27 402.59 373.23"/><path class="bbe6e29c-e93b-402e-ba06-f312c51ad27b" d="M407.51,280.93l.79-1.08a5.45,5.45,0,0,1-1.14-3.53c0-2.9,1.7-4.91,4.34-4.91a4.18,4.18,0,0,1,2.47.75l.65-.88.77.58-.7.95a5.34,5.34,0,0,1,1.17,3.51c0,2.95-1.72,4.92-4.36,4.92a4.2,4.2,0,0,1-2.47-.74l-.74,1Zm5.77-7.84a2.63,2.63,0,0,0-1.78-.67c-1.83,0-3,1.67-3,3.9a4.93,4.93,0,0,0,.59,2.47Zm1.25,3.23a4.91,4.91,0,0,0-.61-2.47l-4.2,5.72a2.63,2.63,0,0,0,1.78.65C413.35,280.22,414.53,278.56,414.53,276.32Z"/><path class="bbe6e29c-e93b-402e-ba06-f312c51ad27b" d="M423.55,273.2h-4.68v-1.05h6v.9a25.85,25.85,0,0,0-3.18,8h-1.34A27.34,27.34,0,0,1,423.55,273.2Z"/><path class="bbe6e29c-e93b-402e-ba06-f312c51ad27b" d="M431.22,278.78V281H430v-2.25H426v-1l3.88-5.64h1.39v5.6h1.6v1Zm-1.14-1V276c0-.63,0-1.83.05-2.48l-.08,0a13.39,13.39,0,0,1-.85,1.37l-2,2.88Z"/><path class="bbe6e29c-e93b-402e-ba06-f312c51ad27b" d="M435.32,277.68c0-2,1.14-3.55,3.16-3.55a2.6,2.6,0,0,1,2.82,2.39h-1.25a1.48,1.48,0,0,0-1.59-1.43c-1.23,0-1.89,1-1.89,2.59s.69,2.6,1.89,2.6a1.63,1.63,0,0,0,1.68-1.5h1.17a2.61,2.61,0,0,1-2.86,2.44C436.42,281.22,435.32,279.79,435.32,277.68Z"/><path class="bbe6e29c-e93b-402e-ba06-f312c51ad27b" d="M442,274.32h1.11v.86a2.31,2.31,0,0,1,2-1,1.84,1.84,0,0,1,1.83,1.23,2.69,2.69,0,0,1,2.38-1.23c1.55,0,2.16,1,2.16,2.48V281h-1.2v-3.72c0-1-.07-2.18-1.32-2.18-1.45,0-1.63,1.58-1.63,2.58V281h-1.19v-3.72c0-1-.09-2.18-1.34-2.18-1.45,0-1.63,1.58-1.63,2.58V281H442Z"/><path class="bbe6e29c-e93b-402e-ba06-f312c51ad27b" d="M407.51,295.93l.79-1.08a5.45,5.45,0,0,1-1.14-3.53c0-2.9,1.7-4.91,4.34-4.91a4.18,4.18,0,0,1,2.47.75l.65-.88.77.58-.7.95a5.34,5.34,0,0,1,1.17,3.51c0,2.95-1.72,4.92-4.36,4.92a4.2,4.2,0,0,1-2.47-.74l-.74,1Zm5.77-7.84a2.63,2.63,0,0,0-1.78-.67c-1.83,0-3,1.67-3,3.9a4.93,4.93,0,0,0,.59,2.47Zm1.25,3.23a4.91,4.91,0,0,0-.61-2.47l-4.2,5.72a2.63,2.63,0,0,0,1.78.65C413.35,295.22,414.53,293.56,414.53,291.32Z"/><path class="bbe6e29c-e93b-402e-ba06-f312c51ad27b" d="M418.89,295.65a3.74,3.74,0,0,1,.7-2.25,7.27,7.27,0,0,1,2-1.6c1.46-.88,2-1.45,2-2.35a1.47,1.47,0,0,0-1.65-1.51c-1.12,0-1.74.69-1.79,2h-1.23a2.89,2.89,0,0,1,3.14-3,2.54,2.54,0,0,1,2.79,2.56c0,1.17-.66,2-2.36,3.06a6.34,6.34,0,0,0-1.68,1.27,1.84,1.84,0,0,0-.52,1.13h4.6v1h-5.95Z"/><path class="bbe6e29c-e93b-402e-ba06-f312c51ad27b" d="M429.25,295.24c1.32,0,2-1.21,2-3.25v-.51a2.3,2.3,0,0,1-2.17,1.22,2.69,2.69,0,0,1-2.86-2.86,2.92,2.92,0,0,1,3.08-2.88c2.11,0,3.2,1.63,3.2,4.49,0,3.05-1.13,4.77-3.22,4.77a2.69,2.69,0,0,1-3-2.41h1.23A1.58,1.58,0,0,0,429.25,295.24Zm-1.83-5.4a1.78,1.78,0,0,0,1.76,1.89,1.9,1.9,0,0,0,0-3.8A1.78,1.78,0,0,0,427.42,289.84Z"/><path class="bbe6e29c-e93b-402e-ba06-f312c51ad27b" d="M435.06,294.48V296h-1.5v-1.55Z"/><path class="bbe6e29c-e93b-402e-ba06-f312c51ad27b" d="M438.89,295v-5.4h-2v-.84c1.47-.08,2-.49,2.16-1.59h1V295H442v1h-5.15v-1Z"/><path class="bbe6e29c-e93b-402e-ba06-f312c51ad27b" d="M446.72,295.24a1.73,1.73,0,0,0,1.88-1.67c0-1-.74-1.57-2-1.57h-.42v-1h.29c1.27,0,2-.56,2-1.54s-.7-1.52-1.77-1.52a1.74,1.74,0,0,0-1.86,1.89h-1.23a2.83,2.83,0,0,1,3.17-2.87c1.76,0,2.94,1,2.94,2.4a2.15,2.15,0,0,1-1.61,2.07v.06a2.09,2.09,0,0,1,1.74,2.16c0,1.51-1.37,2.57-3.21,2.57a2.86,2.86,0,0,1-3.14-3h1.26A1.82,1.82,0,0,0,446.72,295.24Z"/><path class="bbe6e29c-e93b-402e-ba06-f312c51ad27b" d="M450.85,289.93l.63-1.95h-.56v-1.39h1.45v1.55l-.75,1.79Zm2.21,0,.63-1.95h-.56v-1.39h1.45v1.55l-.75,1.79Z"/><path class="bbe6e29c-e93b-402e-ba06-f312c51ad27b" d="M278.07,432.53l.8-1.08a5.39,5.39,0,0,1-1.15-3.52c0-2.9,1.7-4.92,4.34-4.92a4.17,4.17,0,0,1,2.47.76l.65-.89.77.59-.7.95a5.34,5.34,0,0,1,1.17,3.51c0,2.95-1.72,4.91-4.36,4.91a4.2,4.2,0,0,1-2.47-.74l-.74,1Zm5.77-7.84a2.62,2.62,0,0,0-1.78-.66c-1.83,0-3,1.66-3,3.9a4.78,4.78,0,0,0,.6,2.47Zm1.25,3.24a4.88,4.88,0,0,0-.61-2.47l-4.2,5.72a2.68,2.68,0,0,0,1.78.65C283.91,431.83,285.09,430.16,285.09,427.93Z"/><path class="bbe6e29c-e93b-402e-ba06-f312c51ad27b" d="M294.11,424.81h-4.68v-1.06h6v.9a26.12,26.12,0,0,0-3.19,8h-1.33A27.17,27.17,0,0,1,294.11,424.81Z"/><path class="bbe6e29c-e93b-402e-ba06-f312c51ad27b" d="M303.2,428.19c0,3.06-1.25,4.64-3.25,4.64s-3.24-1.65-3.24-4.64,1.24-4.63,3.24-4.63S303.2,425.2,303.2,428.19Zm-5.21,0c0,2.31.62,3.65,2,3.65s2-1.34,2-3.65-.63-3.64-2-3.64S298,425.82,298,428.19Z"/><path class="bbe6e29c-e93b-402e-ba06-f312c51ad27b" d="M305.88,429.28c0-2,1.14-3.55,3.16-3.55a2.6,2.6,0,0,1,2.82,2.39h-1.25a1.48,1.48,0,0,0-1.59-1.43c-1.23,0-1.89,1-1.89,2.59s.69,2.6,1.89,2.6a1.62,1.62,0,0,0,1.68-1.5h1.17a2.62,2.62,0,0,1-2.86,2.45C307,432.83,305.88,431.4,305.88,429.28Z"/><path class="bbe6e29c-e93b-402e-ba06-f312c51ad27b" d="M312.59,425.92h1.12v.86a2.28,2.28,0,0,1,2-1,1.83,1.83,0,0,1,1.83,1.24,2.68,2.68,0,0,1,2.38-1.24c1.55,0,2.16,1,2.16,2.48v4.37h-1.2v-3.72c0-1-.07-2.18-1.32-2.18-1.45,0-1.63,1.59-1.63,2.59v3.31h-1.19v-3.72c0-1-.09-2.18-1.34-2.18-1.45,0-1.63,1.59-1.63,2.59v3.31h-1.19Z"/><path class="bbe6e29c-e93b-402e-ba06-f312c51ad27b" d="M276.72,447.53l.79-1.08a5.44,5.44,0,0,1-1.14-3.52c0-2.9,1.7-4.92,4.34-4.92a4.21,4.21,0,0,1,2.47.76l.65-.89.77.59-.7.95a5.34,5.34,0,0,1,1.17,3.51c0,2.95-1.72,4.91-4.36,4.91a4.2,4.2,0,0,1-2.47-.74l-.74,1Zm5.77-7.84a2.64,2.64,0,0,0-1.78-.66c-1.83,0-3,1.66-3,3.9a4.88,4.88,0,0,0,.59,2.47Zm1.25,3.24a4.88,4.88,0,0,0-.61-2.47l-4.2,5.72a2.68,2.68,0,0,0,1.78.65C282.56,446.83,283.74,445.16,283.74,442.93Z"/><path class="bbe6e29c-e93b-402e-ba06-f312c51ad27b" d="M288.09,447.25a3.63,3.63,0,0,1,.71-2.24,7.09,7.09,0,0,1,2-1.6c1.46-.89,2-1.46,2-2.36a1.46,1.46,0,0,0-1.65-1.5c-1.12,0-1.74.68-1.8,2h-1.22a2.89,2.89,0,0,1,3.13-3,2.55,2.55,0,0,1,2.8,2.56c0,1.17-.66,2-2.37,3.07a6.46,6.46,0,0,0-1.67,1.26,1.82,1.82,0,0,0-.52,1.13h4.6v1.05h-6Z"/><path class="bbe6e29c-e93b-402e-ba06-f312c51ad27b" d="M300.3,439.81h-4.68v-1.06h6v.9a25.87,25.87,0,0,0-3.19,8H297.1A27.21,27.21,0,0,1,300.3,439.81Z"/><path class="bbe6e29c-e93b-402e-ba06-f312c51ad27b" d="M304.27,446.08v1.55h-1.5v-1.55Z"/><path class="bbe6e29c-e93b-402e-ba06-f312c51ad27b" d="M311.05,438.75v1h-4.12l-.3,2.82a2.54,2.54,0,0,1,2.06-.93,2.86,2.86,0,0,1,2.91,3,3.05,3.05,0,0,1-3.19,3.14,2.89,2.89,0,0,1-3.09-2.56h1.25a1.72,1.72,0,0,0,1.83,1.57,1.88,1.88,0,0,0,1.92-2.08,1.9,1.9,0,0,0-1.87-2.09,1.7,1.7,0,0,0-1.74,1.23l-1.27-.12.49-5Z"/><path class="bbe6e29c-e93b-402e-ba06-f312c51ad27b" d="M318.59,438.75v1h-4.12l-.3,2.82a2.54,2.54,0,0,1,2.06-.93,2.86,2.86,0,0,1,2.91,3,3.05,3.05,0,0,1-3.19,3.14,2.89,2.89,0,0,1-3.09-2.56h1.25a1.72,1.72,0,0,0,1.83,1.57,1.88,1.88,0,0,0,1.92-2.08,1.9,1.9,0,0,0-1.87-2.09,1.7,1.7,0,0,0-1.74,1.23l-1.27-.12.49-5Z"/><path class="bbe6e29c-e93b-402e-ba06-f312c51ad27b" d="M320.06,441.54l.63-2h-.56v-1.39h1.45v1.55l-.75,1.8Zm2.21,0,.63-2h-.56v-1.39h1.45v1.55l-.75,1.8Z"/><path class="bbe6e29c-e93b-402e-ba06-f312c51ad27b" d="M412.46,396.16v2.24h-1.2v-2.24h-4.07v-1l3.88-5.65h1.39v5.61h1.6v1Zm-1.14-1v-1.76c0-.62,0-1.83.05-2.48h-.08a13.27,13.27,0,0,1-.85,1.36l-2,2.89Z"/><path class="bbe6e29c-e93b-402e-ba06-f312c51ad27b" d="M416.3,396.86v1.54h-1.5v-1.54Z"/><path class="bbe6e29c-e93b-402e-ba06-f312c51ad27b" d="M417.48,398a3.64,3.64,0,0,1,.71-2.25,6.93,6.93,0,0,1,2-1.6c1.46-.89,2-1.46,2-2.35a1.47,1.47,0,0,0-1.65-1.51c-1.12,0-1.75.69-1.8,2h-1.22a2.89,2.89,0,0,1,3.13-3,2.55,2.55,0,0,1,2.8,2.56c0,1.17-.66,2-2.37,3.07a6.71,6.71,0,0,0-1.67,1.26,1.88,1.88,0,0,0-.53,1.13h4.61v1h-6Z"/><path class="bbe6e29c-e93b-402e-ba06-f312c51ad27b" d="M426.38,395.05c0-2,1.14-3.55,3.15-3.55a2.6,2.6,0,0,1,2.83,2.39h-1.25a1.49,1.49,0,0,0-1.59-1.43c-1.23,0-1.9,1-1.9,2.59s.69,2.6,1.9,2.6a1.63,1.63,0,0,0,1.68-1.49h1.17a2.62,2.62,0,0,1-2.86,2.44C427.48,398.6,426.38,397.17,426.38,395.05Z"/><path class="bbe6e29c-e93b-402e-ba06-f312c51ad27b" d="M433.08,391.7h1.12v.85a2.31,2.31,0,0,1,2-1,1.85,1.85,0,0,1,1.83,1.24,2.7,2.7,0,0,1,2.38-1.24c1.54,0,2.16,1,2.16,2.49v4.36h-1.2v-3.71c0-1-.08-2.19-1.33-2.19-1.44,0-1.62,1.59-1.62,2.59v3.31h-1.2v-3.71c0-1-.09-2.19-1.34-2.19-1.44,0-1.62,1.59-1.62,2.59v3.31h-1.2Z"/><path class="bbe6e29c-e93b-402e-ba06-f312c51ad27b" d="M410.32,412.35V407h-2v-.85c1.47-.08,2-.48,2.16-1.59h1v7.83h1.91v1h-5.15v-1Z"/><path class="bbe6e29c-e93b-402e-ba06-f312c51ad27b" d="M416.3,411.86v1.54h-1.5v-1.54Z"/><path class="bbe6e29c-e93b-402e-ba06-f312c51ad27b" d="M420.68,405.32c-1.34,0-2.14,1.27-2.14,3.26v.33a2.44,2.44,0,0,1,2.27-1.32,2.77,2.77,0,0,1,2.81,2.93,3,3,0,0,1-3.15,3.08c-2,0-3.16-1.67-3.16-4.51s1.24-4.76,3.37-4.76a2.61,2.61,0,0,1,2.85,2.44h-1.28A1.44,1.44,0,0,0,420.68,405.32Zm-1.94,5.22a1.93,1.93,0,0,0,1.9,2.08,1.83,1.83,0,0,0,1.74-2.05,1.76,1.76,0,0,0-1.74-2A1.88,1.88,0,0,0,418.74,410.54Z"/><path class="bbe6e29c-e93b-402e-ba06-f312c51ad27b" d="M430.63,404.52v1H426.5l-.29,2.83a2.54,2.54,0,0,1,2.05-.94,2.86,2.86,0,0,1,2.91,3A3,3,0,0,1,428,413.6a2.89,2.89,0,0,1-3.1-2.56h1.25a1.73,1.73,0,0,0,1.83,1.57,1.89,1.89,0,0,0,1.93-2.08,1.91,1.91,0,0,0-1.87-2.09,1.7,1.7,0,0,0-1.75,1.23l-1.27-.11.49-5Z"/><path class="bbe6e29c-e93b-402e-ba06-f312c51ad27b" d="M432.09,407.31l.63-1.95h-.56V404h1.46v1.54l-.76,1.8Zm2.21,0,.63-1.95h-.56V404h1.46v1.54l-.76,1.8Z"/><path class="b2465543-e5fd-4d19-952e-34507c8ea84a" d="M392,407.41l.17-.17v-.39l-.17-.17h-3.65v-9.07a1.12,1.12,0,0,0-1.12-1.12H211.82l-.18.17v10H208l-.17.17v.39l.17.17Z"/><path class="a25500a4-d0e1-48d0-8cb1-57f1cdb0dd30" d="M388.2,406.91v-9.35a1,1,0,0,0-.95-1H211.76v10.31M392,407.3H207.94v-.39H392Z"/><line class="eb1df840-4b83-43e6-9d49-f4a457d49f0b" x1="399.55" y1="398.93" x2="399.55" y2="404.97"/><polygon class="bbe6e29c-e93b-402e-ba06-f312c51ad27b" points="402.59 399.34 396.51 399.34 399.55 396.3 402.59 399.34"/><polygon class="bbe6e29c-e93b-402e-ba06-f312c51ad27b" points="402.59 404.56 396.51 404.56 399.55 407.6 402.59 404.56"/><line class="eb1df840-4b83-43e6-9d49-f4a457d49f0b" x1="210.56" y1="414.41" x2="389.4" y2="414.41"/><polygon class="bbe6e29c-e93b-402e-ba06-f312c51ad27b" points="210.97 411.38 210.97 417.45 207.94 414.41 210.97 411.38"/><polygon class="bbe6e29c-e93b-402e-ba06-f312c51ad27b" points="388.99 411.38 388.99 417.45 392.03 414.41 388.99 411.38"/><rect class="a41d581b-cdcc-4cb9-aea7-2e7a2a0ff4a1" width="600" height="600"/></g></g></svg>