<?xml version="1.0" encoding="utf-8"?>
<!-- Generator: Adobe Illustrator 26.0.3, SVG Export Plug-In . SVG Version: 6.00 Build 0)  -->
<svg version="1.1" id="Livello_1" xmlns="http://www.w3.org/2000/svg" xmlns:xlink="http://www.w3.org/1999/xlink" x="0px" y="0px"
	 viewBox="0 0 600 600" style="enable-background:new 0 0 600 600;" xml:space="preserve">
<style type="text/css">
	.st0{fill:none;stroke:#1D1D1B;stroke-width:0.5;stroke-linecap:round;stroke-linejoin:round;}
	.st1{fill:#1D1D1B;}
	.st2{fill:#FFFFFF;}
	.st3{fill:none;stroke:#1D1D1B;stroke-width:0.5;stroke-linejoin:bevel;stroke-miterlimit:22.926;}
	.st4{fill:#FFFFFF;stroke:#1D1D1B;stroke-width:0.5;stroke-linecap:round;stroke-linejoin:round;stroke-miterlimit:22.926;}
	.st5{fill:none;}
</style>
<g>
	<g>
		<g>
			<line class="st0" x1="369.9" y1="222.8" x2="369.9" y2="344.7"/>
			<g>
				<polygon class="st1" points="372.9,223.2 366.8,223.2 369.9,220.2 				"/>
			</g>
			<g>
				<polygon class="st1" points="372.9,344.3 366.8,344.3 369.9,347.4 				"/>
			</g>
		</g>
	</g>
	<g>
		<g>
			<path class="st1" d="M377.8,280.1l0.8-1.1c-0.7-0.9-1.1-2.1-1.1-3.5c0-2.9,1.7-4.9,4.3-4.9c1,0,1.8,0.3,2.5,0.8l0.6-0.9l0.8,0.6
				L385,272c0.7,0.9,1.2,2.1,1.2,3.5c0,3-1.7,4.9-4.4,4.9c-1,0-1.8-0.3-2.5-0.7l-0.7,1L377.8,280.1z M383.6,272.3
				c-0.5-0.4-1.1-0.7-1.8-0.7c-1.8,0-3,1.7-3,3.9c0,1,0.2,1.8,0.6,2.5L383.6,272.3z M384.8,275.5c0-0.9-0.2-1.8-0.6-2.5l-4.2,5.7
				c0.5,0.4,1.1,0.6,1.8,0.6C383.7,279.4,384.8,277.8,384.8,275.5z"/>
			<path class="st1" d="M394.8,271.4v1h-4.1l-0.3,2.8c0.6-0.7,1.2-0.9,2.1-0.9c1.7,0,2.9,1.3,2.9,3c0,1.8-1.3,3.1-3.2,3.1
				c-1.7,0-2.9-1-3.1-2.6h1.2c0.1,1,0.8,1.6,1.8,1.6c1.2,0,1.9-0.8,1.9-2.1c0-1.2-0.8-2.1-1.9-2.1c-0.9,0-1.5,0.4-1.7,1.2l-1.3-0.1
				l0.5-5H394.8z"/>
			<path class="st1" d="M402.9,275.8c0,3.1-1.2,4.6-3.2,4.6s-3.2-1.7-3.2-4.6c0-3,1.2-4.6,3.2-4.6S402.9,272.8,402.9,275.8z
				 M397.7,275.8c0,2.3,0.6,3.7,2,3.7c1.3,0,2-1.3,2-3.7c0-2.4-0.6-3.6-2-3.6C398.4,272.1,397.7,273.4,397.7,275.8z"/>
			<path class="st1" d="M405.6,276.9c0-2,1.1-3.5,3.2-3.5c1.6,0,2.6,0.9,2.8,2.4h-1.2c-0.1-0.9-0.7-1.4-1.6-1.4
				c-1.2,0-1.9,1-1.9,2.6c0,1.6,0.7,2.6,1.9,2.6c0.9,0,1.5-0.5,1.7-1.5h1.2c-0.3,1.6-1.2,2.4-2.9,2.4
				C406.7,280.4,405.6,279,405.6,276.9z"/>
			<path class="st1" d="M412.3,273.5h1.1v0.9c0.4-0.6,1.1-1,2-1c0.8,0,1.5,0.4,1.8,1.2c0.6-0.9,1.4-1.2,2.4-1.2c1.5,0,2.2,1,2.2,2.5
				v4.4h-1.2v-3.7c0-1-0.1-2.2-1.3-2.2c-1.4,0-1.6,1.6-1.6,2.6v3.3h-1.2v-3.7c0-1-0.1-2.2-1.3-2.2c-1.4,0-1.6,1.6-1.6,2.6v3.3h-1.2
				V273.5z"/>
			<path class="st1" d="M377.8,295.1l0.8-1.1c-0.7-0.9-1.1-2.1-1.1-3.5c0-2.9,1.7-4.9,4.3-4.9c1,0,1.8,0.3,2.5,0.8l0.6-0.9l0.8,0.6
				L385,287c0.7,0.9,1.2,2.1,1.2,3.5c0,3-1.7,4.9-4.4,4.9c-1,0-1.8-0.3-2.5-0.7l-0.7,1L377.8,295.1z M383.6,287.3
				c-0.5-0.4-1.1-0.7-1.8-0.7c-1.8,0-3,1.7-3,3.9c0,1,0.2,1.8,0.6,2.5L383.6,287.3z M384.8,290.5c0-0.9-0.2-1.8-0.6-2.5l-4.2,5.7
				c0.5,0.4,1.1,0.6,1.8,0.6C383.7,294.4,384.8,292.8,384.8,290.5z"/>
			<path class="st1" d="M391.8,294.2v-5.4h-2v-0.8c1.5-0.1,2-0.5,2.2-1.6h1v7.8h1.9v1.1h-5.1v-1.1H391.8z"/>
			<path class="st1" d="M399.6,294.4c1.3,0,2-1.2,2-3.2v-0.5c-0.5,0.8-1.2,1.2-2.2,1.2c-1.7,0-2.9-1.1-2.9-2.9
				c0-1.7,1.4-2.9,3.1-2.9c2.1,0,3.2,1.6,3.2,4.5c0,3-1.1,4.8-3.2,4.8c-1.7,0-2.8-0.9-3-2.4h1.2C398,293.9,398.6,294.4,399.6,294.4z
				 M397.7,289c0,1.1,0.7,1.9,1.8,1.9c1.1,0,1.9-0.8,1.9-1.9c0-1.1-0.8-1.9-1.8-1.9C398.5,287.1,397.7,287.9,397.7,289z"/>
			<path class="st1" d="M405.4,293.7v1.5h-1.5v-1.5H405.4z"/>
			<path class="st1" d="M409.7,287.1c-1.3,0-2.1,1.3-2.1,3.3v0.3c0.5-0.9,1.3-1.3,2.3-1.3c1.5,0,2.8,1.1,2.8,2.9
				c0,1.9-1.4,3.1-3.1,3.1c-2,0-3.2-1.7-3.2-4.5c0-3,1.2-4.8,3.4-4.8c1.6,0,2.7,0.9,2.8,2.4h-1.3
				C411.2,287.6,410.7,287.1,409.7,287.1z M407.8,292.4c0,1.2,0.8,2.1,1.9,2.1c1,0,1.7-0.9,1.7-2.1c0-1.2-0.7-2-1.7-2
				C408.6,290.4,407.8,291.2,407.8,292.4z"/>
			<path class="st1" d="M413.9,292.9c0-1.2,0.6-1.9,1.9-2.2v-0.1c-1-0.2-1.6-1-1.6-2c0-1.4,1.2-2.4,3-2.4c1.8,0,2.9,1,2.9,2.4
				c0,1-0.6,1.8-1.6,2v0.1c1.3,0.3,1.9,1,1.9,2.2c0,1.5-1.3,2.6-3.2,2.6C415.2,295.4,413.9,294.4,413.9,292.9z M419,292.8
				c0-1-0.8-1.7-1.9-1.7c-1.2,0-1.9,0.6-1.9,1.7c0,1,0.8,1.7,1.9,1.7C418.2,294.5,419,293.8,419,292.8z M418.8,288.6
				c0-0.9-0.7-1.5-1.7-1.5c-1.1,0-1.8,0.6-1.8,1.5c0,0.9,0.7,1.5,1.8,1.5S418.8,289.6,418.8,288.6z"/>
			<path class="st1" d="M421.2,289.1l0.6-2h-0.6v-1.4h1.5v1.5l-0.8,1.8H421.2z M423.4,289.1l0.6-2h-0.6v-1.4h1.5v1.5l-0.8,1.8H423.4
				z"/>
		</g>
	</g>
	<g>
		<path class="st1" d="M277,403.7l0.8-1.1c-0.7-0.9-1.1-2.1-1.1-3.5c0-2.9,1.7-4.9,4.3-4.9c1,0,1.8,0.3,2.5,0.8l0.6-0.9l0.8,0.6
			l-0.7,0.9c0.7,0.9,1.2,2.1,1.2,3.5c0,3-1.7,4.9-4.4,4.9c-1,0-1.8-0.3-2.5-0.7l-0.7,1L277,403.7z M282.8,395.9
			c-0.5-0.4-1.1-0.7-1.8-0.7c-1.8,0-3,1.7-3,3.9c0,1,0.2,1.8,0.6,2.5L282.8,395.9z M284.1,399.1c0-0.9-0.2-1.8-0.6-2.5l-4.2,5.7
			c0.5,0.4,1.1,0.7,1.8,0.7C282.9,403,284.1,401.3,284.1,399.1z"/>
		<path class="st1" d="M293.2,401.6v2.2H292v-2.2h-4.1v-1l3.9-5.6h1.4v5.6h1.6v1H293.2z M292.1,400.5v-1.8c0-0.6,0-1.8,0.1-2.5
			l-0.1,0c-0.3,0.5-0.5,0.9-0.9,1.4l-2,2.9H292.1z"/>
		<path class="st1" d="M300.6,396h-4.7v-1.1h6v0.9c-1.4,2.5-2.6,5-3.2,8h-1.3C298,401.2,299.1,398.6,300.6,396z"/>
		<path class="st1" d="M304.8,400.5c0-2,1.1-3.5,3.2-3.5c1.6,0,2.6,0.9,2.8,2.4h-1.2c-0.1-0.9-0.7-1.4-1.6-1.4c-1.2,0-1.9,1-1.9,2.6
			c0,1.6,0.7,2.6,1.9,2.6c0.9,0,1.5-0.5,1.7-1.5h1.2c-0.3,1.6-1.2,2.4-2.9,2.4C305.9,404,304.8,402.6,304.8,400.5z"/>
		<path class="st1" d="M311.6,397.1h1.1v0.9c0.4-0.6,1.1-1,2-1c0.8,0,1.5,0.4,1.8,1.2c0.6-0.9,1.4-1.2,2.4-1.2c1.5,0,2.2,1,2.2,2.5
			v4.4h-1.2v-3.7c0-1-0.1-2.2-1.3-2.2c-1.4,0-1.6,1.6-1.6,2.6v3.3h-1.2v-3.7c0-1-0.1-2.2-1.3-2.2c-1.4,0-1.6,1.6-1.6,2.6v3.3h-1.2
			V397.1z"/>
		<path class="st1" d="M275.7,418.7l0.8-1.1c-0.7-0.9-1.1-2.1-1.1-3.5c0-2.9,1.7-4.9,4.3-4.9c1,0,1.8,0.3,2.5,0.8l0.6-0.9l0.8,0.6
			l-0.7,0.9c0.7,0.9,1.2,2.1,1.2,3.5c0,3-1.7,4.9-4.4,4.9c-1,0-1.8-0.3-2.5-0.7l-0.7,1L275.7,418.7z M281.5,410.9
			c-0.5-0.4-1.1-0.7-1.8-0.7c-1.8,0-3,1.7-3,3.9c0,1,0.2,1.8,0.6,2.5L281.5,410.9z M282.7,414.1c0-0.9-0.2-1.8-0.6-2.5l-4.2,5.7
			c0.5,0.4,1.1,0.7,1.8,0.7C281.5,418,282.7,416.3,282.7,414.1z"/>
		<path class="st1" d="M289.7,417.8v-5.4h-2v-0.8c1.5-0.1,2-0.5,2.2-1.6h1v7.8h1.9v1.1h-5.1v-1.1H289.7z"/>
		<path class="st1" d="M294.4,416.4c0-1.2,0.6-1.9,1.9-2.2v-0.1c-1-0.2-1.6-1-1.6-2c0-1.4,1.2-2.4,3-2.4s2.9,1,2.9,2.4
			c0,1-0.6,1.8-1.6,2v0.1c1.3,0.3,1.9,1,1.9,2.2c0,1.5-1.3,2.6-3.2,2.6C295.7,419,294.4,417.9,294.4,416.4z M299.5,416.4
			c0-1-0.8-1.7-1.9-1.7c-1.2,0-1.9,0.6-1.9,1.7c0,1,0.8,1.7,1.9,1.7C298.7,418,299.5,417.3,299.5,416.4z M299.3,412.2
			c0-0.9-0.7-1.5-1.7-1.5s-1.8,0.6-1.8,1.5c0,0.9,0.7,1.5,1.8,1.5S299.3,413.1,299.3,412.2z"/>
		<path class="st1" d="M303.2,417.3v1.5h-1.5v-1.5H303.2z"/>
		<path class="st1" d="M310,409.9v1h-4.1l-0.3,2.8c0.6-0.7,1.2-0.9,2.1-0.9c1.7,0,2.9,1.3,2.9,3c0,1.8-1.3,3.1-3.2,3.1
			c-1.7,0-2.9-1-3.1-2.6h1.2c0.1,1,0.8,1.6,1.8,1.6c1.2,0,1.9-0.8,1.9-2.1c0-1.2-0.8-2.1-1.9-2.1c-0.9,0-1.5,0.4-1.7,1.2l-1.3-0.1
			l0.5-5H310z"/>
		<path class="st1" d="M318.2,414.4c0,3.1-1.2,4.6-3.2,4.6s-3.2-1.7-3.2-4.6s1.2-4.6,3.2-4.6S318.2,411.4,318.2,414.4z M313,414.4
			c0,2.3,0.6,3.7,2,3.7c1.3,0,2-1.3,2-3.7c0-2.4-0.6-3.6-2-3.6C313.6,410.7,313,412,313,414.4z"/>
		<path class="st1" d="M319,412.7l0.6-2h-0.6v-1.4h1.5v1.5l-0.8,1.8H319z M321.2,412.7l0.6-2h-0.6v-1.4h1.5v1.5l-0.8,1.8H321.2z"/>
	</g>
	<g>
		<path class="st1" d="M382.8,367.3v2.2h-1.2v-2.2h-4.1v-1l3.9-5.6h1.4v5.6h1.6v1H382.8z M381.6,366.3v-1.8c0-0.6,0-1.8,0.1-2.5
			l-0.1,0c-0.3,0.5-0.5,0.9-0.9,1.4l-2,2.9H381.6z"/>
		<path class="st1" d="M386.6,368v1.5h-1.5V368H386.6z"/>
		<path class="st1" d="M387.8,369.2c0-0.8,0.3-1.7,0.7-2.2c0.4-0.5,0.9-0.9,2-1.6c1.5-0.9,2-1.5,2-2.4c0-1-0.7-1.5-1.7-1.5
			c-1.1,0-1.7,0.7-1.8,2h-1.2c0-1.9,1.3-3,3.1-3c1.7,0,2.8,1.1,2.8,2.6c0,1.2-0.7,2-2.4,3.1c-1.1,0.7-1.4,0.9-1.7,1.3
			c-0.3,0.3-0.5,0.6-0.5,1.1h4.6v1.1h-6V369.2z"/>
		<path class="st1" d="M396.7,366.2c0-2,1.1-3.5,3.2-3.5c1.6,0,2.6,0.9,2.8,2.4h-1.2c-0.1-0.9-0.7-1.4-1.6-1.4c-1.2,0-1.9,1-1.9,2.6
			c0,1.6,0.7,2.6,1.9,2.6c0.9,0,1.5-0.5,1.7-1.5h1.2c-0.3,1.6-1.2,2.4-2.9,2.4C397.8,369.8,396.7,368.3,396.7,366.2z"/>
		<path class="st1" d="M403.4,362.9h1.1v0.9c0.4-0.6,1.1-1,2-1c0.8,0,1.5,0.4,1.8,1.2c0.6-0.9,1.4-1.2,2.4-1.2c1.5,0,2.2,1,2.2,2.5
			v4.4h-1.2v-3.7c0-1-0.1-2.2-1.3-2.2c-1.4,0-1.6,1.6-1.6,2.6v3.3h-1.2v-3.7c0-1-0.1-2.2-1.3-2.2c-1.4,0-1.6,1.6-1.6,2.6v3.3h-1.2
			V362.9z"/>
		<path class="st1" d="M380.6,383.5v-5.4h-2v-0.8c1.5-0.1,2-0.5,2.2-1.6h1v7.8h1.9v1.1h-5.1v-1.1H380.6z"/>
		<path class="st1" d="M386.6,383v1.5h-1.5V383H386.6z"/>
		<path class="st1" d="M391,376.5c-1.3,0-2.1,1.3-2.1,3.3v0.3c0.5-0.9,1.3-1.3,2.3-1.3c1.5,0,2.8,1.1,2.8,2.9c0,1.9-1.4,3.1-3.1,3.1
			c-2,0-3.2-1.7-3.2-4.5c0-3,1.2-4.8,3.4-4.8c1.6,0,2.7,0.9,2.8,2.4h-1.3C392.5,377,391.9,376.5,391,376.5z M389.1,381.7
			c0,1.2,0.8,2.1,1.9,2.1c1,0,1.7-0.9,1.7-2.1c0-1.2-0.7-2-1.7-2C389.9,379.8,389.1,380.6,389.1,381.7z"/>
		<path class="st1" d="M400.9,375.7v1h-4.1l-0.3,2.8c0.6-0.6,1.2-0.9,2.1-0.9c1.7,0,2.9,1.3,2.9,3c0,1.8-1.3,3.1-3.2,3.1
			c-1.7,0-2.9-1-3.1-2.6h1.2c0.1,1,0.8,1.6,1.8,1.6c1.2,0,1.9-0.8,1.9-2.1c0-1.2-0.8-2.1-1.9-2.1c-0.9,0-1.5,0.4-1.7,1.2l-1.3-0.1
			l0.5-5H400.9z"/>
		<path class="st1" d="M402.4,378.5l0.6-2h-0.6v-1.4h1.5v1.5l-0.8,1.8H402.4z M404.6,378.5l0.6-2h-0.6v-1.4h1.5v1.5l-0.8,1.8H404.6z
			"/>
	</g>
	<g>
		<path class="st2" d="M362.3,378.6l0.2-0.2V378l-0.2-0.2h-3.6v-9.1c0-0.6-0.5-1.1-1.1-1.1H239.6l-0.2,0.2v10h-3.7l-0.2,0.2v0.4
			l0.2,0.2H362.3z"/>
		<path class="st3" d="M358.5,378.1v-9.3c0-0.5-0.4-1-0.9-1h-118v10.3 M362.3,378.5H235.7v-0.4h126.6V378.5z"/>
	</g>
	<g>
		<g>
			<line class="st0" x1="369.9" y1="370.1" x2="369.9" y2="376.1"/>
			<g>
				<polygon class="st1" points="372.9,370.5 366.8,370.5 369.9,367.5 				"/>
			</g>
			<g>
				<polygon class="st1" points="372.9,375.7 366.8,375.7 369.9,378.8 				"/>
			</g>
		</g>
	</g>
	<g>
		<g>
			<g>
				<line class="st0" x1="238.4" y1="385.6" x2="359.7" y2="385.6"/>
				<g>
					<polygon class="st1" points="238.8,382.6 238.8,388.6 235.7,385.6 					"/>
				</g>
				<g>
					<polygon class="st1" points="359.3,382.6 359.3,388.6 362.3,385.6 					"/>
				</g>
			</g>
		</g>
	</g>
	<g>
		<g>
			<path class="st4" d="M362.4,283.6c0-35-28.4-63.4-63.4-63.4c-35,0-63.4,28.4-63.4,63.4c0,35,28.4,63.4,63.4,63.4
				C334,347,362.4,318.6,362.4,283.6z M300.3,283.6c0-0.7-0.6-1.3-1.3-1.3c-0.7,0-1.3,0.6-1.3,1.3s0.6,1.3,1.3,1.3
				C299.7,284.9,300.3,284.3,300.3,283.6z M250.9,304.1c0-0.7-0.6-1.3-1.3-1.3c-0.7,0-1.3,0.6-1.3,1.3s0.6,1.3,1.3,1.3
				C250.3,305.4,250.9,304.8,250.9,304.1z M279.9,333c0-0.7-0.6-1.3-1.3-1.3c-0.7,0-1.3,0.6-1.3,1.3c0,0.7,0.6,1.3,1.3,1.3
				C279.3,334.3,279.9,333.7,279.9,333z M320.8,333c0-0.7-0.6-1.3-1.3-1.3c-0.7,0-1.3,0.6-1.3,1.3c0,0.7,0.6,1.3,1.3,1.3
				C320.2,334.3,320.8,333.7,320.8,333z M349.7,263.1c0-0.7-0.6-1.3-1.3-1.3c-0.7,0-1.3,0.6-1.3,1.3s0.6,1.3,1.3,1.3
				C349.2,264.4,349.7,263.8,349.7,263.1z M349.7,304.1c0-0.7-0.6-1.3-1.3-1.3c-0.7,0-1.3,0.6-1.3,1.3s0.6,1.3,1.3,1.3
				C349.2,305.4,349.7,304.8,349.7,304.1z M320.8,234.2c0-0.7-0.6-1.3-1.3-1.3c-0.7,0-1.3,0.6-1.3,1.3c0,0.7,0.6,1.3,1.3,1.3
				C320.2,235.5,320.8,234.9,320.8,234.2z M250.9,263.1c0-0.7-0.6-1.3-1.3-1.3c-0.7,0-1.3,0.6-1.3,1.3c0,0.7,0.6,1.3,1.3,1.3
				C250.3,264.4,250.9,263.8,250.9,263.1z M279.9,234.2c0-0.7-0.6-1.3-1.3-1.3c-0.7,0-1.3,0.6-1.3,1.3c0,0.7,0.6,1.3,1.3,1.3
				C279.3,235.5,279.9,234.9,279.9,234.2z"/>
		</g>
	</g>
</g>
<rect x="0.2" y="-0.5" class="st5" width="600" height="600"/>
</svg>
