<svg xmlns="http://www.w3.org/2000/svg" viewBox="0 0 600 600"><defs><style>.b62f61b8-fc44-4ab5-a4ee-da5327240cf9{fill:#fff;}.a3c297e2-b2b5-40f1-aea1-308f0d71cd02,.b51f150a-429a-46c6-abf9-67135eabccc6,.eb6be304-8602-4047-b561-0c31eb296e68{fill:none;}.a3c297e2-b2b5-40f1-aea1-308f0d71cd02,.eb6be304-8602-4047-b561-0c31eb296e68{stroke:#1d1d1b;stroke-width:0.5px;}.a3c297e2-b2b5-40f1-aea1-308f0d71cd02{stroke-linejoin:bevel;}.eb6be304-8602-4047-b561-0c31eb296e68{stroke-linecap:round;stroke-linejoin:round;}.a2fce6ce-1429-47d9-9ab6-dc3d0711fea0{fill:#1d1d1b;}</style></defs><g id="b8f35815-86b4-407b-ac46-b2a026b48e74" data-name="Livello 2"><g id="af42fe63-e6be-4f97-9298-58c71e126b32" data-name="Livello 1"><path class="b62f61b8-fc44-4ab5-a4ee-da5327240cf9" d="M300,236.17a48.18,48.18,0,1,0,48.18,48.18A48.23,48.23,0,0,0,300,236.17"/><path class="a3c297e2-b2b5-40f1-aea1-308f0d71cd02" d="M311.45,315.63a1.33,1.33,0,1,0-1.33,1.33A1.33,1.33,0,0,0,311.45,315.63Zm-36.77-11.95a1.33,1.33,0,0,0-2.66,0,1.33,1.33,0,1,0,2.66,0Zm0-38.66a1.33,1.33,0,1,0-1.33,1.33A1.33,1.33,0,0,0,274.68,265Zm36.77-11.95a1.33,1.33,0,1,0-1.33,1.33A1.33,1.33,0,0,0,311.45,253.07Zm22.73,31.28a1.33,1.33,0,1,0-1.33,1.33A1.34,1.34,0,0,0,334.18,284.35Zm13.85,0A48.07,48.07,0,1,0,300,332.42,48.07,48.07,0,0,0,348,284.35Z"/><line class="eb6be304-8602-4047-b561-0c31eb296e68" x1="355.14" y1="238.8" x2="355.14" y2="329.79"/><polygon class="a2fce6ce-1429-47d9-9ab6-dc3d0711fea0" points="358.18 239.21 352.1 239.21 355.14 236.17 358.18 239.21"/><polygon class="a2fce6ce-1429-47d9-9ab6-dc3d0711fea0" points="358.18 329.38 352.1 329.38 355.14 332.42 358.18 329.38"/><path class="a2fce6ce-1429-47d9-9ab6-dc3d0711fea0" d="M363.1,280.7l.8-1.08a5.39,5.39,0,0,1-1.15-3.52c0-2.9,1.71-4.92,4.34-4.92a4.17,4.17,0,0,1,2.47.76l.65-.89.77.59-.7.95a5.34,5.34,0,0,1,1.17,3.51c0,2.95-1.72,4.91-4.36,4.91a4.2,4.2,0,0,1-2.47-.74l-.74,1Zm5.78-7.84a2.67,2.67,0,0,0-1.79-.66c-1.83,0-3,1.66-3,3.9a4.88,4.88,0,0,0,.6,2.47Zm1.24,3.24a4.88,4.88,0,0,0-.61-2.47l-4.2,5.72a2.68,2.68,0,0,0,1.78.65C368.94,280,370.12,278.33,370.12,276.1Z"/><path class="a2fce6ce-1429-47d9-9ab6-dc3d0711fea0" d="M377.42,280a1.72,1.72,0,0,0,1.88-1.66c0-1-.74-1.58-1.95-1.58h-.43v-1h.3c1.26,0,2-.56,2-1.53s-.7-1.52-1.77-1.52a1.73,1.73,0,0,0-1.86,1.88h-1.24a2.85,2.85,0,0,1,3.18-2.87c1.75,0,2.94,1,2.94,2.4a2.14,2.14,0,0,1-1.62,2.07v.07a2.08,2.08,0,0,1,1.75,2.15c0,1.51-1.37,2.58-3.22,2.58a2.86,2.86,0,0,1-3.13-3h1.26A1.81,1.81,0,0,0,377.42,280Z"/><path class="a2fce6ce-1429-47d9-9ab6-dc3d0711fea0" d="M381.8,278.44a2.09,2.09,0,0,1,1.86-2.21v-.07a2,2,0,0,1-1.62-2c0-1.45,1.19-2.42,3-2.42s2.93,1,2.93,2.42a1.94,1.94,0,0,1-1.61,2v.07a2.09,2.09,0,0,1,1.87,2.21c0,1.49-1.32,2.56-3.19,2.56S381.8,279.93,381.8,278.44Zm5.11-.08a1.69,1.69,0,0,0-1.91-1.65c-1.16,0-1.93.65-1.93,1.65a1.94,1.94,0,0,0,3.84,0Zm-.17-4.16a1.77,1.77,0,0,0-3.5,0,1.56,1.56,0,0,0,1.76,1.51A1.54,1.54,0,0,0,386.74,274.2Z"/><path class="a2fce6ce-1429-47d9-9ab6-dc3d0711fea0" d="M390.91,277.45c0-2,1.14-3.55,3.16-3.55a2.6,2.6,0,0,1,2.82,2.39h-1.25a1.48,1.48,0,0,0-1.58-1.43c-1.24,0-1.9,1-1.9,2.59s.69,2.6,1.9,2.6a1.61,1.61,0,0,0,1.67-1.5h1.17A2.62,2.62,0,0,1,394,281C392,281,390.91,279.57,390.91,277.45Z"/><path class="a2fce6ce-1429-47d9-9ab6-dc3d0711fea0" d="M397.62,274.09h1.12V275a2.29,2.29,0,0,1,2-1,1.85,1.85,0,0,1,1.83,1.24A2.7,2.7,0,0,1,405,274c1.55,0,2.16,1,2.16,2.48v4.37h-1.2v-3.72c0-1-.07-2.18-1.32-2.18-1.44,0-1.63,1.59-1.63,2.59v3.31h-1.19v-3.72c0-1-.09-2.18-1.34-2.18-1.44,0-1.63,1.59-1.63,2.59v3.31h-1.19Z"/><path class="a2fce6ce-1429-47d9-9ab6-dc3d0711fea0" d="M363.1,295.7l.8-1.08a5.39,5.39,0,0,1-1.15-3.52c0-2.9,1.71-4.92,4.34-4.92a4.17,4.17,0,0,1,2.47.76l.65-.89.77.59-.7.95a5.34,5.34,0,0,1,1.17,3.51c0,2.95-1.72,4.91-4.36,4.91a4.2,4.2,0,0,1-2.47-.74l-.74,1Zm5.78-7.84a2.67,2.67,0,0,0-1.79-.66c-1.83,0-3,1.66-3,3.9a4.88,4.88,0,0,0,.6,2.47Zm1.24,3.24a4.88,4.88,0,0,0-.61-2.47l-4.2,5.72a2.68,2.68,0,0,0,1.78.65C368.94,295,370.12,293.33,370.12,291.1Z"/><path class="a2fce6ce-1429-47d9-9ab6-dc3d0711fea0" d="M377.13,294.75v-5.4h-2v-.84c1.47-.08,2-.48,2.16-1.59h1v7.83h1.91v1.05h-5.15v-1.05Z"/><path class="a2fce6ce-1429-47d9-9ab6-dc3d0711fea0" d="M386.82,293.55v2.25h-1.21v-2.25h-4.07v-1l3.88-5.65h1.4v5.61h1.59v1Zm-1.15-1v-1.76c0-.62,0-1.83.05-2.48h-.07a15.41,15.41,0,0,1-.86,1.36l-2,2.89Z"/><path class="a2fce6ce-1429-47d9-9ab6-dc3d0711fea0" d="M390.65,294.26v1.54h-1.5v-1.54Z"/><path class="a2fce6ce-1429-47d9-9ab6-dc3d0711fea0" d="M394.65,295c1.33,0,2-1.21,2-3.25v-.51a2.3,2.3,0,0,1-2.17,1.22,2.69,2.69,0,0,1-2.86-2.85,2.91,2.91,0,0,1,3.08-2.89c2.11,0,3.2,1.64,3.2,4.5,0,3-1.13,4.77-3.23,4.77a2.69,2.69,0,0,1-3-2.42H393A1.58,1.58,0,0,0,394.65,295Zm-1.83-5.39a1.78,1.78,0,0,0,1.77,1.88,1.9,1.9,0,0,0,0-3.8A1.8,1.8,0,0,0,392.82,289.62Z"/><path class="a2fce6ce-1429-47d9-9ab6-dc3d0711fea0" d="M402.57,287.72c-1.34,0-2.14,1.27-2.14,3.26v.32A2.45,2.45,0,0,1,402.7,290a2.77,2.77,0,0,1,2.81,2.93,3,3,0,0,1-3.15,3.08c-2,0-3.16-1.67-3.16-4.51s1.24-4.76,3.37-4.76a2.61,2.61,0,0,1,2.85,2.44h-1.28A1.44,1.44,0,0,0,402.57,287.72Zm-1.94,5.22a1.93,1.93,0,0,0,1.9,2.08,1.83,1.83,0,0,0,1.74-2,1.76,1.76,0,0,0-1.74-2A1.88,1.88,0,0,0,400.63,292.94Z"/><path class="a2fce6ce-1429-47d9-9ab6-dc3d0711fea0" d="M406.44,289.71l.63-1.95h-.56v-1.4H408v1.55l-.76,1.8Zm2.22,0,.62-1.95h-.56v-1.4h1.46v1.55l-.76,1.8Z"/><path class="a2fce6ce-1429-47d9-9ab6-dc3d0711fea0" d="M278.07,388.76l.79-1.08a5.44,5.44,0,0,1-1.14-3.52c0-2.9,1.7-4.92,4.34-4.92a4.12,4.12,0,0,1,2.47.76l.65-.89.77.59-.7.95a5.34,5.34,0,0,1,1.17,3.51c0,2.95-1.72,4.91-4.36,4.91a4.2,4.2,0,0,1-2.47-.74l-.74,1Zm5.77-7.84a2.62,2.62,0,0,0-1.78-.66c-1.83,0-3,1.66-3,3.9a4.78,4.78,0,0,0,.6,2.47Zm1.25,3.24a4.88,4.88,0,0,0-.61-2.47l-4.2,5.72a2.68,2.68,0,0,0,1.78.65C283.91,388.06,285.09,386.39,285.09,384.16Z"/><path class="a2fce6ce-1429-47d9-9ab6-dc3d0711fea0" d="M292.38,388.07a1.73,1.73,0,0,0,1.89-1.66c0-1-.74-1.58-1.95-1.58h-.43v-1h.3c1.26,0,2-.56,2-1.53s-.71-1.52-1.77-1.52a1.73,1.73,0,0,0-1.86,1.88H289.3a2.84,2.84,0,0,1,3.18-2.87c1.75,0,2.93,1,2.93,2.4a2.13,2.13,0,0,1-1.61,2.07v.07a2.08,2.08,0,0,1,1.74,2.15c0,1.51-1.36,2.58-3.21,2.58a2.87,2.87,0,0,1-3.13-3h1.26A1.82,1.82,0,0,0,292.38,388.07Z"/><path class="a2fce6ce-1429-47d9-9ab6-dc3d0711fea0" d="M302.59,380v1h-4.12l-.3,2.82a2.53,2.53,0,0,1,2.05-.93,2.87,2.87,0,0,1,2.92,3,3.05,3.05,0,0,1-3.19,3.14,2.88,2.88,0,0,1-3.09-2.56h1.24a1.74,1.74,0,0,0,1.84,1.57,1.88,1.88,0,0,0,1.92-2.08A1.91,1.91,0,0,0,300,383.9a1.69,1.69,0,0,0-1.74,1.23L297,385l.5-5Z"/><path class="a2fce6ce-1429-47d9-9ab6-dc3d0711fea0" d="M305.88,385.51c0-2,1.14-3.55,3.16-3.55a2.6,2.6,0,0,1,2.82,2.39h-1.25a1.48,1.48,0,0,0-1.59-1.43c-1.23,0-1.89,1-1.89,2.59s.69,2.6,1.89,2.6a1.62,1.62,0,0,0,1.68-1.5h1.17a2.62,2.62,0,0,1-2.86,2.45C307,389.06,305.88,387.63,305.88,385.51Z"/><path class="a2fce6ce-1429-47d9-9ab6-dc3d0711fea0" d="M312.59,382.15h1.12V383a2.28,2.28,0,0,1,2-1,1.85,1.85,0,0,1,1.83,1.24,2.7,2.7,0,0,1,2.38-1.24c1.55,0,2.16,1,2.16,2.48v4.37h-1.2v-3.72c0-1-.07-2.18-1.32-2.18-1.45,0-1.63,1.59-1.63,2.59v3.31h-1.19v-3.72c0-1-.09-2.18-1.34-2.18-1.45,0-1.63,1.59-1.63,2.59v3.31h-1.19Z"/><path class="a2fce6ce-1429-47d9-9ab6-dc3d0711fea0" d="M276.72,403.76l.79-1.08a5.39,5.39,0,0,1-1.14-3.52c0-2.9,1.7-4.92,4.34-4.92a4.14,4.14,0,0,1,2.47.76l.65-.89.77.59-.7.95a5.34,5.34,0,0,1,1.17,3.51c0,2.95-1.72,4.91-4.36,4.91a4.2,4.2,0,0,1-2.47-.74l-.74,1Zm5.77-7.84a2.64,2.64,0,0,0-1.78-.66c-1.83,0-3,1.66-3,3.9a4.88,4.88,0,0,0,.6,2.47Zm1.25,3.24a4.88,4.88,0,0,0-.61-2.47l-4.2,5.72a2.68,2.68,0,0,0,1.78.65C282.56,403.06,283.74,401.39,283.74,399.16Z"/><path class="a2fce6ce-1429-47d9-9ab6-dc3d0711fea0" d="M290.75,402.81v-5.4h-2v-.84c1.47-.08,2-.48,2.16-1.59h1v7.83h1.91v1.05h-5.14v-1.05Z"/><path class="a2fce6ce-1429-47d9-9ab6-dc3d0711fea0" d="M298.57,403.07a1.73,1.73,0,0,0,1.89-1.66c0-1-.74-1.58-1.95-1.58h-.43v-1h.3c1.26,0,2-.56,2-1.53s-.7-1.52-1.76-1.52a1.73,1.73,0,0,0-1.86,1.88h-1.24a2.84,2.84,0,0,1,3.17-2.87c1.76,0,2.94,1,2.94,2.4a2.13,2.13,0,0,1-1.61,2.07v.07a2.08,2.08,0,0,1,1.74,2.15c0,1.51-1.36,2.58-3.21,2.58a2.86,2.86,0,0,1-3.13-3h1.26A1.82,1.82,0,0,0,298.57,403.07Z"/><path class="a2fce6ce-1429-47d9-9ab6-dc3d0711fea0" d="M304.27,402.32v1.54h-1.5v-1.54Z"/><path class="a2fce6ce-1429-47d9-9ab6-dc3d0711fea0" d="M310.12,396h-4.68V395h6v.9a25.85,25.85,0,0,0-3.18,8h-1.34A26.93,26.93,0,0,1,310.12,396Z"/><path class="a2fce6ce-1429-47d9-9ab6-dc3d0711fea0" d="M317.66,396H313V395h6v.9a25.85,25.85,0,0,0-3.18,8h-1.34A26.93,26.93,0,0,1,317.66,396Z"/><path class="a2fce6ce-1429-47d9-9ab6-dc3d0711fea0" d="M320.06,397.76l.63-1.95h-.56v-1.39h1.45V396l-.75,1.79Zm2.21,0,.63-1.95h-.56v-1.39h1.45V396l-.75,1.79Z"/><path class="a2fce6ce-1429-47d9-9ab6-dc3d0711fea0" d="M368.06,352.38v2.25h-1.21v-2.25h-4.07v-1l3.89-5.65h1.39v5.61h1.6v1Zm-1.15-1V349.6c0-.62,0-1.83,0-2.48h-.07a15.41,15.41,0,0,1-.86,1.36l-2,2.89Z"/><path class="a2fce6ce-1429-47d9-9ab6-dc3d0711fea0" d="M371.89,353.09v1.54H370.4v-1.54Z"/><path class="a2fce6ce-1429-47d9-9ab6-dc3d0711fea0" d="M373.07,354.26a3.64,3.64,0,0,1,.71-2.25,7.09,7.09,0,0,1,2-1.6c1.46-.89,2-1.46,2-2.35a1.46,1.46,0,0,0-1.65-1.51c-1.12,0-1.75.69-1.8,2h-1.22a2.89,2.89,0,0,1,3.13-3,2.55,2.55,0,0,1,2.8,2.56c0,1.17-.66,2-2.37,3.07a6.71,6.71,0,0,0-1.67,1.26,1.82,1.82,0,0,0-.52,1.13H379v1.05h-6Z"/><path class="a2fce6ce-1429-47d9-9ab6-dc3d0711fea0" d="M382,351.28c0-2,1.14-3.55,3.15-3.55a2.61,2.61,0,0,1,2.83,2.39H386.7a1.48,1.48,0,0,0-1.59-1.43c-1.23,0-1.9,1-1.9,2.59s.69,2.6,1.9,2.6a1.63,1.63,0,0,0,1.68-1.5H388a2.62,2.62,0,0,1-2.86,2.45C383.07,354.83,382,353.4,382,351.28Z"/><path class="a2fce6ce-1429-47d9-9ab6-dc3d0711fea0" d="M388.67,347.93h1.12v.85a2.31,2.31,0,0,1,2-1,1.85,1.85,0,0,1,1.83,1.24,2.7,2.7,0,0,1,2.38-1.24c1.55,0,2.16,1,2.16,2.49v4.36H397v-3.71c0-1-.08-2.19-1.32-2.19-1.45,0-1.63,1.59-1.63,2.59v3.31h-1.2v-3.71c0-1-.09-2.19-1.33-2.19-1.45,0-1.63,1.59-1.63,2.59v3.31h-1.2Z"/><path class="a2fce6ce-1429-47d9-9ab6-dc3d0711fea0" d="M365.91,368.58v-5.39h-2v-.85c1.47-.08,2-.48,2.16-1.59h1v7.83H369v1.05h-5.15v-1.05Z"/><path class="a2fce6ce-1429-47d9-9ab6-dc3d0711fea0" d="M371.89,368.09v1.54H370.4v-1.54Z"/><path class="a2fce6ce-1429-47d9-9ab6-dc3d0711fea0" d="M376.27,361.55c-1.34,0-2.14,1.27-2.14,3.26v.33a2.44,2.44,0,0,1,2.27-1.32,2.77,2.77,0,0,1,2.81,2.93,3,3,0,0,1-3.15,3.08c-2,0-3.15-1.66-3.15-4.51s1.23-4.76,3.36-4.76a2.61,2.61,0,0,1,2.85,2.44h-1.27A1.45,1.45,0,0,0,376.27,361.55Zm-1.94,5.22a1.93,1.93,0,0,0,1.9,2.08A1.83,1.83,0,0,0,378,366.8a1.77,1.77,0,0,0-1.75-2A1.88,1.88,0,0,0,374.33,366.77Z"/><path class="a2fce6ce-1429-47d9-9ab6-dc3d0711fea0" d="M386.22,360.75v1H382.1l-.3,2.83a2.54,2.54,0,0,1,2.05-.94,2.86,2.86,0,0,1,2.91,3,3,3,0,0,1-3.18,3.13,2.9,2.9,0,0,1-3.1-2.56h1.25a1.73,1.73,0,0,0,1.84,1.57,1.88,1.88,0,0,0,1.92-2.08,1.91,1.91,0,0,0-1.87-2.09,1.69,1.69,0,0,0-1.74,1.23l-1.28-.11.49-5Z"/><path class="a2fce6ce-1429-47d9-9ab6-dc3d0711fea0" d="M387.69,363.54l.62-2h-.56V360.2h1.46v1.54l-.76,1.8Zm2.21,0,.62-2H390V360.2h1.46v1.54l-.76,1.8Z"/><path class="b62f61b8-fc44-4ab5-a4ee-da5327240cf9" d="M347.56,363.64l.17-.17v-.39l-.17-.17h-3.65v-9.07a1.12,1.12,0,0,0-1.12-1.12h-87l-.17.17v10H252l-.17.17v.39l.17.17Z"/><path class="a3c297e2-b2b5-40f1-aea1-308f0d71cd02" d="M343.79,363.14v-9.35a1,1,0,0,0-1-1H255.72v10.31m91.9.39H251.89v-.39h95.73Z"/><line class="eb6be304-8602-4047-b561-0c31eb296e68" x1="355.14" y1="355.16" x2="355.14" y2="361.2"/><polygon class="a2fce6ce-1429-47d9-9ab6-dc3d0711fea0" points="358.18 355.57 352.1 355.57 355.14 352.53 358.18 355.57"/><polygon class="a2fce6ce-1429-47d9-9ab6-dc3d0711fea0" points="358.18 360.8 352.1 360.8 355.14 363.83 358.18 360.8"/><line class="eb6be304-8602-4047-b561-0c31eb296e68" x1="254.52" y1="370.64" x2="344.99" y2="370.64"/><polygon class="a2fce6ce-1429-47d9-9ab6-dc3d0711fea0" points="254.93 367.61 254.93 373.68 251.89 370.64 254.93 367.61"/><polygon class="a2fce6ce-1429-47d9-9ab6-dc3d0711fea0" points="344.58 367.61 344.58 373.68 347.62 370.64 344.58 367.61"/><rect class="b51f150a-429a-46c6-abf9-67135eabccc6" width="600" height="600"/></g></g></svg>