<svg xmlns="http://www.w3.org/2000/svg" viewBox="0 0 600 600"><defs><style>.cls-1,.cls-6,.cls-7,.cls-8{fill:none;}.cls-1,.cls-6{stroke:#1d1d1b;}.cls-1{stroke-linecap:round;stroke-linejoin:round;}.cls-1,.cls-6,.cls-7{stroke-width:0.5px;}.cls-2,.cls-3{fill:#1d1d1b;}.cls-3{font-size:13px;font-family:Unica_77LL-Regular, "Unica 77 LL";letter-spacing:-0.05em;}.cls-4{letter-spacing:-0.08em;}.cls-5{fill:#fff;}.cls-6,.cls-7{stroke-linejoin:bevel;}.cls-7{stroke:#000;}</style></defs><g id="Livello_2" data-name="Livello 2"><g id="Livello_1-2" data-name="Livello 1"><line class="cls-1" x1="459.76" y1="134.72" x2="459.76" y2="434.04"/><polygon class="cls-2" points="462.8 135.12 456.73 135.12 459.76 132.09 462.8 135.12"/><polygon class="cls-2" points="462.8 433.63 456.73 433.63 459.76 436.67 462.8 433.63"/><text class="cls-3" transform="translate(466.76 281.08)">Ø 120 cm<tspan x="0" y="15">Ø 47.24</tspan><tspan class="cls-4" x="43.65" y="15">”</tspan></text><text class="cls-3" transform="translate(268.43 493)">Ø 116.5 cm<tspan x="7.33" y="15">Ø 45.86”</tspan></text><text class="cls-3" transform="translate(466.76 458.77)">4.2 cm<tspan x="0" y="15">1.65”</tspan></text><path class="cls-5" d="M452.18,467.78l.17-.17v-.39l-.17-.17h-3.65V458a1.12,1.12,0,0,0-1.12-1.12H149.47l-.17.17v10h-3.65l-.18.17v.39l.18.17Z"/><path class="cls-6" d="M448.41,467.27v-9.34a1,1,0,0,0-1-1h-298v10.3m302.83.39H145.59v-.39H452.24Z"/><line class="cls-1" x1="459.76" y1="459.3" x2="459.76" y2="465.34"/><polygon class="cls-2" points="462.8 459.71 456.73 459.71 459.76 456.67 462.8 459.71"/><polygon class="cls-2" points="462.8 464.93 456.73 464.93 459.76 467.97 462.8 464.93"/><line class="cls-1" x1="148.22" y1="474.78" x2="449.61" y2="474.78"/><polygon class="cls-2" points="148.63 471.74 148.63 477.82 145.59 474.78 148.63 471.74"/><polygon class="cls-2" points="449.2 471.74 449.2 477.82 452.24 474.78 449.2 471.74"/><path class="cls-5" d="M299.73,436.67a152.27,152.27,0,1,0-107.66-44.6,151.28,151.28,0,0,0,107.66,44.6"/><path class="cls-7" d="M297.38,190.15a1.32,1.32,0,1,0,1.32-1.33A1.33,1.33,0,0,0,297.38,190.15Z"/><path class="cls-7" d="M415,207.2a1.33,1.33,0,1,0,1.33-1.32A1.33,1.33,0,0,0,415,207.2Z"/><path class="cls-7" d="M272.16,146.57a1.32,1.32,0,1,0,1.32-1.32A1.32,1.32,0,0,0,272.16,146.57Z"/><path class="cls-7" d="M333.63,222.66a1.32,1.32,0,1,0,1.32-1.33A1.33,1.33,0,0,0,333.63,222.66Z"/><path class="cls-7" d="M261.81,222.66a1.33,1.33,0,1,0,1.33-1.33A1.33,1.33,0,0,0,261.81,222.66Z"/><path class="cls-7" d="M185.59,362.18a1.33,1.33,0,1,0-1.32,1.32A1.32,1.32,0,0,0,185.59,362.18Z"/><path class="cls-7" d="M275.16,420.25a1.33,1.33,0,1,0-1.32,1.32A1.32,1.32,0,0,0,275.16,420.25Z"/><path class="cls-1" d="M299.73,132.09A152.32,152.32,0,1,1,147.41,284.4,152.32,152.32,0,0,1,299.73,132.09Z"/><path class="cls-7" d="M220.9,167.92a1.32,1.32,0,1,0,1.32-1.32A1.32,1.32,0,0,0,220.9,167.92Z"/><path class="cls-7" d="M182.94,207.16a1.33,1.33,0,1,0,1.33-1.33A1.33,1.33,0,0,0,182.94,207.16Z"/><path class="cls-7" d="M162.75,257.2a1.33,1.33,0,1,0,1.32-1.32A1.32,1.32,0,0,0,162.75,257.2Z"/><path class="cls-7" d="M162.75,311.08a1.33,1.33,0,1,0,1.32-1.32A1.32,1.32,0,0,0,162.75,311.08Z"/><path class="cls-7" d="M223.57,399.86a1.32,1.32,0,1,0-1.32,1.32A1.32,1.32,0,0,0,223.57,399.86Z"/><path class="cls-7" d="M240.79,367.61a1.33,1.33,0,1,0-1.33,1.32A1.33,1.33,0,0,0,240.79,367.61Z"/><path class="cls-7" d="M362.08,367.61a1.33,1.33,0,1,0-1.32,1.32A1.32,1.32,0,0,0,362.08,367.61Z"/><path class="cls-7" d="M301.69,388.17a1.32,1.32,0,1,0-1.32,1.32A1.32,1.32,0,0,0,301.69,388.17Z"/><path class="cls-7" d="M268.16,342.17a1.32,1.32,0,1,0-1.32,1.32A1.32,1.32,0,0,0,268.16,342.17Z"/><path class="cls-7" d="M335.93,342.17a1.33,1.33,0,1,0-1.32,1.32A1.32,1.32,0,0,0,335.93,342.17Z"/><path class="cls-7" d="M279.32,306.19a1.32,1.32,0,1,0-1.32,1.32A1.32,1.32,0,0,0,279.32,306.19Z"/><path class="cls-7" d="M233.33,283.73a1.33,1.33,0,1,0-1.32,1.32A1.33,1.33,0,0,0,233.33,283.73Z"/><path class="cls-7" d="M368.87,283.73a1.33,1.33,0,1,0-1.33,1.32A1.33,1.33,0,0,0,368.87,283.73Z"/><path class="cls-7" d="M203.83,315.73a1.33,1.33,0,1,0-1.32,1.32A1.32,1.32,0,0,0,203.83,315.73Z"/><path class="cls-7" d="M203.83,251.71a1.33,1.33,0,1,0-1.32,1.32A1.32,1.32,0,0,0,203.83,251.71Z"/><path class="cls-7" d="M323.92,306.19a1.32,1.32,0,1,0-1.32,1.32A1.32,1.32,0,0,0,323.92,306.19Z"/><path class="cls-7" d="M279.32,260.32a1.32,1.32,0,1,0-1.32,1.32A1.33,1.33,0,0,0,279.32,260.32Z"/><path class="cls-7" d="M323.92,260.32a1.32,1.32,0,1,0-1.32,1.32A1.33,1.33,0,0,0,323.92,260.32Z"/><path class="cls-7" d="M329.36,420.25a1.33,1.33,0,1,0-1.32,1.32A1.32,1.32,0,0,0,329.36,420.25Z"/><path class="cls-7" d="M379.36,400.06a1.33,1.33,0,1,0-1.32,1.32A1.32,1.32,0,0,0,379.36,400.06Z"/><path class="cls-7" d="M418,361.41a1.32,1.32,0,1,0-1.32,1.32A1.32,1.32,0,0,0,418,361.41Z"/><path class="cls-7" d="M438.75,311.08a1.32,1.32,0,1,0-1.32,1.32A1.32,1.32,0,0,0,438.75,311.08Z"/><path class="cls-7" d="M439.68,256a1.32,1.32,0,1,0-1.32,1.32A1.32,1.32,0,0,0,439.68,256Z"/><path class="cls-7" d="M326.71,146.57a1.33,1.33,0,1,0,1.32-1.32A1.33,1.33,0,0,0,326.71,146.57Z"/><path class="cls-7" d="M376.45,167.77a1.33,1.33,0,1,0,1.32-1.32A1.32,1.32,0,0,0,376.45,167.77Z"/><path class="cls-7" d="M238.14,200.14a1.33,1.33,0,1,0,1.32-1.32A1.32,1.32,0,0,0,238.14,200.14Z"/><path class="cls-7" d="M359.43,200.14a1.33,1.33,0,1,0,1.33-1.32A1.33,1.33,0,0,0,359.43,200.14Z"/><path class="cls-7" d="M401.31,315.73a1.33,1.33,0,1,0-1.32,1.32A1.32,1.32,0,0,0,401.31,315.73Z"/><path class="cls-7" d="M401.31,251.71A1.33,1.33,0,1,0,400,253,1.32,1.32,0,0,0,401.31,251.71Z"/><rect class="cls-8" width="600" height="600"/></g></g></svg>