<svg xmlns="http://www.w3.org/2000/svg" viewBox="0 0 600 600"><defs><style>.eca85ca6-44ed-4ff0-a722-3704de038f93{fill:#fff;}.a7d2e5d9-42cc-4b08-8e2b-1610690a5047,.b55b46dd-989b-48ad-92b7-28c6c06b4917,.ef698ba2-d9e0-4b8d-9c28-ed507f8ce415,.fdce9c31-c3f6-44fd-928e-b8d67e45c2c1{fill:none;}.b55b46dd-989b-48ad-92b7-28c6c06b4917,.fdce9c31-c3f6-44fd-928e-b8d67e45c2c1{stroke:#1d1d1b;}.fdce9c31-c3f6-44fd-928e-b8d67e45c2c1{stroke-linecap:round;stroke-linejoin:round;}.b55b46dd-989b-48ad-92b7-28c6c06b4917,.ef698ba2-d9e0-4b8d-9c28-ed507f8ce415,.fdce9c31-c3f6-44fd-928e-b8d67e45c2c1{stroke-width:0.5px;}.ef698ba2-d9e0-4b8d-9c28-ed507f8ce415{stroke:#000;}.b55b46dd-989b-48ad-92b7-28c6c06b4917,.ef698ba2-d9e0-4b8d-9c28-ed507f8ce415{stroke-linejoin:bevel;}.a98c90dd-7cb0-4697-bda6-c5062ce6d59f{fill:#1d1d1b;}</style></defs><g id="b2879b73-bc26-4f62-a6a8-d317dabe952d" data-name="Livello 2"><g id="bb7b4f02-2faf-4edc-a1ca-aea83ea9216c" data-name="Livello 1"><path class="eca85ca6-44ed-4ff0-a722-3704de038f93" d="M299.73,411.49A126.89,126.89,0,1,0,210,374.32a126,126,0,0,0,89.72,37.17"/><path class="fdce9c31-c3f6-44fd-928e-b8d67e45c2c1" d="M299.73,157.72A126.89,126.89,0,1,1,172.85,284.6,126.88,126.88,0,0,1,299.73,157.72Z"/><path class="ef698ba2-d9e0-4b8d-9c28-ed507f8ce415" d="M336.44,173.78a1.33,1.33,0,1,0-1.32,1.33A1.33,1.33,0,0,0,336.44,173.78Z"/><path class="ef698ba2-d9e0-4b8d-9c28-ed507f8ce415" d="M264.29,173.78a1.33,1.33,0,1,0-1.32,1.33A1.33,1.33,0,0,0,264.29,173.78Z"/><path class="ef698ba2-d9e0-4b8d-9c28-ed507f8ce415" d="M300.42,206.1a1.32,1.32,0,1,0-1.32,1.32A1.32,1.32,0,0,0,300.42,206.1Z"/><path class="ef698ba2-d9e0-4b8d-9c28-ed507f8ce415" d="M300.42,262.6a1.32,1.32,0,1,0-1.32,1.32A1.32,1.32,0,0,0,300.42,262.6Z"/><path class="ef698ba2-d9e0-4b8d-9c28-ed507f8ce415" d="M205.93,216.13a1.33,1.33,0,1,0-1.32,1.32A1.33,1.33,0,0,0,205.93,216.13Z"/><path class="ef698ba2-d9e0-4b8d-9c28-ed507f8ce415" d="M394.82,216.13a1.33,1.33,0,1,0-1.32,1.32A1.32,1.32,0,0,0,394.82,216.13Z"/><path class="ef698ba2-d9e0-4b8d-9c28-ed507f8ce415" d="M330.29,233.14a1.32,1.32,0,1,0-1.32,1.32A1.32,1.32,0,0,0,330.29,233.14Z"/><path class="ef698ba2-d9e0-4b8d-9c28-ed507f8ce415" d="M270.58,233.14a1.33,1.33,0,1,0-1.32,1.32A1.33,1.33,0,0,0,270.58,233.14Z"/><path class="ef698ba2-d9e0-4b8d-9c28-ed507f8ce415" d="M368.22,245.38a1.32,1.32,0,1,0-1.32,1.32A1.32,1.32,0,0,0,368.22,245.38Z"/><path class="ef698ba2-d9e0-4b8d-9c28-ed507f8ce415" d="M360,285a1.32,1.32,0,1,0-1.32,1.32A1.32,1.32,0,0,0,360,285Z"/><path class="ef698ba2-d9e0-4b8d-9c28-ed507f8ce415" d="M417.16,285a1.33,1.33,0,1,0-1.32,1.32A1.33,1.33,0,0,0,417.16,285Z"/><path class="ef698ba2-d9e0-4b8d-9c28-ed507f8ce415" d="M183.64,285a1.33,1.33,0,1,0-1.32,1.32A1.33,1.33,0,0,0,183.64,285Z"/><path class="ef698ba2-d9e0-4b8d-9c28-ed507f8ce415" d="M240.76,285a1.32,1.32,0,1,0-1.32,1.32A1.32,1.32,0,0,0,240.76,285Z"/><path class="ef698ba2-d9e0-4b8d-9c28-ed507f8ce415" d="M232.18,245.38a1.32,1.32,0,1,0-1.32,1.32A1.32,1.32,0,0,0,232.18,245.38Z"/><path class="ef698ba2-d9e0-4b8d-9c28-ed507f8ce415" d="M261.66,395.74a1.33,1.33,0,1,0,1.32-1.32A1.32,1.32,0,0,0,261.66,395.74Z"/><path class="ef698ba2-d9e0-4b8d-9c28-ed507f8ce415" d="M333.81,395.74a1.33,1.33,0,1,0,1.32-1.32A1.32,1.32,0,0,0,333.81,395.74Z"/><path class="ef698ba2-d9e0-4b8d-9c28-ed507f8ce415" d="M297.68,363.42A1.32,1.32,0,1,0,299,362.1,1.32,1.32,0,0,0,297.68,363.42Z"/><path class="ef698ba2-d9e0-4b8d-9c28-ed507f8ce415" d="M297.68,306.92A1.32,1.32,0,1,0,299,305.6,1.33,1.33,0,0,0,297.68,306.92Z"/><path class="ef698ba2-d9e0-4b8d-9c28-ed507f8ce415" d="M392.17,353.39a1.33,1.33,0,1,0,1.32-1.32A1.33,1.33,0,0,0,392.17,353.39Z"/><path class="ef698ba2-d9e0-4b8d-9c28-ed507f8ce415" d="M203.28,353.39a1.33,1.33,0,1,0,1.32-1.32A1.32,1.32,0,0,0,203.28,353.39Z"/><path class="ef698ba2-d9e0-4b8d-9c28-ed507f8ce415" d="M267.81,336.38a1.32,1.32,0,1,0,1.32-1.32A1.32,1.32,0,0,0,267.81,336.38Z"/><path class="ef698ba2-d9e0-4b8d-9c28-ed507f8ce415" d="M327.52,336.38a1.33,1.33,0,1,0,1.32-1.32A1.33,1.33,0,0,0,327.52,336.38Z"/><path class="ef698ba2-d9e0-4b8d-9c28-ed507f8ce415" d="M229.88,324.14a1.32,1.32,0,1,0,1.32-1.32A1.33,1.33,0,0,0,229.88,324.14Z"/><path class="ef698ba2-d9e0-4b8d-9c28-ed507f8ce415" d="M365.92,324.14a1.32,1.32,0,1,0,1.32-1.32A1.33,1.33,0,0,0,365.92,324.14Z"/><line class="fdce9c31-c3f6-44fd-928e-b8d67e45c2c1" x1="434.42" y1="160.34" x2="434.42" y2="408.86"/><polygon class="a98c90dd-7cb0-4697-bda6-c5062ce6d59f" points="437.46 160.75 431.39 160.75 434.43 157.72 437.46 160.75"/><polygon class="a98c90dd-7cb0-4697-bda6-c5062ce6d59f" points="437.46 408.45 431.39 408.45 434.43 411.49 437.46 408.45"/><path class="a98c90dd-7cb0-4697-bda6-c5062ce6d59f" d="M442.39,281.18l.79-1.08a5.4,5.4,0,0,1-1.14-3.53c0-2.9,1.7-4.91,4.34-4.91a4.2,4.2,0,0,1,2.47.75l.65-.88.77.58-.71.95a5.34,5.34,0,0,1,1.17,3.51c0,3-1.71,4.92-4.35,4.92a4.18,4.18,0,0,1-2.47-.74l-.74,1Zm5.77-7.84a2.65,2.65,0,0,0-1.78-.67c-1.84,0-3,1.67-3,3.9A4.83,4.83,0,0,0,444,279Zm1.25,3.23a4.91,4.91,0,0,0-.61-2.47l-4.2,5.72a2.63,2.63,0,0,0,1.78.65C448.22,280.47,449.41,278.81,449.41,276.57Z"/><path class="a98c90dd-7cb0-4697-bda6-c5062ce6d59f" d="M456.41,280.23v-5.4h-2V274c1.47-.08,2-.48,2.16-1.59h1v7.83h1.91v1h-5.15v-1Z"/><path class="a98c90dd-7cb0-4697-bda6-c5062ce6d59f" d="M467.52,276.83c0,3.07-1.25,4.64-3.25,4.64s-3.24-1.65-3.24-4.64,1.23-4.62,3.24-4.62S467.52,273.84,467.52,276.83Zm-5.22,0c0,2.32.63,3.66,2,3.66s2-1.34,2-3.66-.64-3.64-2-3.64S462.3,274.47,462.3,276.83Z"/><path class="a98c90dd-7cb0-4697-bda6-c5062ce6d59f" d="M475.06,276.83c0,3.07-1.25,4.64-3.25,4.64s-3.24-1.65-3.24-4.64,1.23-4.62,3.24-4.62S475.06,273.84,475.06,276.83Zm-5.22,0c0,2.32.63,3.66,2,3.66s2-1.34,2-3.66-.64-3.64-2-3.64S469.84,274.47,469.84,276.83Z"/><path class="a98c90dd-7cb0-4697-bda6-c5062ce6d59f" d="M477.73,277.93c0-2,1.15-3.55,3.16-3.55a2.59,2.59,0,0,1,2.82,2.39h-1.25a1.47,1.47,0,0,0-1.58-1.43c-1.24,0-1.9,1-1.9,2.59s.69,2.6,1.9,2.6a1.64,1.64,0,0,0,1.68-1.5h1.17a2.62,2.62,0,0,1-2.86,2.44C478.84,281.47,477.73,280,477.73,277.93Z"/><path class="a98c90dd-7cb0-4697-bda6-c5062ce6d59f" d="M484.44,274.57h1.12v.86a2.3,2.3,0,0,1,2-1,1.85,1.85,0,0,1,1.84,1.23,2.69,2.69,0,0,1,2.38-1.23c1.54,0,2.16,1,2.16,2.48v4.37h-1.2v-3.72c0-1-.08-2.18-1.33-2.18-1.44,0-1.62,1.58-1.62,2.58v3.32h-1.2v-3.72c0-1-.09-2.18-1.34-2.18-1.44,0-1.62,1.58-1.62,2.58v3.32h-1.2Z"/><path class="a98c90dd-7cb0-4697-bda6-c5062ce6d59f" d="M442.39,296.18l.79-1.08a5.4,5.4,0,0,1-1.14-3.53c0-2.9,1.7-4.91,4.34-4.91a4.2,4.2,0,0,1,2.47.75l.65-.88.77.58-.71.95a5.34,5.34,0,0,1,1.17,3.51c0,3-1.71,4.92-4.35,4.92a4.18,4.18,0,0,1-2.47-.74l-.74,1Zm5.77-7.84a2.65,2.65,0,0,0-1.78-.67c-1.84,0-3,1.67-3,3.9A4.83,4.83,0,0,0,444,294Zm1.25,3.23a4.91,4.91,0,0,0-.61-2.47l-4.2,5.72a2.63,2.63,0,0,0,1.78.65C448.22,295.47,449.41,293.81,449.41,291.57Z"/><path class="a98c90dd-7cb0-4697-bda6-c5062ce6d59f" d="M456.7,295.49a1.73,1.73,0,0,0,1.89-1.67c0-1-.75-1.57-2-1.57h-.42v-1h.3c1.26,0,2-.56,2-1.54s-.7-1.52-1.77-1.52a1.74,1.74,0,0,0-1.86,1.89h-1.23a2.83,2.83,0,0,1,3.17-2.87c1.76,0,2.94,1,2.94,2.4a2.15,2.15,0,0,1-1.61,2.07v.06a2.09,2.09,0,0,1,1.74,2.16c0,1.51-1.37,2.57-3.21,2.57a2.86,2.86,0,0,1-3.13-3h1.26A1.82,1.82,0,0,0,456.7,295.49Z"/><path class="a98c90dd-7cb0-4697-bda6-c5062ce6d59f" d="M464.12,295.49c1.33,0,2-1.21,2-3.25v-.51A2.3,2.3,0,0,1,464,293a2.69,2.69,0,0,1-2.86-2.86,2.91,2.91,0,0,1,3.08-2.88c2.1,0,3.2,1.63,3.2,4.49,0,3.05-1.13,4.77-3.23,4.77a2.68,2.68,0,0,1-3-2.41h1.23A1.58,1.58,0,0,0,464.12,295.49Zm-1.83-5.4a1.78,1.78,0,0,0,1.77,1.89,1.9,1.9,0,0,0,0-3.8A1.79,1.79,0,0,0,462.29,290.09Z"/><path class="a98c90dd-7cb0-4697-bda6-c5062ce6d59f" d="M469.93,294.73v1.55h-1.49v-1.55Z"/><path class="a98c90dd-7cb0-4697-bda6-c5062ce6d59f" d="M474.05,295.49a1.73,1.73,0,0,0,1.89-1.67c0-1-.74-1.57-1.95-1.57h-.43v-1h.3c1.26,0,2-.56,2-1.54s-.71-1.52-1.77-1.52a1.74,1.74,0,0,0-1.86,1.89H471a2.84,2.84,0,0,1,3.18-2.87c1.75,0,2.93,1,2.93,2.4a2.15,2.15,0,0,1-1.61,2.07v.06a2.09,2.09,0,0,1,1.74,2.16c0,1.51-1.36,2.57-3.21,2.57a2.86,2.86,0,0,1-3.13-3h1.26A1.82,1.82,0,0,0,474.05,295.49Z"/><path class="a98c90dd-7cb0-4697-bda6-c5062ce6d59f" d="M483.32,288.45h-4.68V287.4h6v.9a26.12,26.12,0,0,0-3.19,8h-1.34A27.67,27.67,0,0,1,483.32,288.45Z"/><path class="a98c90dd-7cb0-4697-bda6-c5062ce6d59f" d="M485.73,290.18l.62-1.95h-.56v-1.39h1.46v1.55l-.75,1.79Zm2.21,0,.62-1.95H488v-1.39h1.46v1.55l-.75,1.79Z"/><path class="a98c90dd-7cb0-4697-bda6-c5062ce6d59f" d="M273.16,467.71l.8-1.08a5.39,5.39,0,0,1-1.15-3.52c0-2.9,1.71-4.91,4.35-4.91a4.2,4.2,0,0,1,2.47.75l.65-.88.76.58-.7,1a5.34,5.34,0,0,1,1.17,3.51c0,2.95-1.72,4.91-4.35,4.91a4.15,4.15,0,0,1-2.47-.74l-.75,1Zm5.78-7.84a2.69,2.69,0,0,0-1.78-.66c-1.84,0-3,1.66-3,3.9a4.86,4.86,0,0,0,.6,2.47Zm1.24,3.24a4.88,4.88,0,0,0-.61-2.47l-4.2,5.72a2.66,2.66,0,0,0,1.79.65C279,467,280.18,465.35,280.18,463.11Z"/><path class="a98c90dd-7cb0-4697-bda6-c5062ce6d59f" d="M287.36,467c1.33,0,2-1.21,2-3.25v-.5a2.32,2.32,0,0,1-2.18,1.22,2.7,2.7,0,0,1-2.86-2.86,2.93,2.93,0,0,1,3.08-2.89c2.11,0,3.2,1.64,3.2,4.5,0,3-1.13,4.77-3.22,4.77a2.7,2.7,0,0,1-3-2.42h1.24A1.57,1.57,0,0,0,287.36,467Zm-1.83-5.39a1.77,1.77,0,0,0,1.76,1.88,1.9,1.9,0,0,0,0-3.79A1.78,1.78,0,0,0,285.53,461.63Z"/><path class="a98c90dd-7cb0-4697-bda6-c5062ce6d59f" d="M295.28,459.73c-1.34,0-2.15,1.27-2.15,3.26v.33a2.47,2.47,0,0,1,2.28-1.32,2.77,2.77,0,0,1,2.81,2.93,3,3,0,0,1-3.15,3.08c-2,0-3.16-1.66-3.16-4.51s1.24-4.76,3.37-4.76a2.6,2.6,0,0,1,2.84,2.45h-1.27A1.45,1.45,0,0,0,295.28,459.73ZM293.34,465a1.93,1.93,0,0,0,1.9,2.08A1.83,1.83,0,0,0,297,465a1.76,1.76,0,0,0-1.74-2A1.89,1.89,0,0,0,293.34,465Z"/><path class="a98c90dd-7cb0-4697-bda6-c5062ce6d59f" d="M300.71,466.27v1.55h-1.49v-1.55Z"/><path class="a98c90dd-7cb0-4697-bda6-c5062ce6d59f" d="M307.5,458.94v1h-4.12l-.3,2.82a2.54,2.54,0,0,1,2.05-.94,2.86,2.86,0,0,1,2.91,3,3,3,0,0,1-3.18,3.13,2.89,2.89,0,0,1-3.1-2.56H303a1.73,1.73,0,0,0,1.83,1.57,1.88,1.88,0,0,0,1.93-2.08,1.91,1.91,0,0,0-1.87-2.09,1.71,1.71,0,0,0-1.75,1.23l-1.27-.11.5-5Z"/><path class="a98c90dd-7cb0-4697-bda6-c5062ce6d59f" d="M310.79,464.46c0-2,1.14-3.55,3.15-3.55a2.61,2.61,0,0,1,2.83,2.39h-1.25a1.48,1.48,0,0,0-1.59-1.42c-1.23,0-1.9,1-1.9,2.58s.69,2.6,1.9,2.6a1.63,1.63,0,0,0,1.68-1.49h1.17a2.62,2.62,0,0,1-2.86,2.44C311.89,468,310.79,466.58,310.79,464.46Z"/><path class="a98c90dd-7cb0-4697-bda6-c5062ce6d59f" d="M317.49,461.11h1.12V462a2.29,2.29,0,0,1,2-1,1.85,1.85,0,0,1,1.83,1.24,2.7,2.7,0,0,1,2.38-1.24c1.55,0,2.16,1,2.16,2.49v4.37h-1.2V464.1c0-1-.08-2.19-1.33-2.19-1.44,0-1.62,1.59-1.62,2.59v3.32h-1.2V464.1c0-1-.09-2.19-1.34-2.19-1.44,0-1.62,1.59-1.62,2.59v3.32h-1.2Z"/><path class="a98c90dd-7cb0-4697-bda6-c5062ce6d59f" d="M285.4,482.71l.79-1.08a5.39,5.39,0,0,1-1.14-3.52c0-2.9,1.7-4.91,4.34-4.91a4.2,4.2,0,0,1,2.47.75l.65-.88.77.58-.71,1a5.34,5.34,0,0,1,1.17,3.51c0,2.95-1.71,4.91-4.35,4.91a4.18,4.18,0,0,1-2.47-.74l-.74,1Zm5.77-7.84a2.69,2.69,0,0,0-1.78-.66c-1.83,0-3,1.66-3,3.9a4.86,4.86,0,0,0,.6,2.47Zm1.25,3.24a4.88,4.88,0,0,0-.61-2.47l-4.2,5.72a2.63,2.63,0,0,0,1.78.65C291.23,482,292.42,480.35,292.42,478.11Z"/><path class="a98c90dd-7cb0-4697-bda6-c5062ce6d59f" d="M299.71,482a1.73,1.73,0,0,0,1.89-1.66c0-1-.75-1.57-2-1.57h-.43v-1h.3c1.26,0,2-.56,2-1.54s-.7-1.52-1.77-1.52a1.74,1.74,0,0,0-1.86,1.89h-1.23a2.83,2.83,0,0,1,3.17-2.88c1.76,0,2.94,1,2.94,2.41a2.13,2.13,0,0,1-1.61,2.06v.07a2.08,2.08,0,0,1,1.74,2.16c0,1.51-1.37,2.57-3.21,2.57a2.86,2.86,0,0,1-3.13-3h1.26A1.81,1.81,0,0,0,299.71,482Z"/><path class="a98c90dd-7cb0-4697-bda6-c5062ce6d59f" d="M304.09,480.45a2.1,2.1,0,0,1,1.86-2.21v-.07a1.94,1.94,0,0,1-1.61-2c0-1.44,1.18-2.42,3-2.42s2.94,1,2.94,2.42a1.94,1.94,0,0,1-1.61,2v.07a2.1,2.1,0,0,1,1.87,2.21c0,1.5-1.33,2.56-3.2,2.56S304.09,482,304.09,480.45Zm5.11-.08a1.94,1.94,0,0,0-3.83,0,1.93,1.93,0,0,0,3.83,0Zm-.17-4.16a1.54,1.54,0,0,0-1.74-1.51,1.53,1.53,0,1,0,1.74,1.51Z"/><path class="a98c90dd-7cb0-4697-bda6-c5062ce6d59f" d="M311.38,476.72l.63-2h-.56v-1.39h1.45v1.54l-.75,1.8Zm2.21,0,.63-2h-.56v-1.39h1.46v1.54l-.76,1.8Z"/><path class="a98c90dd-7cb0-4697-bda6-c5062ce6d59f" d="M447.34,431.34v2.25h-1.21v-2.25h-4.07v-1l3.89-5.64h1.39v5.6h1.6v1Zm-1.14-1v-1.75c0-.63,0-1.84.05-2.49h-.08a15.55,15.55,0,0,1-.86,1.37l-2,2.88Z"/><path class="a98c90dd-7cb0-4697-bda6-c5062ce6d59f" d="M451.18,432v1.55h-1.5V432Z"/><path class="a98c90dd-7cb0-4697-bda6-c5062ce6d59f" d="M452.36,433.21a3.74,3.74,0,0,1,.7-2.25,7.19,7.19,0,0,1,2-1.6c1.45-.88,2-1.45,2-2.35a1.47,1.47,0,0,0-1.65-1.51c-1.12,0-1.74.69-1.79,2h-1.22a2.89,2.89,0,0,1,3.13-3,2.55,2.55,0,0,1,2.79,2.57c0,1.17-.66,2-2.36,3.06a6.84,6.84,0,0,0-1.68,1.26,1.93,1.93,0,0,0-.52,1.14h4.6v1h-5.95Z"/><path class="a98c90dd-7cb0-4697-bda6-c5062ce6d59f" d="M461.25,430.23c0-2,1.14-3.55,3.16-3.55a2.61,2.61,0,0,1,2.82,2.4H466a1.48,1.48,0,0,0-1.58-1.43c-1.24,0-1.9,1-1.9,2.58s.69,2.6,1.9,2.6a1.61,1.61,0,0,0,1.67-1.49h1.17a2.61,2.61,0,0,1-2.86,2.44C462.36,433.78,461.25,432.35,461.25,430.23Z"/><path class="a98c90dd-7cb0-4697-bda6-c5062ce6d59f" d="M468,426.88h1.12v.86a2.27,2.27,0,0,1,2-1,1.84,1.84,0,0,1,1.83,1.23,2.69,2.69,0,0,1,2.38-1.23c1.55,0,2.16,1,2.16,2.48v4.37h-1.19v-3.72c0-1-.08-2.18-1.33-2.18-1.44,0-1.63,1.58-1.63,2.58v3.32h-1.19v-3.72c0-1-.09-2.18-1.34-2.18-1.44,0-1.63,1.58-1.63,2.58v3.32H468Z"/><path class="a98c90dd-7cb0-4697-bda6-c5062ce6d59f" d="M445.2,447.54v-5.4h-2v-.85c1.47-.07,2-.48,2.16-1.58h1v7.83h1.91v1h-5.15v-1Z"/><path class="a98c90dd-7cb0-4697-bda6-c5062ce6d59f" d="M451.18,447v1.55h-1.5V447Z"/><path class="a98c90dd-7cb0-4697-bda6-c5062ce6d59f" d="M455.56,440.5c-1.34,0-2.15,1.28-2.15,3.26v.33a2.48,2.48,0,0,1,2.28-1.31,2.76,2.76,0,0,1,2.8,2.92,3,3,0,0,1-3.14,3.08c-2,0-3.16-1.66-3.16-4.51s1.23-4.76,3.37-4.76A2.61,2.61,0,0,1,458.4,442h-1.27A1.45,1.45,0,0,0,455.56,440.5Zm-1.94,5.23a1.93,1.93,0,0,0,1.9,2.08,1.83,1.83,0,0,0,1.74-2.06,1.76,1.76,0,0,0-1.74-2A1.89,1.89,0,0,0,453.62,445.73Z"/><path class="a98c90dd-7cb0-4697-bda6-c5062ce6d59f" d="M465.5,439.71v1h-4.12l-.3,2.82a2.54,2.54,0,0,1,2.05-.94,2.86,2.86,0,0,1,2.92,3,3,3,0,0,1-3.19,3.13,2.89,2.89,0,0,1-3.09-2.56H461a1.71,1.71,0,0,0,1.83,1.57,1.87,1.87,0,0,0,1.92-2.08,1.9,1.9,0,0,0-1.87-2.09,1.69,1.69,0,0,0-1.74,1.24l-1.28-.12.5-5Z"/><path class="a98c90dd-7cb0-4697-bda6-c5062ce6d59f" d="M467,442.49l.62-1.95H467v-1.39h1.45v1.55l-.75,1.79Zm2.21,0,.62-1.95h-.55v-1.39h1.45v1.55l-.75,1.79Z"/><path class="eca85ca6-44ed-4ff0-a722-3704de038f93" d="M426.84,442.6l.18-.18V442l-.18-.18h-3.65v-9.07a1.11,1.11,0,0,0-1.12-1.11H174.85l-.17.17v10H171l-.17.18v.38l.17.18Z"/><path class="b55b46dd-989b-48ad-92b7-28c6c06b4917" d="M423.08,442.09v-9.34a1,1,0,0,0-.95-1H174.79v10.3m252.11.39H171v-.39H426.9Z"/><line class="fdce9c31-c3f6-44fd-928e-b8d67e45c2c1" x1="434.43" y1="434.12" x2="434.43" y2="440.16"/><polygon class="a98c90dd-7cb0-4697-bda6-c5062ce6d59f" points="437.46 434.52 431.39 434.52 434.43 431.49 437.46 434.52"/><polygon class="a98c90dd-7cb0-4697-bda6-c5062ce6d59f" points="437.46 439.75 431.39 439.75 434.43 442.79 437.46 439.75"/><line class="fdce9c31-c3f6-44fd-928e-b8d67e45c2c1" x1="173.6" y1="449.6" x2="424.27" y2="449.6"/><polygon class="a98c90dd-7cb0-4697-bda6-c5062ce6d59f" points="174 446.56 174 452.63 170.97 449.6 174 446.56"/><polygon class="a98c90dd-7cb0-4697-bda6-c5062ce6d59f" points="423.87 446.56 423.87 452.63 426.9 449.6 423.87 446.56"/><rect class="a7d2e5d9-42cc-4b08-8e2b-1610690a5047" width="600" height="600"/></g></g></svg>