<svg xmlns="http://www.w3.org/2000/svg" viewBox="0 0 600 600"><defs><style>.fe31e73b-b62e-415c-bbb4-5d38fced434d{fill:#1d1d1b;}.a18733a5-fd9b-42bc-a822-a8bb80c61849,.ec944339-ac16-42c1-9fa8-e7acdf013f14{fill:none;}.ec944339-ac16-42c1-9fa8-e7acdf013f14{stroke:#1d1d1b;stroke-linecap:round;stroke-linejoin:round;stroke-width:0.5px;}.a0e889ec-f76a-4a52-9826-a176072b66fe{fill:#fff;}</style></defs><g id="e7956e84-6528-4e6e-b831-722313069474" data-name="Livello 2"><g id="b17b539b-967a-49c4-a3f6-6af8625477e8" data-name="Livello 1"><path class="fe31e73b-b62e-415c-bbb4-5d38fced434d" d="M288.94,224.76h-4.68v-1h6v.9a25.85,25.85,0,0,0-3.18,8h-1.34A27.34,27.34,0,0,1,288.94,224.76Z"/><path class="fe31e73b-b62e-415c-bbb4-5d38fced434d" d="M291.6,230.22a2.09,2.09,0,0,1,1.86-2.21V228a2,2,0,0,1-1.62-2c0-1.44,1.19-2.41,3-2.41s2.94,1,2.94,2.41a2,2,0,0,1-1.61,2V228a2.09,2.09,0,0,1,1.87,2.21c0,1.5-1.32,2.56-3.2,2.56S291.6,231.72,291.6,230.22Zm5.11-.08a1.94,1.94,0,0,0-3.84,0,1.94,1.94,0,0,0,3.84,0Zm-.17-4.16a1.77,1.77,0,1,0-1.75,1.51A1.54,1.54,0,0,0,296.54,226Z"/><path class="fe31e73b-b62e-415c-bbb4-5d38fced434d" d="M300.71,229.24c0-2,1.14-3.55,3.16-3.55a2.6,2.6,0,0,1,2.82,2.39h-1.25a1.48,1.48,0,0,0-1.58-1.43c-1.24,0-1.9,1-1.9,2.59s.69,2.6,1.9,2.6a1.63,1.63,0,0,0,1.67-1.5h1.17a2.61,2.61,0,0,1-2.86,2.44C301.81,232.78,300.71,231.35,300.71,229.24Z"/><path class="fe31e73b-b62e-415c-bbb4-5d38fced434d" d="M307.42,225.88h1.12v.86a2.29,2.29,0,0,1,2-1,1.84,1.84,0,0,1,1.83,1.23,2.69,2.69,0,0,1,2.38-1.23c1.55,0,2.16,1,2.16,2.48v4.37h-1.2v-3.72c0-1-.07-2.18-1.32-2.18-1.44,0-1.63,1.58-1.63,2.58v3.32h-1.19v-3.72c0-1-.09-2.18-1.34-2.18-1.44,0-1.63,1.58-1.63,2.58v3.32h-1.19Z"/><path class="fe31e73b-b62e-415c-bbb4-5d38fced434d" d="M289.63,246.8a1.73,1.73,0,0,0,1.89-1.67c0-1-.74-1.57-1.95-1.57h-.43v-1h.3c1.26,0,2-.56,2-1.54s-.71-1.52-1.77-1.52a1.74,1.74,0,0,0-1.86,1.89h-1.24a2.83,2.83,0,0,1,3.17-2.87c1.76,0,2.94,1,2.94,2.4a2.15,2.15,0,0,1-1.61,2.07v.06a2.09,2.09,0,0,1,1.74,2.16c0,1.51-1.36,2.57-3.21,2.57a2.86,2.86,0,0,1-3.13-3h1.26A1.82,1.82,0,0,0,289.63,246.8Z"/><path class="fe31e73b-b62e-415c-bbb4-5d38fced434d" d="M300.45,243.14c0,3.07-1.25,4.64-3.25,4.64s-3.24-1.65-3.24-4.64,1.24-4.62,3.24-4.62S300.45,240.15,300.45,243.14Zm-5.21,0c0,2.32.62,3.66,2,3.66s2-1.34,2-3.66-.63-3.64-2-3.64S295.24,240.78,295.24,243.14Z"/><path class="fe31e73b-b62e-415c-bbb4-5d38fced434d" d="M302.87,246v1.55h-1.5V246Z"/><path class="fe31e73b-b62e-415c-bbb4-5d38fced434d" d="M308.72,239.76H304v-1h6v.9a25.85,25.85,0,0,0-3.18,8h-1.34A27.09,27.09,0,0,1,308.72,239.76Z"/><path class="fe31e73b-b62e-415c-bbb4-5d38fced434d" d="M311.12,241.49l.63-2h-.56v-1.39h1.45v1.55l-.75,1.79Zm2.21,0,.63-2h-.56v-1.39h1.45v1.55l-.75,1.79Z"/><path class="fe31e73b-b62e-415c-bbb4-5d38fced434d" d="M287.05,359.52c1.32,0,2-1.21,2-3.25v-.51a2.31,2.31,0,0,1-2.17,1.23,2.7,2.7,0,0,1-2.86-2.87,2.92,2.92,0,0,1,3.08-2.88c2.11,0,3.2,1.64,3.2,4.5,0,3-1.13,4.77-3.22,4.77a2.7,2.7,0,0,1-3-2.42h1.23A1.58,1.58,0,0,0,287.05,359.52Zm-1.84-5.4A1.78,1.78,0,0,0,287,356a1.9,1.9,0,0,0,0-3.8A1.8,1.8,0,0,0,285.21,354.12Z"/><path class="fe31e73b-b62e-415c-bbb4-5d38fced434d" d="M298,355.87c0,3.07-1.25,4.64-3.25,4.64s-3.24-1.65-3.24-4.64,1.24-4.63,3.24-4.63S298,352.88,298,355.87Zm-5.21,0c0,2.31.62,3.65,2,3.65s2-1.34,2-3.65-.63-3.64-2-3.64S292.77,353.5,292.77,355.87Z"/><path class="fe31e73b-b62e-415c-bbb4-5d38fced434d" d="M300.66,357c0-2,1.14-3.55,3.16-3.55a2.6,2.6,0,0,1,2.82,2.39h-1.25a1.48,1.48,0,0,0-1.59-1.43c-1.23,0-1.89,1-1.89,2.59s.68,2.6,1.89,2.6a1.63,1.63,0,0,0,1.68-1.5h1.17a2.62,2.62,0,0,1-2.86,2.45C301.76,360.51,300.66,359.08,300.66,357Z"/><path class="fe31e73b-b62e-415c-bbb4-5d38fced434d" d="M307.37,353.61h1.11v.85a2.31,2.31,0,0,1,2-1,1.85,1.85,0,0,1,1.83,1.24,2.7,2.7,0,0,1,2.38-1.24c1.55,0,2.16,1,2.16,2.49v4.36h-1.2v-3.72c0-1-.08-2.18-1.32-2.18-1.45,0-1.63,1.59-1.63,2.59v3.31h-1.19v-3.72c0-1-.1-2.18-1.34-2.18-1.45,0-1.63,1.59-1.63,2.59v3.31h-1.19Z"/><path class="fe31e73b-b62e-415c-bbb4-5d38fced434d" d="M285.81,374.52a1.73,1.73,0,0,0,1.89-1.66c0-1-.74-1.58-1.95-1.58h-.43v-1h.3c1.26,0,2-.56,2-1.53s-.7-1.52-1.76-1.52a1.72,1.72,0,0,0-1.86,1.88h-1.24a2.84,2.84,0,0,1,3.17-2.87c1.76,0,2.94,1,2.94,2.4a2.13,2.13,0,0,1-1.61,2.07v.07a2.08,2.08,0,0,1,1.74,2.15c0,1.51-1.36,2.58-3.21,2.58a2.86,2.86,0,0,1-3.13-3h1.26A1.82,1.82,0,0,0,285.81,374.52Z"/><path class="fe31e73b-b62e-415c-bbb4-5d38fced434d" d="M296,366.43v1H291.9l-.3,2.82a2.56,2.56,0,0,1,2-.93,2.86,2.86,0,0,1,2.91,3,3,3,0,0,1-3.18,3.13,2.89,2.89,0,0,1-3.1-2.56h1.25a1.73,1.73,0,0,0,1.84,1.57,1.88,1.88,0,0,0,1.92-2.08,1.91,1.91,0,0,0-1.87-2.09,1.71,1.71,0,0,0-1.75,1.23l-1.27-.12.5-5Z"/><path class="fe31e73b-b62e-415c-bbb4-5d38fced434d" d="M299.05,373.77v1.54h-1.5v-1.54Z"/><path class="fe31e73b-b62e-415c-bbb4-5d38fced434d" d="M305,373.06v2.25h-1.21v-2.25h-4.07v-1l3.88-5.65H305V372h1.59v1Zm-1.15-1v-1.76c0-.62,0-1.83.05-2.48h-.07a15.41,15.41,0,0,1-.86,1.36L301,372Z"/><path class="fe31e73b-b62e-415c-bbb4-5d38fced434d" d="M310.71,374.52a1.72,1.72,0,0,0,1.88-1.66c0-1-.74-1.58-1.95-1.58h-.43v-1h.3c1.26,0,2-.56,2-1.53s-.7-1.52-1.77-1.52a1.73,1.73,0,0,0-1.86,1.88h-1.23a2.83,2.83,0,0,1,3.17-2.87c1.75,0,2.94,1,2.94,2.4a2.14,2.14,0,0,1-1.62,2.07v.07a2.08,2.08,0,0,1,1.75,2.15c0,1.51-1.37,2.58-3.22,2.58a2.86,2.86,0,0,1-3.13-3h1.26A1.82,1.82,0,0,0,310.71,374.52Z"/><path class="fe31e73b-b62e-415c-bbb4-5d38fced434d" d="M314.84,369.22l.62-2h-.55v-1.39h1.45v1.54l-.75,1.8Zm2.21,0,.62-2h-.55v-1.39h1.45v1.54l-.75,1.8Z"/><path class="fe31e73b-b62e-415c-bbb4-5d38fced434d" d="M446.86,279.05v-5.39h-2v-.85c1.46-.07,2-.48,2.15-1.58h1v7.82H450v1.06h-5.15v-1.06Z"/><path class="fe31e73b-b62e-415c-bbb4-5d38fced434d" d="M454.68,279.31a1.73,1.73,0,0,0,1.89-1.66c0-1-.74-1.57-1.95-1.57h-.43v-1h.3c1.26,0,2-.56,2-1.54s-.71-1.52-1.77-1.52a1.74,1.74,0,0,0-1.86,1.89H451.6a2.84,2.84,0,0,1,3.18-2.88c1.75,0,2.93,1,2.93,2.41a2.13,2.13,0,0,1-1.61,2.06v.07a2.08,2.08,0,0,1,1.74,2.16c0,1.51-1.36,2.57-3.21,2.57a2.86,2.86,0,0,1-3.13-3h1.26A1.81,1.81,0,0,0,454.68,279.31Z"/><path class="fe31e73b-b62e-415c-bbb4-5d38fced434d" d="M460.64,276.75c0-2,1.14-3.55,3.16-3.55a2.61,2.61,0,0,1,2.82,2.4h-1.25a1.48,1.48,0,0,0-1.59-1.43c-1.23,0-1.89,1-1.89,2.58s.69,2.6,1.89,2.6a1.62,1.62,0,0,0,1.68-1.49h1.17a2.61,2.61,0,0,1-2.86,2.44C461.74,280.3,460.64,278.87,460.64,276.75Z"/><path class="fe31e73b-b62e-415c-bbb4-5d38fced434d" d="M467.35,273.4h1.11v.86a2.28,2.28,0,0,1,2-1,1.84,1.84,0,0,1,1.83,1.23,2.69,2.69,0,0,1,2.38-1.23c1.55,0,2.16,1,2.16,2.48v4.37h-1.2v-3.72c0-1-.07-2.19-1.32-2.19-1.45,0-1.63,1.59-1.63,2.59v3.32h-1.19v-3.72c0-1-.09-2.19-1.34-2.19-1.45,0-1.63,1.59-1.63,2.59v3.32h-1.19Z"/><path class="fe31e73b-b62e-415c-bbb4-5d38fced434d" d="M449.81,286.23v1h-4.12l-.3,2.82a2.54,2.54,0,0,1,2.05-.94,2.87,2.87,0,0,1,2.92,3,3,3,0,0,1-3.19,3.13,2.88,2.88,0,0,1-3.09-2.56h1.24a1.74,1.74,0,0,0,1.84,1.57,1.88,1.88,0,0,0,1.92-2.08,1.91,1.91,0,0,0-1.87-2.09,1.69,1.69,0,0,0-1.74,1.24l-1.28-.12.5-5Z"/><path class="fe31e73b-b62e-415c-bbb4-5d38fced434d" d="M452.84,293.56v1.55h-1.5v-1.55Z"/><path class="fe31e73b-b62e-415c-bbb4-5d38fced434d" d="M456.67,294.05v-5.39h-2v-.85c1.47-.07,2-.48,2.16-1.58h1v7.82h1.91v1.06h-5.15v-1.06Z"/><path class="fe31e73b-b62e-415c-bbb4-5d38fced434d" d="M461.56,294.73a3.72,3.72,0,0,1,.7-2.25,7.36,7.36,0,0,1,2-1.6c1.46-.88,2-1.45,2-2.35a1.47,1.47,0,0,0-1.65-1.51c-1.11,0-1.74.69-1.79,2h-1.22a2.89,2.89,0,0,1,3.13-3,2.55,2.55,0,0,1,2.8,2.56c0,1.17-.67,2-2.37,3.07a7.06,7.06,0,0,0-1.68,1.26,1.93,1.93,0,0,0-.52,1.13h4.61v1.06h-6Z"/><path class="fe31e73b-b62e-415c-bbb4-5d38fced434d" d="M468.63,289l.63-1.95h-.56v-1.39h1.45v1.54l-.75,1.8Zm2.21,0,.63-1.95h-.56v-1.39h1.45v1.54l-.75,1.8Z"/><line class="ec944339-ac16-42c1-9fa8-e7acdf013f14" x1="436.09" y1="267.7" x2="436.09" y2="299.61"/><polygon class="fe31e73b-b62e-415c-bbb4-5d38fced434d" points="439.13 268.1 433.05 268.1 436.09 265.07 439.13 268.1"/><polygon class="fe31e73b-b62e-415c-bbb4-5d38fced434d" points="439.13 299.21 433.05 299.21 436.09 302.24 439.13 299.21"/><path class="fe31e73b-b62e-415c-bbb4-5d38fced434d" d="M449,323v2.25h-1.21V323h-4.06v-1l3.88-5.64H449V322h1.6v1Zm-1.14-1v-1.76c0-.62,0-1.83.05-2.48h-.08a13.27,13.27,0,0,1-.85,1.36L445,322Z"/><path class="fe31e73b-b62e-415c-bbb4-5d38fced434d" d="M452.84,323.74v1.54h-1.5v-1.54Z"/><path class="fe31e73b-b62e-415c-bbb4-5d38fced434d" d="M458.82,323v2.25h-1.21V323h-4.07v-1l3.89-5.64h1.39V322h1.6v1Zm-1.15-1v-1.76c0-.62,0-1.83.06-2.48h-.08a15.41,15.41,0,0,1-.86,1.36l-2,2.89Z"/><path class="fe31e73b-b62e-415c-bbb4-5d38fced434d" d="M462.91,321.93c0-2,1.15-3.55,3.16-3.55a2.59,2.59,0,0,1,2.82,2.39h-1.24a1.49,1.49,0,0,0-1.59-1.43c-1.24,0-1.9,1-1.9,2.59s.69,2.6,1.9,2.6a1.63,1.63,0,0,0,1.68-1.5h1.17a2.63,2.63,0,0,1-2.86,2.45C464,325.48,462.91,324.05,462.91,321.93Z"/><path class="fe31e73b-b62e-415c-bbb4-5d38fced434d" d="M469.62,318.57h1.12v.86a2.3,2.3,0,0,1,2-1,1.85,1.85,0,0,1,1.84,1.24,2.68,2.68,0,0,1,2.38-1.24c1.54,0,2.15,1,2.15,2.48v4.37h-1.19v-3.72c0-1-.08-2.18-1.33-2.18-1.44,0-1.62,1.59-1.62,2.59v3.31h-1.2v-3.72c0-1-.09-2.18-1.34-2.18-1.44,0-1.62,1.59-1.62,2.59v3.31h-1.2Z"/><path class="fe31e73b-b62e-415c-bbb4-5d38fced434d" d="M446.86,339.23v-5.4h-2V333c1.46-.08,2-.48,2.15-1.59h1v7.83H450v1h-5.15v-1Z"/><path class="fe31e73b-b62e-415c-bbb4-5d38fced434d" d="M452.84,338.74v1.54h-1.5v-1.54Z"/><path class="fe31e73b-b62e-415c-bbb4-5d38fced434d" d="M458.69,332.46H454V331.4h6v.9a25.85,25.85,0,0,0-3.18,8h-1.34A26.93,26.93,0,0,1,458.69,332.46Z"/><path class="fe31e73b-b62e-415c-bbb4-5d38fced434d" d="M464.5,339.49a1.72,1.72,0,0,0,1.88-1.66c0-1-.74-1.58-1.95-1.58H464v-1h.3c1.26,0,2-.56,2-1.53s-.7-1.52-1.77-1.52a1.73,1.73,0,0,0-1.86,1.88h-1.23a2.83,2.83,0,0,1,3.17-2.87c1.76,0,2.94,1,2.94,2.4a2.13,2.13,0,0,1-1.61,2.07v.07a2.08,2.08,0,0,1,1.74,2.15c0,1.51-1.37,2.58-3.21,2.58a2.87,2.87,0,0,1-3.14-3h1.27A1.81,1.81,0,0,0,464.5,339.49Z"/><path class="fe31e73b-b62e-415c-bbb4-5d38fced434d" d="M468.63,334.19l.63-1.95h-.56v-1.4h1.45v1.55l-.75,1.8Zm2.21,0,.63-1.95h-.56v-1.4h1.45v1.55l-.75,1.8Z"/><line class="ec944339-ac16-42c1-9fa8-e7acdf013f14" x1="436.09" y1="325.03" x2="436.09" y2="332.63"/><polygon class="fe31e73b-b62e-415c-bbb4-5d38fced434d" points="439.13 325.44 433.05 325.44 436.09 322.4 439.13 325.44"/><polygon class="fe31e73b-b62e-415c-bbb4-5d38fced434d" points="439.13 332.22 433.05 332.22 436.09 335.26 439.13 332.22"/><line class="ec944339-ac16-42c1-9fa8-e7acdf013f14" x1="173.95" y1="342.09" x2="426.38" y2="342.09"/><polygon class="fe31e73b-b62e-415c-bbb4-5d38fced434d" points="174.36 339.06 174.36 345.13 171.32 342.09 174.36 339.06"/><polygon class="fe31e73b-b62e-415c-bbb4-5d38fced434d" points="425.97 339.06 425.97 345.13 429.01 342.09 425.97 339.06"/><path class="a0e889ec-f76a-4a52-9826-a176072b66fe" d="M428.93,264.9H171.4a.16.16,0,0,0-.16.17v37.17a.16.16,0,0,0,.16.16H428.93a.16.16,0,0,0,.16-.16V265.07a.16.16,0,0,0-.16-.17"/><path class="ec944339-ac16-42c1-9fa8-e7acdf013f14" d="M186.93,284.44h.13m-.26,0,.13,0m-.26-.09.13,0m-.21-.09.08,0m-.21-.13.13.09m-.22-.18.09.09m-.18-.17.09.08m-.18-.21.09.13m-.13-.22,0,.09m-.09-.22.05.13m-.09-.26.05.13m-.05-.26v.13m0-.26v.13m0-.26,0,.13m.09-.27-.05.13m.09-.26,0,.13m.13-.22-.09.09m.18-.17-.09.08m.18-.17-.09.09m.22-.18-.13.09m.21-.13-.08,0m.21-.08-.13,0m.26-.09-.13.05m.27-.05h-.13m221.43,0h-.13m.27.05-.13-.05m.26.09-.13,0m.26.08-.13,0m.21.13-.08-.09m.17.18-.09-.09m.18.17-.09-.08m.18.17-.09-.09m.13.22,0-.13m.09.27,0-.13m.09.26-.05-.13m.05.26v-.13m0,.26v-.13m0,.26,0-.13m-.09.26,0-.13m-.08.22,0-.09m-.13.22.09-.13m-.18.21.09-.08m-.18.17.09-.09m-.17.18.08-.09m-.21.13.13,0m-.26.09.13,0m-.27.09.13,0m-.26,0h.13m-.13-2H187.07m0,2H408.24m20.69,17.8H171.4m0-37.17H428.93m0,0v37.17M171.4,265.07v37.17"/><path class="a0e889ec-f76a-4a52-9826-a176072b66fe" d="M428.93,334.37h-4.81V323.13s0,0,0,0,0,0,0,0l0-.06v0s0,0,0,0,0,0,0-.05l-.05-.08h0s0,0,0,0l-.07-.07,0-.06s0,0-.05,0,0-.05,0-.06l-.08,0h0l-.08-.05h0l-.09,0s0,0,0,0,0,0,0,0H176.9s0,0,0,0,0,0,0,0l-.09,0h0l-.09.05-.08,0s0,0,0,0h0l-.08.09s0,0,0,0h0l0,.09,0,.09h0l0,.08s0,0,0,0,0,0,0,0v11.33H171.4a.16.16,0,0,0-.16.16h0v.57a.16.16,0,0,0,.16.16H428.93a.16.16,0,0,0,.16-.16v-.57a.16.16,0,0,0-.16-.16"/><path class="ec944339-ac16-42c1-9fa8-e7acdf013f14" d="M423.47,322.57h-.13m.22,0-.09,0m.18.08-.09,0m.17.09-.08,0m.13.12,0-.08m.13.17-.09-.09m.13.18-.05-.09m.05.18V323m0,.17,0-.08m-247.49,0v.08m0-.17,0,.09m.09-.18,0,.09m.09-.18-.05.09m.14-.17-.09.08m.18-.13-.09.05m.17-.09-.09.05m.18-.09-.09,0m.18,0h-.09m247.05,12v-11.4m-247-.56H423.34m-246.92.56v11.4m252.51.56H171.4m257.53-.56v.56m-257.53-.56H428.93m-257.53.56v-.56"/><line class="ec944339-ac16-42c1-9fa8-e7acdf013f14" x1="191.25" y1="257.9" x2="409.07" y2="257.9"/><polygon class="fe31e73b-b62e-415c-bbb4-5d38fced434d" points="191.66 254.87 191.66 260.94 188.62 257.9 191.66 254.87"/><polygon class="fe31e73b-b62e-415c-bbb4-5d38fced434d" points="408.67 254.87 408.67 260.94 411.7 257.9 408.67 254.87"/><rect class="a18733a5-fd9b-42bc-a822-a8bb80c61849" width="600" height="600"/></g></g></svg>