<?xml version="1.0" encoding="utf-8"?>
<!-- Generator: Adobe Illustrator 25.3.1, SVG Export Plug-In . SVG Version: 6.00 Build 0)  -->
<svg version="1.1" id="Livello_1" xmlns="http://www.w3.org/2000/svg" xmlns:xlink="http://www.w3.org/1999/xlink" x="0px" y="0px"
	 viewBox="0 0 600 600" style="enable-background:new 0 0 600 600;" xml:space="preserve">
<style type="text/css">
	.st0{fill:#1D1D1B;}
	.st1{fill:none;stroke:#1D1D1B;stroke-width:0.5;stroke-linecap:round;stroke-linejoin:round;}
	.st2{fill:#FFFFFF;stroke:#1D1D1B;stroke-width:0.5;stroke-linecap:round;}
	.st3{fill:#FFFFFF;}
	.st4{fill:none;stroke:#1D1D1B;stroke-width:0.5;stroke-linecap:round;}
	.st5{fill:none;}
</style>
<g id="ef637ccb-8a5b-4a54-a94c-dc75edb70939">
	<g id="aa017285-b734-4a00-a628-0cae05753d54">
		<path class="st0" d="M370.4,275.6l0.8-1.1c-0.8-1-1.2-2.3-1.1-3.5c0-2.9,1.7-4.9,4.3-4.9c0.9,0,1.7,0.2,2.5,0.8l0.6-0.9l0.8,0.6
			l-0.7,1c0.8,1,1.2,2.2,1.2,3.5c0,3-1.7,4.9-4.4,4.9c-0.9,0-1.7-0.2-2.5-0.8l-0.7,1L370.4,275.6z M376.2,267.8
			c-0.5-0.4-1.1-0.7-1.8-0.7c-1.8,0-3,1.7-3,3.9c0,0.9,0.2,1.7,0.6,2.5L376.2,267.8z M377.5,271c0-0.9-0.2-1.7-0.6-2.5l-4.2,5.7
			c0.5,0.4,1.1,0.7,1.8,0.6C376.3,274.9,377.5,273.2,377.5,271L377.5,271z"/>
		<path class="st0" d="M384.5,274.7v-5.4h-2v-0.9c1.5-0.1,2-0.5,2.2-1.6h1v7.8h1.9v1.1h-5.1v-1.1H384.5z"/>
		<path class="st0" d="M389.4,275.3c0-0.8,0.2-1.6,0.7-2.2c0.6-0.6,1.2-1.2,2-1.6c1.5-0.9,2-1.5,2-2.4c0-0.8-0.6-1.5-1.4-1.5
			c-0.1,0-0.2,0-0.2,0c-1.1,0-1.7,0.7-1.8,2h-1.2c-0.1-1.6,1.2-2.9,2.8-3c0.1,0,0.2,0,0.4,0c1.4-0.1,2.6,0.9,2.8,2.3
			c0,0.1,0,0.2,0,0.3c0,1.2-0.7,2-2.4,3.1c-0.6,0.3-1.2,0.8-1.7,1.3c-0.3,0.3-0.5,0.7-0.5,1.1h4.6v1.1h-6L389.4,275.3z"/>
		<path class="st0" d="M398,274.2v1.5h-1.5v-1.5H398z"/>
		<path class="st0" d="M404.8,266.8v1h-4.1l-0.3,2.8c0.5-0.6,1.3-1,2.1-0.9c1.6,0,2.9,1.2,2.9,2.8c0,0.1,0,0.1,0,0.2
			c0.1,1.7-1.2,3.1-2.9,3.1c-0.1,0-0.2,0-0.3,0c-1.6,0.1-2.9-1-3.1-2.6h1.2c0.1,0.9,0.9,1.6,1.8,1.6c1,0,1.9-0.8,1.9-1.8
			c0-0.1,0-0.2,0-0.3c0.1-1-0.7-2-1.7-2.1c-0.1,0-0.1,0-0.2,0c-0.8-0.1-1.5,0.5-1.7,1.2l-1.3-0.1l0.5-5L404.8,266.8z"/>
		<path class="st0" d="M408.1,272.4c0-2,1.1-3.5,3.2-3.5c1.4-0.1,2.7,0.9,2.8,2.4c0,0,0,0,0,0h-1.2c0-0.8-0.7-1.5-1.5-1.4
			c0,0,0,0-0.1,0c-1.2,0-1.9,1-1.9,2.6s0.7,2.6,1.9,2.6c0.9,0,1.6-0.6,1.7-1.5h1.2c-0.1,1.4-1.3,2.5-2.8,2.4c0,0-0.1,0-0.1,0
			C409.2,275.9,408.1,274.5,408.1,272.4z"/>
		<path class="st0" d="M414.8,269h1.1v0.9c0.4-0.7,1.2-1,2-1c0.8,0,1.6,0.5,1.8,1.2c0.5-0.8,1.4-1.3,2.4-1.2c1.5,0,2.2,1,2.2,2.5
			v4.4h-1.2V272c0-1-0.1-2.2-1.3-2.2c-1.4,0-1.6,1.6-1.6,2.6v3.3h-1.2V272c0-1-0.1-2.2-1.3-2.2c-1.4,0-1.6,1.6-1.6,2.6v3.3h-1.2
			L414.8,269z"/>
		<path class="st0" d="M370.4,290.6l0.8-1.1c-0.8-1-1.2-2.3-1.1-3.5c0-2.9,1.7-4.9,4.3-4.9c0.9,0,1.7,0.2,2.5,0.8l0.6-0.9l0.8,0.6
			l-0.7,1c0.8,1,1.2,2.2,1.2,3.5c0,3-1.7,4.9-4.4,4.9c-0.9,0-1.7-0.2-2.5-0.8l-0.7,1L370.4,290.6z M376.2,282.8
			c-0.5-0.4-1.1-0.7-1.8-0.7c-1.8,0-3,1.7-3,3.9c0,0.9,0.2,1.7,0.6,2.5L376.2,282.8z M377.5,286c0-0.9-0.2-1.7-0.6-2.5l-4.2,5.7
			c0.5,0.4,1.1,0.7,1.8,0.6C376.3,289.9,377.5,288.2,377.5,286L377.5,286z"/>
		<path class="st0" d="M386.6,288.5v2.2h-1.2v-2.2h-4.1v-1l3.9-5.6h1.4v5.6h1.6v1L386.6,288.5z M385.5,287.5v-1.8c0-0.6,0-1.8,0-2.5
			h-0.1c-0.3,0.5-0.5,0.9-0.9,1.4l-2,2.9L385.5,287.5z"/>
		<path class="st0" d="M390.5,289.2v1.5H389v-1.5H390.5z"/>
		<path class="st0" d="M394.5,289.9c1.3,0,2-1.2,2-3.2v-0.5c-0.4,0.8-1.3,1.3-2.2,1.2c-1.5,0.1-2.8-1-2.9-2.5c0-0.1,0-0.2,0-0.3
			c0-1.6,1.3-2.9,3-2.9c0,0,0.1,0,0.1,0c2.1,0,3.2,1.6,3.2,4.5c0,3-1.1,4.8-3.2,4.8c-1.5,0.2-2.8-0.9-3-2.3c0,0,0,0,0-0.1h1.2
			C392.8,289.4,393.5,290,394.5,289.9C394.4,289.9,394.4,289.9,394.5,289.9z M392.6,284.5c-0.1,1,0.7,1.8,1.7,1.9c0,0,0.1,0,0.1,0
			c1-0.1,1.8-1,1.8-2c-0.1-0.9-0.8-1.7-1.8-1.8c-1,0-1.8,0.8-1.8,1.8C392.6,284.4,392.6,284.5,392.6,284.5L392.6,284.5z"/>
		<path class="st0" d="M399.2,290.3c0-0.8,0.2-1.6,0.7-2.2c0.6-0.6,1.2-1.2,2-1.6c1.5-0.9,2-1.5,2-2.4c0-0.8-0.6-1.5-1.4-1.5
			c-0.1,0-0.2,0-0.2,0c-1.1,0-1.7,0.7-1.8,2h-1.2c-0.1-1.6,1.2-2.9,2.8-3c0.1,0,0.2,0,0.4,0c1.4-0.1,2.6,0.9,2.8,2.3
			c0,0.1,0,0.2,0,0.3c0,1.2-0.7,2-2.4,3.1c-0.6,0.3-1.2,0.8-1.7,1.3c-0.3,0.3-0.5,0.7-0.5,1.1h4.6v1.1h-6L399.2,290.3z"/>
		<path class="st0" d="M406.2,284.6l0.6-2h-0.6v-1.4h1.5v1.5l-0.8,1.8L406.2,284.6z M408.4,284.6l0.6-2h-0.6v-1.4h1.5v1.5l-0.8,1.8
			L408.4,284.6z"/>
		<line class="st1" x1="362.5" y1="224.8" x2="362.5" y2="328.8"/>
		<polygon class="st0" points="365.5,225.2 359.4,225.2 362.5,222.2 		"/>
		<polygon class="st0" points="365.5,328.4 359.4,328.4 362.5,331.5 		"/>
		<path class="st0" d="M370.6,360.9c0-0.8,0.2-1.6,0.7-2.2c0.6-0.6,1.2-1.2,2-1.6c1.5-0.9,2-1.5,2-2.4c0-0.8-0.6-1.5-1.4-1.5
			c-0.1,0-0.2,0-0.2,0c-1.1,0-1.7,0.7-1.8,2h-1.2c-0.1-1.6,1.2-2.9,2.8-3c0.1,0,0.2,0,0.4,0c1.4-0.1,2.6,0.9,2.8,2.3
			c0,0.1,0,0.2,0,0.3c0,1.2-0.7,2-2.4,3.1c-0.6,0.3-1.2,0.8-1.7,1.3c-0.3,0.3-0.5,0.7-0.5,1.1h4.6v1h-6V360.9z"/>
		<path class="st0" d="M379.2,359.7v1.5h-1.5v-1.5H379.2z"/>
		<path class="st0" d="M380.2,358.9c-0.1-1.1,0.8-2.1,1.9-2.2v-0.1c-1-0.2-1.6-1-1.6-2c0-1.4,1.2-2.4,3-2.4s2.9,1,2.9,2.4
			c0,1-0.7,1.8-1.6,2v0.1c1.1,0.1,1.9,1.1,1.9,2.2c0,1.5-1.3,2.6-3.2,2.6S380.2,360.4,380.2,358.9z M385.3,358.8
			c0-0.9-0.8-1.7-1.7-1.7c-0.1,0-0.2,0-0.2,0c-0.9-0.1-1.8,0.5-1.9,1.5c0,0.1,0,0.1,0,0.2c0,1,0.8,1.7,1.8,1.7c0,0,0.1,0,0.1,0
			c0.9,0.1,1.8-0.6,1.9-1.5C385.3,358.9,385.3,358.9,385.3,358.8z M385.1,354.6c0-0.9-0.7-1.5-1.6-1.5c-0.1,0-0.1,0-0.2,0
			c-0.8-0.1-1.6,0.5-1.7,1.3c0,0.1,0,0.1,0,0.2c0,0.9,0.7,1.5,1.8,1.5c0.8,0.1,1.6-0.5,1.7-1.3C385.1,354.8,385.1,354.7,385.1,354.6
			L385.1,354.6z"/>
		<path class="st0" d="M389.3,357.9c0-2,1.1-3.5,3.2-3.5c1.4-0.1,2.7,0.9,2.8,2.3c0,0,0,0,0,0H394c0-0.8-0.7-1.5-1.5-1.4
			c0,0,0,0,0,0c-1.2,0-1.9,1-1.9,2.6s0.7,2.6,1.9,2.6c0.9,0,1.6-0.6,1.7-1.5h1.2c-0.1,1.4-1.3,2.5-2.8,2.4c0,0-0.1,0-0.1,0
			C390.4,361.4,389.3,360,389.3,357.9z"/>
		<path class="st0" d="M396,354.5h1.1v0.9c0.4-0.7,1.2-1,2-1c0.8,0,1.6,0.5,1.8,1.2c0.5-0.8,1.4-1.3,2.4-1.2c1.5,0,2.1,1,2.1,2.5
			v4.4h-1.2v-3.7c0-1-0.1-2.2-1.3-2.2c-1.4,0-1.6,1.6-1.6,2.6v3.3h-1.2v-3.7c0-1-0.1-2.2-1.3-2.2c-1.4,0-1.6,1.6-1.6,2.6v3.3H396
			V354.5z"/>
		<path class="st0" d="M373.2,375.2v-5.4h-2V369c1.5-0.1,2-0.5,2.1-1.6h1v7.8h1.9v1h-5.1v-1L373.2,375.2z"/>
		<path class="st0" d="M379.2,374.7v1.5h-1.5v-1.5H379.2z"/>
		<path class="st0" d="M383.1,375.2v-5.4h-2V369c1.5-0.1,2-0.5,2.2-1.6h1v7.8h1.9v1H381v-1L383.1,375.2z"/>
		<path class="st0" d="M387.5,370.1l0.6-2h-0.6v-1.4h1.4v1.5l-0.8,1.8L387.5,370.1z M389.7,370.1l0.6-2h-0.6v-1.4h1.5v1.5l-0.8,1.8
			L389.7,370.1z"/>
		<line class="st1" x1="362.5" y1="354.1" x2="362.5" y2="375.5"/>
		<polygon class="st0" points="365.5,354.5 359.4,354.5 362.5,351.5 		"/>
		<polygon class="st0" points="365.5,375.1 359.4,375.1 362.5,378.1 		"/>
		<path class="st2" d="M294.9,378.1h11.9v-2.7h-11.9V378.1z M246.3,375.4h109.2v-0.8H246.3V375.4z M252.7,374.6H349v-23.2h-96.4
			L252.7,374.6z"/>
		<path class="st3" d="M295.9,276.8c0-2.8,2.2-5,5-5s5,2.2,5,5s-2.2,5-5,5S295.9,279.6,295.9,276.8 M294.8,276.8
			c0-3.4,2.7-6.1,6.1-6.1s6.1,2.7,6.1,6.1c0,3.4-2.7,6.1-6.1,6.1l0,0C297.5,282.9,294.8,280.2,294.8,276.8 M246.3,276.8
			c0-30.2,24.5-54.6,54.6-54.6c30.2,0,54.6,24.5,54.6,54.6c0,30.2-24.5,54.6-54.6,54.6C270.7,331.5,246.3,307,246.3,276.8
			L246.3,276.8"/>
		<path class="st4" d="M295.9,276.8c0-2.8,2.2-5,5-5s5,2.2,5,5s-2.2,5-5,5S295.9,279.6,295.9,276.8z M294.8,276.8
			c0-3.4,2.7-6.1,6.1-6.1s6.1,2.7,6.1,6.1c0,3.4-2.7,6.1-6.1,6.1l0,0C297.5,282.9,294.8,280.2,294.8,276.8z M246.3,276.8
			c0-30.2,24.5-54.6,54.6-54.6c30.2,0,54.6,24.5,54.6,54.6c0,30.2-24.5,54.6-54.6,54.6C270.7,331.5,246.3,307,246.3,276.8
			L246.3,276.8z"/>
		<path class="st0" d="M279.2,403.2l0.8-1.1c-0.8-1-1.2-2.3-1.1-3.5c0-2.9,1.7-4.9,4.3-4.9c0.9,0,1.7,0.2,2.5,0.8l0.6-0.9l0.8,0.6
			l-0.7,1c0.8,1,1.2,2.2,1.2,3.5c0,3-1.7,4.9-4.4,4.9c-0.9,0-1.7-0.2-2.5-0.8l-0.7,1L279.2,403.2z M285,395.4
			c-0.5-0.4-1.1-0.7-1.8-0.7c-1.8,0-3,1.7-3,3.9c0,0.9,0.2,1.7,0.6,2.5L285,395.4z M286.2,398.6c0-0.9-0.2-1.7-0.6-2.5l-4.2,5.7
			c0.5,0.4,1.1,0.7,1.8,0.6C285.1,402.5,286.2,400.9,286.2,398.6z"/>
		<path class="st0" d="M293.2,402.3v-5.4h-2V396c1.5-0.1,2-0.5,2.2-1.6h1v7.8h1.9v1h-5.1v-1L293.2,402.3z"/>
		<path class="st0" d="M300.8,402.3v-5.4h-2V396c1.5-0.1,2-0.5,2.2-1.6h1v7.8h1.9v1h-5.1v-1L300.8,402.3z"/>
		<path class="st0" d="M307,400c0-2,1.1-3.5,3.1-3.5c1.4-0.1,2.7,0.9,2.8,2.4c0,0,0,0,0,0h-1.2c0-0.8-0.7-1.5-1.5-1.4c0,0,0,0,0,0
			c-1.2,0-1.9,1-1.9,2.6s0.7,2.6,1.9,2.6c0.9,0,1.6-0.6,1.7-1.5h1.2c-0.1,1.4-1.3,2.5-2.8,2.4c0,0-0.1,0-0.1,0
			C308.1,403.5,307,402.1,307,400z"/>
		<path class="st0" d="M313.7,396.6h1.1v0.9c0.4-0.7,1.2-1,2-1c0.8,0,1.6,0.5,1.8,1.2c0.5-0.8,1.4-1.3,2.4-1.2c1.5,0,2.2,1,2.2,2.5
			v4.4H322v-3.7c0-1-0.1-2.2-1.3-2.2c-1.4,0-1.6,1.6-1.6,2.6v3.3h-1.2v-3.7c0-1-0.1-2.2-1.3-2.2c-1.4,0-1.6,1.6-1.6,2.6v3.3h-1.2
			L313.7,396.6z"/>
		<path class="st0" d="M281.6,418.2l0.8-1.1c-0.8-1-1.2-2.3-1.1-3.5c0-2.9,1.7-4.9,4.3-4.9c0.9,0,1.7,0.2,2.5,0.8l0.6-0.9l0.8,0.6
			l-0.7,1c0.8,1,1.2,2.2,1.2,3.5c0,3-1.7,4.9-4.4,4.9c-0.9,0-1.7-0.2-2.5-0.8l-0.7,1L281.6,418.2z M287.4,410.4
			c-0.5-0.4-1.1-0.7-1.8-0.7c-1.8,0-3,1.7-3,3.9c0,0.9,0.2,1.7,0.6,2.5L287.4,410.4z M288.7,413.6c0-0.9-0.2-1.7-0.6-2.5l-4.2,5.7
			c0.5,0.4,1.1,0.7,1.8,0.6C287.5,417.5,288.7,415.9,288.7,413.6z"/>
		<path class="st0" d="M297.8,416.1v2.2h-1.2v-2.2h-4.1v-1l3.9-5.6h1.4v5.6h1.6v1L297.8,416.1z M296.7,415.1v-1.8
			c0-0.6,0-1.8,0.1-2.5h-0.1c-0.3,0.5-0.5,0.9-0.9,1.4l-2,2.9L296.7,415.1z"/>
		<path class="st0" d="M301.6,416.8v1.5h-1.5v-1.5H301.6z"/>
		<path class="st0" d="M305.8,417.5c1,0.1,1.8-0.6,1.9-1.6c0,0,0-0.1,0-0.1c0-1-0.7-1.6-2-1.6h-0.4v-1h0.3c1.3,0,2-0.6,2-1.5
			s-0.7-1.5-1.8-1.5c-1-0.1-1.8,0.7-1.9,1.6c0,0.1,0,0.2,0,0.3h-1.2c0-1.6,1.2-2.9,2.8-2.9c0.1,0,0.3,0,0.4,0c1.8,0,2.9,1,2.9,2.4
			c0,1-0.7,1.8-1.6,2.1v0.1c1,0.2,1.8,1.1,1.7,2.2c0,1.5-1.4,2.6-3.2,2.6c-1.6,0.2-3-1-3.1-2.6c0-0.1,0-0.3,0-0.4h1.3
			c-0.1,1,0.6,1.9,1.6,2C305.6,417.5,305.7,417.5,305.8,417.5z"/>
		<path class="st0" d="M313.3,417.5c1,0.1,1.8-0.6,1.9-1.6c0,0,0-0.1,0-0.1c0-1-0.7-1.6-2-1.6h-0.4v-1h0.3c1.3,0,2-0.6,2-1.5
			c0-0.9-0.7-1.5-1.6-1.5c-0.1,0-0.1,0-0.2,0c-1-0.1-1.8,0.7-1.9,1.6c0,0.1,0,0.2,0,0.3h-1.2c0-1.6,1.2-2.9,2.8-2.9
			c0.1,0,0.3,0,0.4,0c1.8,0,2.9,1,2.9,2.4c0,1-0.7,1.8-1.6,2.1v0.1c1,0.2,1.8,1.1,1.7,2.2c0,1.5-1.4,2.6-3.2,2.6
			c-1.6,0.2-3-1-3.1-2.6c0-0.1,0-0.3,0-0.4h1.3c-0.1,1,0.6,1.9,1.6,2C313.1,417.5,313.2,417.5,313.3,417.5z"/>
		<path class="st0" d="M317.4,412.2l0.6-2h-0.6v-1.4h1.5v1.5l-0.8,1.8H317.4z M319.6,412.2l0.6-2h-0.6v-1.4h1.5v1.5l-0.8,1.8H319.6z
			"/>
		<line class="st1" x1="255.3" y1="385.1" x2="346.4" y2="385.1"/>
		<polygon class="st0" points="255.7,382.1 255.7,388.2 252.7,385.1 		"/>
		<polygon class="st0" points="346,382.1 346,388.2 349,385.1 		"/>
		<rect class="st5" width="600" height="600"/>
	</g>
</g>
</svg>
